M48
; DRILL file {KiCad 8.0.4} date 2026-02-28T16:11:50-0800
; FORMAT={-:-/ absolute / inch / decimal}
; #@! TF.CreationDate,2026-02-28T16:11:50-08:00
; #@! TF.GenerationSoftware,Kicad,Pcbnew,8.0.4
; #@! TF.FileFunction,Plated,1,4,PTH
FMAT,2
INCH
; #@! TA.AperFunction,Plated,PTH,ViaDrill
T1C0.0118
; #@! TA.AperFunction,Plated,PTH,ComponentDrill
T2C0.0236
%
G90
G05
T1
X-1.4517Y-0.3504
X-1.3858Y-0.4567
X-1.3858Y-0.5669
X-1.3858Y-0.6772
X-1.3858Y-0.7165
X-1.3819Y-0.5059
X-1.378Y-0.3346
X-1.378Y-0.3661
X-1.3504Y-0.6772
X-1.3504Y-0.7165
X-1.3465Y-0.5669
X-1.315Y-0.4567
X-1.315Y-0.6772
X-1.315Y-0.7165
X-1.3071Y-0.5669
X-1.2756Y0.5886
X-1.2638Y-0.5669
X-1.2559Y0.3976
X-1.2382Y-0.3406
X-1.2382Y-0.3839
X-1.2382Y-0.4252
X-1.185Y-0.1083
X-1.185Y-0.1398
X-1.1831Y0.1142
X-1.1831Y0.0807
X-1.1693Y0.7677
X-1.126Y0.3583
X-1.0827Y-0.1417
X-1.0669Y0.7677
X-1.0512Y0.0433
X-1.0157Y0.0748
X-0.9882Y-0.0315
X-0.9685Y0.7677
X-0.9291Y0.3071
X-0.9291Y0.2087
X-0.9252Y-0.0669
X-0.9213Y0.0748
X-0.9134Y-0.2559
X-0.874Y-0.2559
X-0.8701Y0.4921
X-0.8661Y0.7677
X-0.8465Y-0.1378
X-0.8346Y-0.2559
X-0.8228Y0.1339
X-0.8228Y-0.063
X-0.8189Y0.4055
X-0.815Y-0.3937
X-0.815Y-0.7953
X-0.7992Y0.3228
X-0.7992Y0.2323
X-0.7992Y0.0827
X-0.7992Y-0.0079
X-0.7835Y0.7087
X-0.7835Y0.4331
X-0.7677Y-0.1339
X-0.7638Y-0.2559
X-0.7598Y0.3228
X-0.7598Y0.2323
X-0.752Y0.0354
X-0.7441Y-0.063
X-0.7283Y-0.2559
X-0.7205Y0.4764
X-0.7126Y0.1339
X-0.7087Y0.0787
X-0.7047Y-0.0079
X-0.6929Y0.6732
X-0.6929Y0.563
X-0.6339Y0.315
X-0.6183Y-0.2677
X-0.6024Y0.7087
X-0.6024Y0.1772
X-0.5807Y-0.3189
X-0.5787Y-0.0669
X-0.5768Y0.0846
X-0.5709Y0.3701
X-0.5591Y-0.2165
X-0.5394Y-0.3189
X-0.5354Y-0.189
X-0.5138Y0.124
X-0.5039Y0.7087
X-0.5Y0.2795
X-0.5Y-0.7953
X-0.4843Y-0.0669
X-0.4173Y0.2717
X-0.4134Y0.563
X-0.4094Y0.4449
X-0.4094Y0.4094
X-0.3976Y0.2362
X-0.3976Y0.1969
X-0.374Y0.4764
X-0.3661Y0.1654
X-0.3642Y0.2894
X-0.3228Y0.7087
X-0.315Y0.1575
X-0.2953Y0.2008
X-0.2756Y0.1575
X-0.2598Y0.2008
X-0.2441Y0.0394
X-0.2087Y0.0394
X-0.1929Y0.0827
X-0.1693Y0.0551
X-0.1575Y-0.126
X-0.1575Y-0.185
X-0.1496Y-0.0039
X-0.1417Y0.1654
X-0.126Y0.0236
X-0.126Y-0.1575
X-0.1102Y0.1654
X-0.0906Y-0.126
X-0.0906Y-0.1811
X-0.0591Y-0.1575
X-0.0236Y-0.126
X-0.0236Y-0.185
X0.0669Y-0.122
X0.0669Y-0.2244
X0.2126Y-0.122
X0.2126Y-0.2244
X0.2598Y0.122
X0.2598Y-0.1732
X0.3976Y0.122
X0.4016Y-0.1732
T2
G00X-1.4047Y0.1558
M15
G01X-1.4283Y0.1558
M16
G05
G00X-1.4047Y-0.1844
M15
G01X-1.4283Y-0.1844
M16
G05
G00X-1.2303Y0.1558
M15
G01X-1.2736Y0.1558
M16
G05
G00X-1.2303Y-0.1844
M15
G01X-1.2736Y-0.1844
M16
G05
M30
