G04 #@! TF.GenerationSoftware,KiCad,Pcbnew,8.0.4*
G04 #@! TF.CreationDate,2026-02-28T16:11:48-08:00*
G04 #@! TF.ProjectId,MK4001MTD_USB_Reader,4d4b3430-3031-44d5-9444-5f5553425f52,rev?*
G04 #@! TF.SameCoordinates,Original*
G04 #@! TF.FileFunction,Soldermask,Top*
G04 #@! TF.FilePolarity,Negative*
%FSLAX46Y46*%
G04 Gerber Fmt 4.6, Leading zero omitted, Abs format (unit mm)*
G04 Created by KiCad (PCBNEW 8.0.4) date 2026-02-28 16:11:48*
%MOMM*%
%LPD*%
G01*
G04 APERTURE LIST*
%ADD10R,0.800000X1.000000*%
%ADD11C,0.900000*%
%ADD12R,1.500000X0.700000*%
%ADD13R,1.000000X1.250000*%
%ADD14R,0.750000X0.300000*%
%ADD15R,1.360000X1.460000*%
%ADD16C,2.200000*%
%ADD17R,1.400000X1.200000*%
%ADD18R,2.790000X1.903000*%
%ADD19C,0.650000*%
%ADD20R,1.150000X0.300000*%
%ADD21O,2.100000X1.000000*%
%ADD22O,1.600000X1.000000*%
G04 APERTURE END LIST*
G04 #@! TO.C,C19*
G36*
G01*
X-7050000Y11275000D02*
X-7050000Y10325000D01*
G75*
G02*
X-7300000Y10075000I-250000J0D01*
G01*
X-7800000Y10075000D01*
G75*
G02*
X-8050000Y10325000I0J250000D01*
G01*
X-8050000Y11275000D01*
G75*
G02*
X-7800000Y11525000I250000J0D01*
G01*
X-7300000Y11525000D01*
G75*
G02*
X-7050000Y11275000I0J-250000D01*
G01*
G37*
G36*
G01*
X-8950000Y11275000D02*
X-8950000Y10325000D01*
G75*
G02*
X-9200000Y10075000I-250000J0D01*
G01*
X-9700000Y10075000D01*
G75*
G02*
X-9950000Y10325000I0J250000D01*
G01*
X-9950000Y11275000D01*
G75*
G02*
X-9700000Y11525000I250000J0D01*
G01*
X-9200000Y11525000D01*
G75*
G02*
X-8950000Y11275000I0J-250000D01*
G01*
G37*
G04 #@! TD*
D10*
G04 #@! TO.C,SW1*
X-34337500Y16350000D03*
X-36547500Y16350000D03*
D11*
X-35447500Y14200000D03*
X-35447500Y11200000D03*
D10*
X-34337500Y9050000D03*
X-36547500Y9050000D03*
D12*
X-33687500Y14950000D03*
X-33687500Y11950000D03*
X-33687500Y10450000D03*
G04 #@! TD*
G04 #@! TO.C,C20*
G36*
G01*
X-34225000Y-17950000D02*
X-35175000Y-17950000D01*
G75*
G02*
X-35425000Y-17700000I0J250000D01*
G01*
X-35425000Y-17200000D01*
G75*
G02*
X-35175000Y-16950000I250000J0D01*
G01*
X-34225000Y-16950000D01*
G75*
G02*
X-33975000Y-17200000I0J-250000D01*
G01*
X-33975000Y-17700000D01*
G75*
G02*
X-34225000Y-17950000I-250000J0D01*
G01*
G37*
G36*
G01*
X-34225000Y-16050000D02*
X-35175000Y-16050000D01*
G75*
G02*
X-35425000Y-15800000I0J250000D01*
G01*
X-35425000Y-15300000D01*
G75*
G02*
X-35175000Y-15050000I250000J0D01*
G01*
X-34225000Y-15050000D01*
G75*
G02*
X-33975000Y-15300000I0J-250000D01*
G01*
X-33975000Y-15800000D01*
G75*
G02*
X-34225000Y-16050000I-250000J0D01*
G01*
G37*
G04 #@! TD*
G04 #@! TO.C,R7*
G36*
G01*
X-28780000Y-615000D02*
X-28780000Y-245000D01*
G75*
G02*
X-28645000Y-110000I135000J0D01*
G01*
X-28375000Y-110000D01*
G75*
G02*
X-28240000Y-245000I0J-135000D01*
G01*
X-28240000Y-615000D01*
G75*
G02*
X-28375000Y-750000I-135000J0D01*
G01*
X-28645000Y-750000D01*
G75*
G02*
X-28780000Y-615000I0J135000D01*
G01*
G37*
G36*
G01*
X-27760000Y-615000D02*
X-27760000Y-245000D01*
G75*
G02*
X-27625000Y-110000I135000J0D01*
G01*
X-27355000Y-110000D01*
G75*
G02*
X-27220000Y-245000I0J-135000D01*
G01*
X-27220000Y-615000D01*
G75*
G02*
X-27355000Y-750000I-135000J0D01*
G01*
X-27625000Y-750000D01*
G75*
G02*
X-27760000Y-615000I0J135000D01*
G01*
G37*
G04 #@! TD*
G04 #@! TO.C,R6*
G36*
G01*
X-28780000Y-1585000D02*
X-28780000Y-1215000D01*
G75*
G02*
X-28645000Y-1080000I135000J0D01*
G01*
X-28375000Y-1080000D01*
G75*
G02*
X-28240000Y-1215000I0J-135000D01*
G01*
X-28240000Y-1585000D01*
G75*
G02*
X-28375000Y-1720000I-135000J0D01*
G01*
X-28645000Y-1720000D01*
G75*
G02*
X-28780000Y-1585000I0J135000D01*
G01*
G37*
G36*
G01*
X-27760000Y-1585000D02*
X-27760000Y-1215000D01*
G75*
G02*
X-27625000Y-1080000I135000J0D01*
G01*
X-27355000Y-1080000D01*
G75*
G02*
X-27220000Y-1215000I0J-135000D01*
G01*
X-27220000Y-1585000D01*
G75*
G02*
X-27355000Y-1720000I-135000J0D01*
G01*
X-27625000Y-1720000D01*
G75*
G02*
X-27760000Y-1585000I0J135000D01*
G01*
G37*
G04 #@! TD*
G04 #@! TO.C,R3*
G36*
G01*
X-18115000Y6220000D02*
X-18485000Y6220000D01*
G75*
G02*
X-18620000Y6355000I0J135000D01*
G01*
X-18620000Y6625000D01*
G75*
G02*
X-18485000Y6760000I135000J0D01*
G01*
X-18115000Y6760000D01*
G75*
G02*
X-17980000Y6625000I0J-135000D01*
G01*
X-17980000Y6355000D01*
G75*
G02*
X-18115000Y6220000I-135000J0D01*
G01*
G37*
G36*
G01*
X-18115000Y7240000D02*
X-18485000Y7240000D01*
G75*
G02*
X-18620000Y7375000I0J135000D01*
G01*
X-18620000Y7645000D01*
G75*
G02*
X-18485000Y7780000I135000J0D01*
G01*
X-18115000Y7780000D01*
G75*
G02*
X-17980000Y7645000I0J-135000D01*
G01*
X-17980000Y7375000D01*
G75*
G02*
X-18115000Y7240000I-135000J0D01*
G01*
G37*
G04 #@! TD*
G04 #@! TO.C,R2*
G36*
G01*
X-13980000Y-7585000D02*
X-13980000Y-7215000D01*
G75*
G02*
X-13845000Y-7080000I135000J0D01*
G01*
X-13575000Y-7080000D01*
G75*
G02*
X-13440000Y-7215000I0J-135000D01*
G01*
X-13440000Y-7585000D01*
G75*
G02*
X-13575000Y-7720000I-135000J0D01*
G01*
X-13845000Y-7720000D01*
G75*
G02*
X-13980000Y-7585000I0J135000D01*
G01*
G37*
G36*
G01*
X-12960000Y-7585000D02*
X-12960000Y-7215000D01*
G75*
G02*
X-12825000Y-7080000I135000J0D01*
G01*
X-12555000Y-7080000D01*
G75*
G02*
X-12420000Y-7215000I0J-135000D01*
G01*
X-12420000Y-7585000D01*
G75*
G02*
X-12555000Y-7720000I-135000J0D01*
G01*
X-12825000Y-7720000D01*
G75*
G02*
X-12960000Y-7585000I0J135000D01*
G01*
G37*
G04 #@! TD*
G04 #@! TO.C,R1*
G36*
G01*
X-12885000Y-8120000D02*
X-12515000Y-8120000D01*
G75*
G02*
X-12380000Y-8255000I0J-135000D01*
G01*
X-12380000Y-8525000D01*
G75*
G02*
X-12515000Y-8660000I-135000J0D01*
G01*
X-12885000Y-8660000D01*
G75*
G02*
X-13020000Y-8525000I0J135000D01*
G01*
X-13020000Y-8255000D01*
G75*
G02*
X-12885000Y-8120000I135000J0D01*
G01*
G37*
G36*
G01*
X-12885000Y-9140000D02*
X-12515000Y-9140000D01*
G75*
G02*
X-12380000Y-9275000I0J-135000D01*
G01*
X-12380000Y-9545000D01*
G75*
G02*
X-12515000Y-9680000I-135000J0D01*
G01*
X-12885000Y-9680000D01*
G75*
G02*
X-13020000Y-9545000I0J135000D01*
G01*
X-13020000Y-9275000D01*
G75*
G02*
X-12885000Y-9140000I135000J0D01*
G01*
G37*
G04 #@! TD*
G04 #@! TO.C,U2*
G36*
G01*
X-17500000Y2356000D02*
X-17500000Y-556000D01*
G75*
G02*
X-17644000Y-700000I-144000J0D01*
G01*
X-20556000Y-700000D01*
G75*
G02*
X-20700000Y-556000I0J144000D01*
G01*
X-20700000Y2356000D01*
G75*
G02*
X-20556000Y2500000I144000J0D01*
G01*
X-17644000Y2500000D01*
G75*
G02*
X-17500000Y2356000I0J-144000D01*
G01*
G37*
G36*
G01*
X-15225000Y-1650000D02*
X-15225000Y-1750000D01*
G75*
G02*
X-15275000Y-1800000I-50000J0D01*
G01*
X-16050000Y-1800000D01*
G75*
G02*
X-16100000Y-1750000I0J50000D01*
G01*
X-16100000Y-1650000D01*
G75*
G02*
X-16050000Y-1600000I50000J0D01*
G01*
X-15275000Y-1600000D01*
G75*
G02*
X-15225000Y-1650000I0J-50000D01*
G01*
G37*
G36*
G01*
X-15225000Y-1250000D02*
X-15225000Y-1350000D01*
G75*
G02*
X-15275000Y-1400000I-50000J0D01*
G01*
X-16050000Y-1400000D01*
G75*
G02*
X-16100000Y-1350000I0J50000D01*
G01*
X-16100000Y-1250000D01*
G75*
G02*
X-16050000Y-1200000I50000J0D01*
G01*
X-15275000Y-1200000D01*
G75*
G02*
X-15225000Y-1250000I0J-50000D01*
G01*
G37*
G36*
G01*
X-15225000Y-850000D02*
X-15225000Y-950000D01*
G75*
G02*
X-15275000Y-1000000I-50000J0D01*
G01*
X-16050000Y-1000000D01*
G75*
G02*
X-16100000Y-950000I0J50000D01*
G01*
X-16100000Y-850000D01*
G75*
G02*
X-16050000Y-800000I50000J0D01*
G01*
X-15275000Y-800000D01*
G75*
G02*
X-15225000Y-850000I0J-50000D01*
G01*
G37*
G36*
G01*
X-15225000Y-450000D02*
X-15225000Y-550000D01*
G75*
G02*
X-15275000Y-600000I-50000J0D01*
G01*
X-16050000Y-600000D01*
G75*
G02*
X-16100000Y-550000I0J50000D01*
G01*
X-16100000Y-450000D01*
G75*
G02*
X-16050000Y-400000I50000J0D01*
G01*
X-15275000Y-400000D01*
G75*
G02*
X-15225000Y-450000I0J-50000D01*
G01*
G37*
G36*
G01*
X-15225000Y-50000D02*
X-15225000Y-150000D01*
G75*
G02*
X-15275000Y-200000I-50000J0D01*
G01*
X-16050000Y-200000D01*
G75*
G02*
X-16100000Y-150000I0J50000D01*
G01*
X-16100000Y-50000D01*
G75*
G02*
X-16050000Y0I50000J0D01*
G01*
X-15275000Y0D01*
G75*
G02*
X-15225000Y-50000I0J-50000D01*
G01*
G37*
G36*
G01*
X-15225000Y350000D02*
X-15225000Y250000D01*
G75*
G02*
X-15275000Y200000I-50000J0D01*
G01*
X-16050000Y200000D01*
G75*
G02*
X-16100000Y250000I0J50000D01*
G01*
X-16100000Y350000D01*
G75*
G02*
X-16050000Y400000I50000J0D01*
G01*
X-15275000Y400000D01*
G75*
G02*
X-15225000Y350000I0J-50000D01*
G01*
G37*
G36*
G01*
X-15225000Y750000D02*
X-15225000Y650000D01*
G75*
G02*
X-15275000Y600000I-50000J0D01*
G01*
X-16050000Y600000D01*
G75*
G02*
X-16100000Y650000I0J50000D01*
G01*
X-16100000Y750000D01*
G75*
G02*
X-16050000Y800000I50000J0D01*
G01*
X-15275000Y800000D01*
G75*
G02*
X-15225000Y750000I0J-50000D01*
G01*
G37*
G36*
G01*
X-15225000Y1150000D02*
X-15225000Y1050000D01*
G75*
G02*
X-15275000Y1000000I-50000J0D01*
G01*
X-16050000Y1000000D01*
G75*
G02*
X-16100000Y1050000I0J50000D01*
G01*
X-16100000Y1150000D01*
G75*
G02*
X-16050000Y1200000I50000J0D01*
G01*
X-15275000Y1200000D01*
G75*
G02*
X-15225000Y1150000I0J-50000D01*
G01*
G37*
G36*
G01*
X-15225000Y1550000D02*
X-15225000Y1450000D01*
G75*
G02*
X-15275000Y1400000I-50000J0D01*
G01*
X-16050000Y1400000D01*
G75*
G02*
X-16100000Y1450000I0J50000D01*
G01*
X-16100000Y1550000D01*
G75*
G02*
X-16050000Y1600000I50000J0D01*
G01*
X-15275000Y1600000D01*
G75*
G02*
X-15225000Y1550000I0J-50000D01*
G01*
G37*
G36*
G01*
X-15225000Y1950000D02*
X-15225000Y1850000D01*
G75*
G02*
X-15275000Y1800000I-50000J0D01*
G01*
X-16050000Y1800000D01*
G75*
G02*
X-16100000Y1850000I0J50000D01*
G01*
X-16100000Y1950000D01*
G75*
G02*
X-16050000Y2000000I50000J0D01*
G01*
X-15275000Y2000000D01*
G75*
G02*
X-15225000Y1950000I0J-50000D01*
G01*
G37*
G36*
G01*
X-15225000Y2350000D02*
X-15225000Y2250000D01*
G75*
G02*
X-15275000Y2200000I-50000J0D01*
G01*
X-16050000Y2200000D01*
G75*
G02*
X-16100000Y2250000I0J50000D01*
G01*
X-16100000Y2350000D01*
G75*
G02*
X-16050000Y2400000I50000J0D01*
G01*
X-15275000Y2400000D01*
G75*
G02*
X-15225000Y2350000I0J-50000D01*
G01*
G37*
G36*
G01*
X-15225000Y2750000D02*
X-15225000Y2650000D01*
G75*
G02*
X-15275000Y2600000I-50000J0D01*
G01*
X-16050000Y2600000D01*
G75*
G02*
X-16100000Y2650000I0J50000D01*
G01*
X-16100000Y2750000D01*
G75*
G02*
X-16050000Y2800000I50000J0D01*
G01*
X-15275000Y2800000D01*
G75*
G02*
X-15225000Y2750000I0J-50000D01*
G01*
G37*
G36*
G01*
X-15225000Y3150000D02*
X-15225000Y3050000D01*
G75*
G02*
X-15275000Y3000000I-50000J0D01*
G01*
X-16050000Y3000000D01*
G75*
G02*
X-16100000Y3050000I0J50000D01*
G01*
X-16100000Y3150000D01*
G75*
G02*
X-16050000Y3200000I50000J0D01*
G01*
X-15275000Y3200000D01*
G75*
G02*
X-15225000Y3150000I0J-50000D01*
G01*
G37*
G36*
G01*
X-15225000Y3550000D02*
X-15225000Y3450000D01*
G75*
G02*
X-15275000Y3400000I-50000J0D01*
G01*
X-16050000Y3400000D01*
G75*
G02*
X-16100000Y3450000I0J50000D01*
G01*
X-16100000Y3550000D01*
G75*
G02*
X-16050000Y3600000I50000J0D01*
G01*
X-15275000Y3600000D01*
G75*
G02*
X-15225000Y3550000I0J-50000D01*
G01*
G37*
G36*
G01*
X-16400000Y4725000D02*
X-16400000Y3950000D01*
G75*
G02*
X-16450000Y3900000I-50000J0D01*
G01*
X-16550000Y3900000D01*
G75*
G02*
X-16600000Y3950000I0J50000D01*
G01*
X-16600000Y4725000D01*
G75*
G02*
X-16550000Y4775000I50000J0D01*
G01*
X-16450000Y4775000D01*
G75*
G02*
X-16400000Y4725000I0J-50000D01*
G01*
G37*
G36*
G01*
X-16800000Y4725000D02*
X-16800000Y3950000D01*
G75*
G02*
X-16850000Y3900000I-50000J0D01*
G01*
X-16950000Y3900000D01*
G75*
G02*
X-17000000Y3950000I0J50000D01*
G01*
X-17000000Y4725000D01*
G75*
G02*
X-16950000Y4775000I50000J0D01*
G01*
X-16850000Y4775000D01*
G75*
G02*
X-16800000Y4725000I0J-50000D01*
G01*
G37*
G36*
G01*
X-17200000Y4725000D02*
X-17200000Y3950000D01*
G75*
G02*
X-17250000Y3900000I-50000J0D01*
G01*
X-17350000Y3900000D01*
G75*
G02*
X-17400000Y3950000I0J50000D01*
G01*
X-17400000Y4725000D01*
G75*
G02*
X-17350000Y4775000I50000J0D01*
G01*
X-17250000Y4775000D01*
G75*
G02*
X-17200000Y4725000I0J-50000D01*
G01*
G37*
G36*
G01*
X-17600000Y4725000D02*
X-17600000Y3950000D01*
G75*
G02*
X-17650000Y3900000I-50000J0D01*
G01*
X-17750000Y3900000D01*
G75*
G02*
X-17800000Y3950000I0J50000D01*
G01*
X-17800000Y4725000D01*
G75*
G02*
X-17750000Y4775000I50000J0D01*
G01*
X-17650000Y4775000D01*
G75*
G02*
X-17600000Y4725000I0J-50000D01*
G01*
G37*
G36*
G01*
X-18000000Y4725000D02*
X-18000000Y3950000D01*
G75*
G02*
X-18050000Y3900000I-50000J0D01*
G01*
X-18150000Y3900000D01*
G75*
G02*
X-18200000Y3950000I0J50000D01*
G01*
X-18200000Y4725000D01*
G75*
G02*
X-18150000Y4775000I50000J0D01*
G01*
X-18050000Y4775000D01*
G75*
G02*
X-18000000Y4725000I0J-50000D01*
G01*
G37*
G36*
G01*
X-18400000Y4725000D02*
X-18400000Y3950000D01*
G75*
G02*
X-18450000Y3900000I-50000J0D01*
G01*
X-18550000Y3900000D01*
G75*
G02*
X-18600000Y3950000I0J50000D01*
G01*
X-18600000Y4725000D01*
G75*
G02*
X-18550000Y4775000I50000J0D01*
G01*
X-18450000Y4775000D01*
G75*
G02*
X-18400000Y4725000I0J-50000D01*
G01*
G37*
G36*
G01*
X-18800000Y4725000D02*
X-18800000Y3950000D01*
G75*
G02*
X-18850000Y3900000I-50000J0D01*
G01*
X-18950000Y3900000D01*
G75*
G02*
X-19000000Y3950000I0J50000D01*
G01*
X-19000000Y4725000D01*
G75*
G02*
X-18950000Y4775000I50000J0D01*
G01*
X-18850000Y4775000D01*
G75*
G02*
X-18800000Y4725000I0J-50000D01*
G01*
G37*
G36*
G01*
X-19200000Y4725000D02*
X-19200000Y3950000D01*
G75*
G02*
X-19250000Y3900000I-50000J0D01*
G01*
X-19350000Y3900000D01*
G75*
G02*
X-19400000Y3950000I0J50000D01*
G01*
X-19400000Y4725000D01*
G75*
G02*
X-19350000Y4775000I50000J0D01*
G01*
X-19250000Y4775000D01*
G75*
G02*
X-19200000Y4725000I0J-50000D01*
G01*
G37*
G36*
G01*
X-19600000Y4725000D02*
X-19600000Y3950000D01*
G75*
G02*
X-19650000Y3900000I-50000J0D01*
G01*
X-19750000Y3900000D01*
G75*
G02*
X-19800000Y3950000I0J50000D01*
G01*
X-19800000Y4725000D01*
G75*
G02*
X-19750000Y4775000I50000J0D01*
G01*
X-19650000Y4775000D01*
G75*
G02*
X-19600000Y4725000I0J-50000D01*
G01*
G37*
G36*
G01*
X-20000000Y4725000D02*
X-20000000Y3950000D01*
G75*
G02*
X-20050000Y3900000I-50000J0D01*
G01*
X-20150000Y3900000D01*
G75*
G02*
X-20200000Y3950000I0J50000D01*
G01*
X-20200000Y4725000D01*
G75*
G02*
X-20150000Y4775000I50000J0D01*
G01*
X-20050000Y4775000D01*
G75*
G02*
X-20000000Y4725000I0J-50000D01*
G01*
G37*
G36*
G01*
X-20400000Y4725000D02*
X-20400000Y3950000D01*
G75*
G02*
X-20450000Y3900000I-50000J0D01*
G01*
X-20550000Y3900000D01*
G75*
G02*
X-20600000Y3950000I0J50000D01*
G01*
X-20600000Y4725000D01*
G75*
G02*
X-20550000Y4775000I50000J0D01*
G01*
X-20450000Y4775000D01*
G75*
G02*
X-20400000Y4725000I0J-50000D01*
G01*
G37*
G36*
G01*
X-20800000Y4725000D02*
X-20800000Y3950000D01*
G75*
G02*
X-20850000Y3900000I-50000J0D01*
G01*
X-20950000Y3900000D01*
G75*
G02*
X-21000000Y3950000I0J50000D01*
G01*
X-21000000Y4725000D01*
G75*
G02*
X-20950000Y4775000I50000J0D01*
G01*
X-20850000Y4775000D01*
G75*
G02*
X-20800000Y4725000I0J-50000D01*
G01*
G37*
G36*
G01*
X-21200000Y4725000D02*
X-21200000Y3950000D01*
G75*
G02*
X-21250000Y3900000I-50000J0D01*
G01*
X-21350000Y3900000D01*
G75*
G02*
X-21400000Y3950000I0J50000D01*
G01*
X-21400000Y4725000D01*
G75*
G02*
X-21350000Y4775000I50000J0D01*
G01*
X-21250000Y4775000D01*
G75*
G02*
X-21200000Y4725000I0J-50000D01*
G01*
G37*
G36*
G01*
X-21600000Y4725000D02*
X-21600000Y3950000D01*
G75*
G02*
X-21650000Y3900000I-50000J0D01*
G01*
X-21750000Y3900000D01*
G75*
G02*
X-21800000Y3950000I0J50000D01*
G01*
X-21800000Y4725000D01*
G75*
G02*
X-21750000Y4775000I50000J0D01*
G01*
X-21650000Y4775000D01*
G75*
G02*
X-21600000Y4725000I0J-50000D01*
G01*
G37*
G36*
G01*
X-22100000Y3550000D02*
X-22100000Y3450000D01*
G75*
G02*
X-22150000Y3400000I-50000J0D01*
G01*
X-22925000Y3400000D01*
G75*
G02*
X-22975000Y3450000I0J50000D01*
G01*
X-22975000Y3550000D01*
G75*
G02*
X-22925000Y3600000I50000J0D01*
G01*
X-22150000Y3600000D01*
G75*
G02*
X-22100000Y3550000I0J-50000D01*
G01*
G37*
G36*
G01*
X-22100000Y3150000D02*
X-22100000Y3050000D01*
G75*
G02*
X-22150000Y3000000I-50000J0D01*
G01*
X-22925000Y3000000D01*
G75*
G02*
X-22975000Y3050000I0J50000D01*
G01*
X-22975000Y3150000D01*
G75*
G02*
X-22925000Y3200000I50000J0D01*
G01*
X-22150000Y3200000D01*
G75*
G02*
X-22100000Y3150000I0J-50000D01*
G01*
G37*
G36*
G01*
X-22100000Y2750000D02*
X-22100000Y2650000D01*
G75*
G02*
X-22150000Y2600000I-50000J0D01*
G01*
X-22925000Y2600000D01*
G75*
G02*
X-22975000Y2650000I0J50000D01*
G01*
X-22975000Y2750000D01*
G75*
G02*
X-22925000Y2800000I50000J0D01*
G01*
X-22150000Y2800000D01*
G75*
G02*
X-22100000Y2750000I0J-50000D01*
G01*
G37*
G36*
G01*
X-22100000Y2350000D02*
X-22100000Y2250000D01*
G75*
G02*
X-22150000Y2200000I-50000J0D01*
G01*
X-22925000Y2200000D01*
G75*
G02*
X-22975000Y2250000I0J50000D01*
G01*
X-22975000Y2350000D01*
G75*
G02*
X-22925000Y2400000I50000J0D01*
G01*
X-22150000Y2400000D01*
G75*
G02*
X-22100000Y2350000I0J-50000D01*
G01*
G37*
G36*
G01*
X-22100000Y1950000D02*
X-22100000Y1850000D01*
G75*
G02*
X-22150000Y1800000I-50000J0D01*
G01*
X-22925000Y1800000D01*
G75*
G02*
X-22975000Y1850000I0J50000D01*
G01*
X-22975000Y1950000D01*
G75*
G02*
X-22925000Y2000000I50000J0D01*
G01*
X-22150000Y2000000D01*
G75*
G02*
X-22100000Y1950000I0J-50000D01*
G01*
G37*
G36*
G01*
X-22100000Y1550000D02*
X-22100000Y1450000D01*
G75*
G02*
X-22150000Y1400000I-50000J0D01*
G01*
X-22925000Y1400000D01*
G75*
G02*
X-22975000Y1450000I0J50000D01*
G01*
X-22975000Y1550000D01*
G75*
G02*
X-22925000Y1600000I50000J0D01*
G01*
X-22150000Y1600000D01*
G75*
G02*
X-22100000Y1550000I0J-50000D01*
G01*
G37*
G36*
G01*
X-22100000Y1150000D02*
X-22100000Y1050000D01*
G75*
G02*
X-22150000Y1000000I-50000J0D01*
G01*
X-22925000Y1000000D01*
G75*
G02*
X-22975000Y1050000I0J50000D01*
G01*
X-22975000Y1150000D01*
G75*
G02*
X-22925000Y1200000I50000J0D01*
G01*
X-22150000Y1200000D01*
G75*
G02*
X-22100000Y1150000I0J-50000D01*
G01*
G37*
G36*
G01*
X-22100000Y750000D02*
X-22100000Y650000D01*
G75*
G02*
X-22150000Y600000I-50000J0D01*
G01*
X-22925000Y600000D01*
G75*
G02*
X-22975000Y650000I0J50000D01*
G01*
X-22975000Y750000D01*
G75*
G02*
X-22925000Y800000I50000J0D01*
G01*
X-22150000Y800000D01*
G75*
G02*
X-22100000Y750000I0J-50000D01*
G01*
G37*
G36*
G01*
X-22100000Y350000D02*
X-22100000Y250000D01*
G75*
G02*
X-22150000Y200000I-50000J0D01*
G01*
X-22925000Y200000D01*
G75*
G02*
X-22975000Y250000I0J50000D01*
G01*
X-22975000Y350000D01*
G75*
G02*
X-22925000Y400000I50000J0D01*
G01*
X-22150000Y400000D01*
G75*
G02*
X-22100000Y350000I0J-50000D01*
G01*
G37*
G36*
G01*
X-22100000Y-50000D02*
X-22100000Y-150000D01*
G75*
G02*
X-22150000Y-200000I-50000J0D01*
G01*
X-22925000Y-200000D01*
G75*
G02*
X-22975000Y-150000I0J50000D01*
G01*
X-22975000Y-50000D01*
G75*
G02*
X-22925000Y0I50000J0D01*
G01*
X-22150000Y0D01*
G75*
G02*
X-22100000Y-50000I0J-50000D01*
G01*
G37*
G36*
G01*
X-22100000Y-450000D02*
X-22100000Y-550000D01*
G75*
G02*
X-22150000Y-600000I-50000J0D01*
G01*
X-22925000Y-600000D01*
G75*
G02*
X-22975000Y-550000I0J50000D01*
G01*
X-22975000Y-450000D01*
G75*
G02*
X-22925000Y-400000I50000J0D01*
G01*
X-22150000Y-400000D01*
G75*
G02*
X-22100000Y-450000I0J-50000D01*
G01*
G37*
G36*
G01*
X-22100000Y-850000D02*
X-22100000Y-950000D01*
G75*
G02*
X-22150000Y-1000000I-50000J0D01*
G01*
X-22925000Y-1000000D01*
G75*
G02*
X-22975000Y-950000I0J50000D01*
G01*
X-22975000Y-850000D01*
G75*
G02*
X-22925000Y-800000I50000J0D01*
G01*
X-22150000Y-800000D01*
G75*
G02*
X-22100000Y-850000I0J-50000D01*
G01*
G37*
G36*
G01*
X-22100000Y-1250000D02*
X-22100000Y-1350000D01*
G75*
G02*
X-22150000Y-1400000I-50000J0D01*
G01*
X-22925000Y-1400000D01*
G75*
G02*
X-22975000Y-1350000I0J50000D01*
G01*
X-22975000Y-1250000D01*
G75*
G02*
X-22925000Y-1200000I50000J0D01*
G01*
X-22150000Y-1200000D01*
G75*
G02*
X-22100000Y-1250000I0J-50000D01*
G01*
G37*
G36*
G01*
X-22100000Y-1650000D02*
X-22100000Y-1750000D01*
G75*
G02*
X-22150000Y-1800000I-50000J0D01*
G01*
X-22925000Y-1800000D01*
G75*
G02*
X-22975000Y-1750000I0J50000D01*
G01*
X-22975000Y-1650000D01*
G75*
G02*
X-22925000Y-1600000I50000J0D01*
G01*
X-22150000Y-1600000D01*
G75*
G02*
X-22100000Y-1650000I0J-50000D01*
G01*
G37*
G36*
G01*
X-21600000Y-2150000D02*
X-21600000Y-2925000D01*
G75*
G02*
X-21650000Y-2975000I-50000J0D01*
G01*
X-21750000Y-2975000D01*
G75*
G02*
X-21800000Y-2925000I0J50000D01*
G01*
X-21800000Y-2150000D01*
G75*
G02*
X-21750000Y-2100000I50000J0D01*
G01*
X-21650000Y-2100000D01*
G75*
G02*
X-21600000Y-2150000I0J-50000D01*
G01*
G37*
G36*
G01*
X-21200000Y-2150000D02*
X-21200000Y-2925000D01*
G75*
G02*
X-21250000Y-2975000I-50000J0D01*
G01*
X-21350000Y-2975000D01*
G75*
G02*
X-21400000Y-2925000I0J50000D01*
G01*
X-21400000Y-2150000D01*
G75*
G02*
X-21350000Y-2100000I50000J0D01*
G01*
X-21250000Y-2100000D01*
G75*
G02*
X-21200000Y-2150000I0J-50000D01*
G01*
G37*
G36*
G01*
X-20800000Y-2150000D02*
X-20800000Y-2925000D01*
G75*
G02*
X-20850000Y-2975000I-50000J0D01*
G01*
X-20950000Y-2975000D01*
G75*
G02*
X-21000000Y-2925000I0J50000D01*
G01*
X-21000000Y-2150000D01*
G75*
G02*
X-20950000Y-2100000I50000J0D01*
G01*
X-20850000Y-2100000D01*
G75*
G02*
X-20800000Y-2150000I0J-50000D01*
G01*
G37*
G36*
G01*
X-20400000Y-2150000D02*
X-20400000Y-2925000D01*
G75*
G02*
X-20450000Y-2975000I-50000J0D01*
G01*
X-20550000Y-2975000D01*
G75*
G02*
X-20600000Y-2925000I0J50000D01*
G01*
X-20600000Y-2150000D01*
G75*
G02*
X-20550000Y-2100000I50000J0D01*
G01*
X-20450000Y-2100000D01*
G75*
G02*
X-20400000Y-2150000I0J-50000D01*
G01*
G37*
G36*
G01*
X-20000000Y-2150000D02*
X-20000000Y-2925000D01*
G75*
G02*
X-20050000Y-2975000I-50000J0D01*
G01*
X-20150000Y-2975000D01*
G75*
G02*
X-20200000Y-2925000I0J50000D01*
G01*
X-20200000Y-2150000D01*
G75*
G02*
X-20150000Y-2100000I50000J0D01*
G01*
X-20050000Y-2100000D01*
G75*
G02*
X-20000000Y-2150000I0J-50000D01*
G01*
G37*
G36*
G01*
X-19600000Y-2150000D02*
X-19600000Y-2925000D01*
G75*
G02*
X-19650000Y-2975000I-50000J0D01*
G01*
X-19750000Y-2975000D01*
G75*
G02*
X-19800000Y-2925000I0J50000D01*
G01*
X-19800000Y-2150000D01*
G75*
G02*
X-19750000Y-2100000I50000J0D01*
G01*
X-19650000Y-2100000D01*
G75*
G02*
X-19600000Y-2150000I0J-50000D01*
G01*
G37*
G36*
G01*
X-19200000Y-2150000D02*
X-19200000Y-2925000D01*
G75*
G02*
X-19250000Y-2975000I-50000J0D01*
G01*
X-19350000Y-2975000D01*
G75*
G02*
X-19400000Y-2925000I0J50000D01*
G01*
X-19400000Y-2150000D01*
G75*
G02*
X-19350000Y-2100000I50000J0D01*
G01*
X-19250000Y-2100000D01*
G75*
G02*
X-19200000Y-2150000I0J-50000D01*
G01*
G37*
G36*
G01*
X-18800000Y-2150000D02*
X-18800000Y-2925000D01*
G75*
G02*
X-18850000Y-2975000I-50000J0D01*
G01*
X-18950000Y-2975000D01*
G75*
G02*
X-19000000Y-2925000I0J50000D01*
G01*
X-19000000Y-2150000D01*
G75*
G02*
X-18950000Y-2100000I50000J0D01*
G01*
X-18850000Y-2100000D01*
G75*
G02*
X-18800000Y-2150000I0J-50000D01*
G01*
G37*
G36*
G01*
X-18400000Y-2150000D02*
X-18400000Y-2925000D01*
G75*
G02*
X-18450000Y-2975000I-50000J0D01*
G01*
X-18550000Y-2975000D01*
G75*
G02*
X-18600000Y-2925000I0J50000D01*
G01*
X-18600000Y-2150000D01*
G75*
G02*
X-18550000Y-2100000I50000J0D01*
G01*
X-18450000Y-2100000D01*
G75*
G02*
X-18400000Y-2150000I0J-50000D01*
G01*
G37*
G36*
G01*
X-18000000Y-2150000D02*
X-18000000Y-2925000D01*
G75*
G02*
X-18050000Y-2975000I-50000J0D01*
G01*
X-18150000Y-2975000D01*
G75*
G02*
X-18200000Y-2925000I0J50000D01*
G01*
X-18200000Y-2150000D01*
G75*
G02*
X-18150000Y-2100000I50000J0D01*
G01*
X-18050000Y-2100000D01*
G75*
G02*
X-18000000Y-2150000I0J-50000D01*
G01*
G37*
G36*
G01*
X-17600000Y-2150000D02*
X-17600000Y-2925000D01*
G75*
G02*
X-17650000Y-2975000I-50000J0D01*
G01*
X-17750000Y-2975000D01*
G75*
G02*
X-17800000Y-2925000I0J50000D01*
G01*
X-17800000Y-2150000D01*
G75*
G02*
X-17750000Y-2100000I50000J0D01*
G01*
X-17650000Y-2100000D01*
G75*
G02*
X-17600000Y-2150000I0J-50000D01*
G01*
G37*
G36*
G01*
X-17200000Y-2150000D02*
X-17200000Y-2925000D01*
G75*
G02*
X-17250000Y-2975000I-50000J0D01*
G01*
X-17350000Y-2975000D01*
G75*
G02*
X-17400000Y-2925000I0J50000D01*
G01*
X-17400000Y-2150000D01*
G75*
G02*
X-17350000Y-2100000I50000J0D01*
G01*
X-17250000Y-2100000D01*
G75*
G02*
X-17200000Y-2150000I0J-50000D01*
G01*
G37*
G36*
G01*
X-16800000Y-2150000D02*
X-16800000Y-2925000D01*
G75*
G02*
X-16850000Y-2975000I-50000J0D01*
G01*
X-16950000Y-2975000D01*
G75*
G02*
X-17000000Y-2925000I0J50000D01*
G01*
X-17000000Y-2150000D01*
G75*
G02*
X-16950000Y-2100000I50000J0D01*
G01*
X-16850000Y-2100000D01*
G75*
G02*
X-16800000Y-2150000I0J-50000D01*
G01*
G37*
G36*
G01*
X-16400000Y-2150000D02*
X-16400000Y-2925000D01*
G75*
G02*
X-16450000Y-2975000I-50000J0D01*
G01*
X-16550000Y-2975000D01*
G75*
G02*
X-16600000Y-2925000I0J50000D01*
G01*
X-16600000Y-2150000D01*
G75*
G02*
X-16550000Y-2100000I50000J0D01*
G01*
X-16450000Y-2100000D01*
G75*
G02*
X-16400000Y-2150000I0J-50000D01*
G01*
G37*
G04 #@! TD*
D13*
G04 #@! TO.C,SW3*
X-20700000Y-11225000D03*
X-20700000Y-18975000D03*
G04 #@! TD*
G04 #@! TO.C,SW2*
X-12700000Y-11225000D03*
X-12700000Y-18975000D03*
G04 #@! TD*
D14*
G04 #@! TO.C,U1*
X-12700000Y-6250000D03*
X-12700000Y-5750000D03*
X-12700000Y-5250000D03*
X-12700000Y-4750000D03*
X-15700000Y-4750000D03*
X-15700000Y-5250000D03*
X-15700000Y-5750000D03*
X-15700000Y-6250000D03*
D15*
X-14200000Y-5500000D03*
G04 #@! TD*
G04 #@! TO.C,J1*
G36*
G01*
X2425000Y-2673000D02*
X3525000Y-2673000D01*
G75*
G02*
X3627000Y-2775000I0J-102000D01*
G01*
X3627000Y-3525000D01*
G75*
G02*
X3525000Y-3627000I-102000J0D01*
G01*
X2425000Y-3627000D01*
G75*
G02*
X2323000Y-3525000I0J102000D01*
G01*
X2323000Y-2775000D01*
G75*
G02*
X2425000Y-2673000I102000J0D01*
G01*
G37*
G36*
G01*
X3375000Y-2673000D02*
X4475000Y-2673000D01*
G75*
G02*
X4577000Y-2775000I0J-102000D01*
G01*
X4577000Y-3525000D01*
G75*
G02*
X4475000Y-3627000I-102000J0D01*
G01*
X3375000Y-3627000D01*
G75*
G02*
X3273000Y-3525000I0J102000D01*
G01*
X3273000Y-2775000D01*
G75*
G02*
X3375000Y-2673000I102000J0D01*
G01*
G37*
G36*
G01*
X2425000Y-5173000D02*
X3525000Y-5173000D01*
G75*
G02*
X3627000Y-5275000I0J-102000D01*
G01*
X3627000Y-6025000D01*
G75*
G02*
X3525000Y-6127000I-102000J0D01*
G01*
X2425000Y-6127000D01*
G75*
G02*
X2323000Y-6025000I0J102000D01*
G01*
X2323000Y-5275000D01*
G75*
G02*
X2425000Y-5173000I102000J0D01*
G01*
G37*
G36*
G01*
X3375000Y-5173000D02*
X4475000Y-5173000D01*
G75*
G02*
X4577000Y-5275000I0J-102000D01*
G01*
X4577000Y-6025000D01*
G75*
G02*
X4475000Y-6127000I-102000J0D01*
G01*
X3375000Y-6127000D01*
G75*
G02*
X3273000Y-6025000I0J102000D01*
G01*
X3273000Y-5275000D01*
G75*
G02*
X3375000Y-5173000I102000J0D01*
G01*
G37*
G36*
G01*
X5025000Y-8898000D02*
X6125000Y-8898000D01*
G75*
G02*
X6227000Y-9000000I0J-102000D01*
G01*
X6227000Y-9750000D01*
G75*
G02*
X6125000Y-9852000I-102000J0D01*
G01*
X5025000Y-9852000D01*
G75*
G02*
X4923000Y-9750000I0J102000D01*
G01*
X4923000Y-9000000D01*
G75*
G02*
X5025000Y-8898000I102000J0D01*
G01*
G37*
G36*
G01*
X5975000Y-8898000D02*
X7075000Y-8898000D01*
G75*
G02*
X7177000Y-9000000I0J-102000D01*
G01*
X7177000Y-9750000D01*
G75*
G02*
X7075000Y-9852000I-102000J0D01*
G01*
X5975000Y-9852000D01*
G75*
G02*
X5873000Y-9750000I0J102000D01*
G01*
X5873000Y-9000000D01*
G75*
G02*
X5975000Y-8898000I102000J0D01*
G01*
G37*
G36*
G01*
X7325000Y10327000D02*
X8425000Y10327000D01*
G75*
G02*
X8527000Y10225000I0J-102000D01*
G01*
X8527000Y9475000D01*
G75*
G02*
X8425000Y9373000I-102000J0D01*
G01*
X7325000Y9373000D01*
G75*
G02*
X7223000Y9475000I0J102000D01*
G01*
X7223000Y10225000D01*
G75*
G02*
X7325000Y10327000I102000J0D01*
G01*
G37*
G36*
G01*
X8275000Y10327000D02*
X9375000Y10327000D01*
G75*
G02*
X9477000Y10225000I0J-102000D01*
G01*
X9477000Y9475000D01*
G75*
G02*
X9375000Y9373000I-102000J0D01*
G01*
X8275000Y9373000D01*
G75*
G02*
X8173000Y9475000I0J102000D01*
G01*
X8173000Y10225000D01*
G75*
G02*
X8275000Y10327000I102000J0D01*
G01*
G37*
G36*
G01*
X7325000Y8527000D02*
X8425000Y8527000D01*
G75*
G02*
X8527000Y8425000I0J-102000D01*
G01*
X8527000Y7675000D01*
G75*
G02*
X8425000Y7573000I-102000J0D01*
G01*
X7325000Y7573000D01*
G75*
G02*
X7223000Y7675000I0J102000D01*
G01*
X7223000Y8425000D01*
G75*
G02*
X7325000Y8527000I102000J0D01*
G01*
G37*
G36*
G01*
X8275000Y8527000D02*
X9375000Y8527000D01*
G75*
G02*
X9477000Y8425000I0J-102000D01*
G01*
X9477000Y7675000D01*
G75*
G02*
X9375000Y7573000I-102000J0D01*
G01*
X8275000Y7573000D01*
G75*
G02*
X8173000Y7675000I0J102000D01*
G01*
X8173000Y8425000D01*
G75*
G02*
X8275000Y8527000I102000J0D01*
G01*
G37*
G36*
G01*
X7325000Y6102000D02*
X8425000Y6102000D01*
G75*
G02*
X8527000Y6000000I0J-102000D01*
G01*
X8527000Y5250000D01*
G75*
G02*
X8425000Y5148000I-102000J0D01*
G01*
X7325000Y5148000D01*
G75*
G02*
X7223000Y5250000I0J102000D01*
G01*
X7223000Y6000000D01*
G75*
G02*
X7325000Y6102000I102000J0D01*
G01*
G37*
G36*
G01*
X8275000Y6102000D02*
X9375000Y6102000D01*
G75*
G02*
X9477000Y6000000I0J-102000D01*
G01*
X9477000Y5250000D01*
G75*
G02*
X9375000Y5148000I-102000J0D01*
G01*
X8275000Y5148000D01*
G75*
G02*
X8173000Y5250000I0J102000D01*
G01*
X8173000Y6000000D01*
G75*
G02*
X8275000Y6102000I102000J0D01*
G01*
G37*
G36*
G01*
X7325000Y3602000D02*
X8425000Y3602000D01*
G75*
G02*
X8527000Y3500000I0J-102000D01*
G01*
X8527000Y2750000D01*
G75*
G02*
X8425000Y2648000I-102000J0D01*
G01*
X7325000Y2648000D01*
G75*
G02*
X7223000Y2750000I0J102000D01*
G01*
X7223000Y3500000D01*
G75*
G02*
X7325000Y3602000I102000J0D01*
G01*
G37*
G36*
G01*
X8275000Y3602000D02*
X9375000Y3602000D01*
G75*
G02*
X9477000Y3500000I0J-102000D01*
G01*
X9477000Y2750000D01*
G75*
G02*
X9375000Y2648000I-102000J0D01*
G01*
X8275000Y2648000D01*
G75*
G02*
X8173000Y2750000I0J102000D01*
G01*
X8173000Y3500000D01*
G75*
G02*
X8275000Y3602000I102000J0D01*
G01*
G37*
G36*
G01*
X7425000Y1102000D02*
X8525000Y1102000D01*
G75*
G02*
X8627000Y1000000I0J-102000D01*
G01*
X8627000Y250000D01*
G75*
G02*
X8525000Y148000I-102000J0D01*
G01*
X7425000Y148000D01*
G75*
G02*
X7323000Y250000I0J102000D01*
G01*
X7323000Y1000000D01*
G75*
G02*
X7425000Y1102000I102000J0D01*
G01*
G37*
G36*
G01*
X8375000Y1102000D02*
X9475000Y1102000D01*
G75*
G02*
X9577000Y1000000I0J-102000D01*
G01*
X9577000Y250000D01*
G75*
G02*
X9475000Y148000I-102000J0D01*
G01*
X8375000Y148000D01*
G75*
G02*
X8273000Y250000I0J102000D01*
G01*
X8273000Y1000000D01*
G75*
G02*
X8375000Y1102000I102000J0D01*
G01*
G37*
G36*
G01*
X7425000Y-1398000D02*
X8525000Y-1398000D01*
G75*
G02*
X8627000Y-1500000I0J-102000D01*
G01*
X8627000Y-2250000D01*
G75*
G02*
X8525000Y-2352000I-102000J0D01*
G01*
X7425000Y-2352000D01*
G75*
G02*
X7323000Y-2250000I0J102000D01*
G01*
X7323000Y-1500000D01*
G75*
G02*
X7425000Y-1398000I102000J0D01*
G01*
G37*
G36*
G01*
X8375000Y-1398000D02*
X9475000Y-1398000D01*
G75*
G02*
X9577000Y-1500000I0J-102000D01*
G01*
X9577000Y-2250000D01*
G75*
G02*
X9475000Y-2352000I-102000J0D01*
G01*
X8375000Y-2352000D01*
G75*
G02*
X8273000Y-2250000I0J102000D01*
G01*
X8273000Y-1500000D01*
G75*
G02*
X8375000Y-1398000I102000J0D01*
G01*
G37*
G36*
G01*
X7325000Y-3898000D02*
X8425000Y-3898000D01*
G75*
G02*
X8527000Y-4000000I0J-102000D01*
G01*
X8527000Y-4750000D01*
G75*
G02*
X8425000Y-4852000I-102000J0D01*
G01*
X7325000Y-4852000D01*
G75*
G02*
X7223000Y-4750000I0J102000D01*
G01*
X7223000Y-4000000D01*
G75*
G02*
X7325000Y-3898000I102000J0D01*
G01*
G37*
G36*
G01*
X8275000Y-3898000D02*
X9375000Y-3898000D01*
G75*
G02*
X9477000Y-4000000I0J-102000D01*
G01*
X9477000Y-4750000D01*
G75*
G02*
X9375000Y-4852000I-102000J0D01*
G01*
X8275000Y-4852000D01*
G75*
G02*
X8173000Y-4750000I0J102000D01*
G01*
X8173000Y-4000000D01*
G75*
G02*
X8275000Y-3898000I102000J0D01*
G01*
G37*
G36*
G01*
X7325000Y-6398000D02*
X8425000Y-6398000D01*
G75*
G02*
X8527000Y-6500000I0J-102000D01*
G01*
X8527000Y-7250000D01*
G75*
G02*
X8425000Y-7352000I-102000J0D01*
G01*
X7325000Y-7352000D01*
G75*
G02*
X7223000Y-7250000I0J102000D01*
G01*
X7223000Y-6500000D01*
G75*
G02*
X7325000Y-6398000I102000J0D01*
G01*
G37*
G36*
G01*
X8275000Y-6398000D02*
X9375000Y-6398000D01*
G75*
G02*
X9477000Y-6500000I0J-102000D01*
G01*
X9477000Y-7250000D01*
G75*
G02*
X9375000Y-7352000I-102000J0D01*
G01*
X8275000Y-7352000D01*
G75*
G02*
X8173000Y-7250000I0J102000D01*
G01*
X8173000Y-6500000D01*
G75*
G02*
X8275000Y-6398000I102000J0D01*
G01*
G37*
G04 #@! TD*
D16*
G04 #@! TO.C,H7*
X2200000Y100000D03*
G04 #@! TD*
G04 #@! TO.C,H6*
X16700000Y18000000D03*
G04 #@! TD*
G04 #@! TO.C,H5*
X16700000Y-18000000D03*
G04 #@! TD*
G04 #@! TO.C,H4*
X60700000Y18000000D03*
G04 #@! TD*
G04 #@! TO.C,H3*
X60700000Y-18000000D03*
G04 #@! TD*
G04 #@! TO.C,H2*
X6000000Y18000000D03*
G04 #@! TD*
G04 #@! TO.C,H1*
X6000000Y-18000000D03*
G04 #@! TD*
D17*
G04 #@! TO.C,Y1*
X-16100000Y9250000D03*
X-18300000Y9250000D03*
X-18300000Y10950000D03*
X-16100000Y10950000D03*
G04 #@! TD*
G04 #@! TO.C,U3*
G36*
G01*
X-34212500Y-13512500D02*
X-34512500Y-13512500D01*
G75*
G02*
X-34662500Y-13362500I0J150000D01*
G01*
X-34662500Y-12337500D01*
G75*
G02*
X-34512500Y-12187500I150000J0D01*
G01*
X-34212500Y-12187500D01*
G75*
G02*
X-34062500Y-12337500I0J-150000D01*
G01*
X-34062500Y-13362500D01*
G75*
G02*
X-34212500Y-13512500I-150000J0D01*
G01*
G37*
G36*
G01*
X-33262500Y-13512500D02*
X-33562500Y-13512500D01*
G75*
G02*
X-33712500Y-13362500I0J150000D01*
G01*
X-33712500Y-12337500D01*
G75*
G02*
X-33562500Y-12187500I150000J0D01*
G01*
X-33262500Y-12187500D01*
G75*
G02*
X-33112500Y-12337500I0J-150000D01*
G01*
X-33112500Y-13362500D01*
G75*
G02*
X-33262500Y-13512500I-150000J0D01*
G01*
G37*
G36*
G01*
X-32312500Y-13512500D02*
X-32612500Y-13512500D01*
G75*
G02*
X-32762500Y-13362500I0J150000D01*
G01*
X-32762500Y-12337500D01*
G75*
G02*
X-32612500Y-12187500I150000J0D01*
G01*
X-32312500Y-12187500D01*
G75*
G02*
X-32162500Y-12337500I0J-150000D01*
G01*
X-32162500Y-13362500D01*
G75*
G02*
X-32312500Y-13512500I-150000J0D01*
G01*
G37*
G36*
G01*
X-32312500Y-11237500D02*
X-32612500Y-11237500D01*
G75*
G02*
X-32762500Y-11087500I0J150000D01*
G01*
X-32762500Y-10062500D01*
G75*
G02*
X-32612500Y-9912500I150000J0D01*
G01*
X-32312500Y-9912500D01*
G75*
G02*
X-32162500Y-10062500I0J-150000D01*
G01*
X-32162500Y-11087500D01*
G75*
G02*
X-32312500Y-11237500I-150000J0D01*
G01*
G37*
G36*
G01*
X-34212500Y-11237500D02*
X-34512500Y-11237500D01*
G75*
G02*
X-34662500Y-11087500I0J150000D01*
G01*
X-34662500Y-10062500D01*
G75*
G02*
X-34512500Y-9912500I150000J0D01*
G01*
X-34212500Y-9912500D01*
G75*
G02*
X-34062500Y-10062500I0J-150000D01*
G01*
X-34062500Y-11087500D01*
G75*
G02*
X-34212500Y-11237500I-150000J0D01*
G01*
G37*
G04 #@! TD*
G04 #@! TO.C,R23*
G36*
G01*
X-10415000Y7345000D02*
X-10785000Y7345000D01*
G75*
G02*
X-10920000Y7480000I0J135000D01*
G01*
X-10920000Y7750000D01*
G75*
G02*
X-10785000Y7885000I135000J0D01*
G01*
X-10415000Y7885000D01*
G75*
G02*
X-10280000Y7750000I0J-135000D01*
G01*
X-10280000Y7480000D01*
G75*
G02*
X-10415000Y7345000I-135000J0D01*
G01*
G37*
G36*
G01*
X-10415000Y8365000D02*
X-10785000Y8365000D01*
G75*
G02*
X-10920000Y8500000I0J135000D01*
G01*
X-10920000Y8770000D01*
G75*
G02*
X-10785000Y8905000I135000J0D01*
G01*
X-10415000Y8905000D01*
G75*
G02*
X-10280000Y8770000I0J-135000D01*
G01*
X-10280000Y8500000D01*
G75*
G02*
X-10415000Y8365000I-135000J0D01*
G01*
G37*
G04 #@! TD*
G04 #@! TO.C,R22*
G36*
G01*
X-9040000Y3385000D02*
X-9040000Y3015000D01*
G75*
G02*
X-9175000Y2880000I-135000J0D01*
G01*
X-9445000Y2880000D01*
G75*
G02*
X-9580000Y3015000I0J135000D01*
G01*
X-9580000Y3385000D01*
G75*
G02*
X-9445000Y3520000I135000J0D01*
G01*
X-9175000Y3520000D01*
G75*
G02*
X-9040000Y3385000I0J-135000D01*
G01*
G37*
G36*
G01*
X-8020000Y3385000D02*
X-8020000Y3015000D01*
G75*
G02*
X-8155000Y2880000I-135000J0D01*
G01*
X-8425000Y2880000D01*
G75*
G02*
X-8560000Y3015000I0J135000D01*
G01*
X-8560000Y3385000D01*
G75*
G02*
X-8425000Y3520000I135000J0D01*
G01*
X-8155000Y3520000D01*
G75*
G02*
X-8020000Y3385000I0J-135000D01*
G01*
G37*
G04 #@! TD*
G04 #@! TO.C,R21*
G36*
G01*
X-8020000Y2285000D02*
X-8020000Y1915000D01*
G75*
G02*
X-8155000Y1780000I-135000J0D01*
G01*
X-8425000Y1780000D01*
G75*
G02*
X-8560000Y1915000I0J135000D01*
G01*
X-8560000Y2285000D01*
G75*
G02*
X-8425000Y2420000I135000J0D01*
G01*
X-8155000Y2420000D01*
G75*
G02*
X-8020000Y2285000I0J-135000D01*
G01*
G37*
G36*
G01*
X-9040000Y2285000D02*
X-9040000Y1915000D01*
G75*
G02*
X-9175000Y1780000I-135000J0D01*
G01*
X-9445000Y1780000D01*
G75*
G02*
X-9580000Y1915000I0J135000D01*
G01*
X-9580000Y2285000D01*
G75*
G02*
X-9445000Y2420000I135000J0D01*
G01*
X-9175000Y2420000D01*
G75*
G02*
X-9040000Y2285000I0J-135000D01*
G01*
G37*
G04 #@! TD*
G04 #@! TO.C,R20*
G36*
G01*
X-8020000Y1185000D02*
X-8020000Y815000D01*
G75*
G02*
X-8155000Y680000I-135000J0D01*
G01*
X-8425000Y680000D01*
G75*
G02*
X-8560000Y815000I0J135000D01*
G01*
X-8560000Y1185000D01*
G75*
G02*
X-8425000Y1320000I135000J0D01*
G01*
X-8155000Y1320000D01*
G75*
G02*
X-8020000Y1185000I0J-135000D01*
G01*
G37*
G36*
G01*
X-9040000Y1185000D02*
X-9040000Y815000D01*
G75*
G02*
X-9175000Y680000I-135000J0D01*
G01*
X-9445000Y680000D01*
G75*
G02*
X-9580000Y815000I0J135000D01*
G01*
X-9580000Y1185000D01*
G75*
G02*
X-9445000Y1320000I135000J0D01*
G01*
X-9175000Y1320000D01*
G75*
G02*
X-9040000Y1185000I0J-135000D01*
G01*
G37*
G04 #@! TD*
G04 #@! TO.C,R19*
G36*
G01*
X-8020000Y85000D02*
X-8020000Y-285000D01*
G75*
G02*
X-8155000Y-420000I-135000J0D01*
G01*
X-8425000Y-420000D01*
G75*
G02*
X-8560000Y-285000I0J135000D01*
G01*
X-8560000Y85000D01*
G75*
G02*
X-8425000Y220000I135000J0D01*
G01*
X-8155000Y220000D01*
G75*
G02*
X-8020000Y85000I0J-135000D01*
G01*
G37*
G36*
G01*
X-9040000Y85000D02*
X-9040000Y-285000D01*
G75*
G02*
X-9175000Y-420000I-135000J0D01*
G01*
X-9445000Y-420000D01*
G75*
G02*
X-9580000Y-285000I0J135000D01*
G01*
X-9580000Y85000D01*
G75*
G02*
X-9445000Y220000I135000J0D01*
G01*
X-9175000Y220000D01*
G75*
G02*
X-9040000Y85000I0J-135000D01*
G01*
G37*
G04 #@! TD*
G04 #@! TO.C,R18*
G36*
G01*
X-9040000Y-1015000D02*
X-9040000Y-1385000D01*
G75*
G02*
X-9175000Y-1520000I-135000J0D01*
G01*
X-9445000Y-1520000D01*
G75*
G02*
X-9580000Y-1385000I0J135000D01*
G01*
X-9580000Y-1015000D01*
G75*
G02*
X-9445000Y-880000I135000J0D01*
G01*
X-9175000Y-880000D01*
G75*
G02*
X-9040000Y-1015000I0J-135000D01*
G01*
G37*
G36*
G01*
X-8020000Y-1015000D02*
X-8020000Y-1385000D01*
G75*
G02*
X-8155000Y-1520000I-135000J0D01*
G01*
X-8425000Y-1520000D01*
G75*
G02*
X-8560000Y-1385000I0J135000D01*
G01*
X-8560000Y-1015000D01*
G75*
G02*
X-8425000Y-880000I135000J0D01*
G01*
X-8155000Y-880000D01*
G75*
G02*
X-8020000Y-1015000I0J-135000D01*
G01*
G37*
G04 #@! TD*
G04 #@! TO.C,R17*
G36*
G01*
X-8020000Y-2115000D02*
X-8020000Y-2485000D01*
G75*
G02*
X-8155000Y-2620000I-135000J0D01*
G01*
X-8425000Y-2620000D01*
G75*
G02*
X-8560000Y-2485000I0J135000D01*
G01*
X-8560000Y-2115000D01*
G75*
G02*
X-8425000Y-1980000I135000J0D01*
G01*
X-8155000Y-1980000D01*
G75*
G02*
X-8020000Y-2115000I0J-135000D01*
G01*
G37*
G36*
G01*
X-9040000Y-2115000D02*
X-9040000Y-2485000D01*
G75*
G02*
X-9175000Y-2620000I-135000J0D01*
G01*
X-9445000Y-2620000D01*
G75*
G02*
X-9580000Y-2485000I0J135000D01*
G01*
X-9580000Y-2115000D01*
G75*
G02*
X-9445000Y-1980000I135000J0D01*
G01*
X-9175000Y-1980000D01*
G75*
G02*
X-9040000Y-2115000I0J-135000D01*
G01*
G37*
G04 #@! TD*
G04 #@! TO.C,R16*
G36*
G01*
X-32085000Y12180000D02*
X-31715000Y12180000D01*
G75*
G02*
X-31580000Y12045000I0J-135000D01*
G01*
X-31580000Y11775000D01*
G75*
G02*
X-31715000Y11640000I-135000J0D01*
G01*
X-32085000Y11640000D01*
G75*
G02*
X-32220000Y11775000I0J135000D01*
G01*
X-32220000Y12045000D01*
G75*
G02*
X-32085000Y12180000I135000J0D01*
G01*
G37*
G36*
G01*
X-32085000Y11160000D02*
X-31715000Y11160000D01*
G75*
G02*
X-31580000Y11025000I0J-135000D01*
G01*
X-31580000Y10755000D01*
G75*
G02*
X-31715000Y10620000I-135000J0D01*
G01*
X-32085000Y10620000D01*
G75*
G02*
X-32220000Y10755000I0J135000D01*
G01*
X-32220000Y11025000D01*
G75*
G02*
X-32085000Y11160000I135000J0D01*
G01*
G37*
G04 #@! TD*
G04 #@! TO.C,R15*
G36*
G01*
X-22967500Y19780000D02*
X-22597500Y19780000D01*
G75*
G02*
X-22462500Y19645000I0J-135000D01*
G01*
X-22462500Y19375000D01*
G75*
G02*
X-22597500Y19240000I-135000J0D01*
G01*
X-22967500Y19240000D01*
G75*
G02*
X-23102500Y19375000I0J135000D01*
G01*
X-23102500Y19645000D01*
G75*
G02*
X-22967500Y19780000I135000J0D01*
G01*
G37*
G36*
G01*
X-22967500Y18760000D02*
X-22597500Y18760000D01*
G75*
G02*
X-22462500Y18625000I0J-135000D01*
G01*
X-22462500Y18355000D01*
G75*
G02*
X-22597500Y18220000I-135000J0D01*
G01*
X-22967500Y18220000D01*
G75*
G02*
X-23102500Y18355000I0J135000D01*
G01*
X-23102500Y18625000D01*
G75*
G02*
X-22967500Y18760000I135000J0D01*
G01*
G37*
G04 #@! TD*
G04 #@! TO.C,R14*
G36*
G01*
X-25485000Y19780000D02*
X-25115000Y19780000D01*
G75*
G02*
X-24980000Y19645000I0J-135000D01*
G01*
X-24980000Y19375000D01*
G75*
G02*
X-25115000Y19240000I-135000J0D01*
G01*
X-25485000Y19240000D01*
G75*
G02*
X-25620000Y19375000I0J135000D01*
G01*
X-25620000Y19645000D01*
G75*
G02*
X-25485000Y19780000I135000J0D01*
G01*
G37*
G36*
G01*
X-25485000Y18760000D02*
X-25115000Y18760000D01*
G75*
G02*
X-24980000Y18625000I0J-135000D01*
G01*
X-24980000Y18355000D01*
G75*
G02*
X-25115000Y18220000I-135000J0D01*
G01*
X-25485000Y18220000D01*
G75*
G02*
X-25620000Y18355000I0J135000D01*
G01*
X-25620000Y18625000D01*
G75*
G02*
X-25485000Y18760000I135000J0D01*
G01*
G37*
G04 #@! TD*
G04 #@! TO.C,R13*
G36*
G01*
X-27992500Y19780000D02*
X-27622500Y19780000D01*
G75*
G02*
X-27487500Y19645000I0J-135000D01*
G01*
X-27487500Y19375000D01*
G75*
G02*
X-27622500Y19240000I-135000J0D01*
G01*
X-27992500Y19240000D01*
G75*
G02*
X-28127500Y19375000I0J135000D01*
G01*
X-28127500Y19645000D01*
G75*
G02*
X-27992500Y19780000I135000J0D01*
G01*
G37*
G36*
G01*
X-27992500Y18760000D02*
X-27622500Y18760000D01*
G75*
G02*
X-27487500Y18625000I0J-135000D01*
G01*
X-27487500Y18355000D01*
G75*
G02*
X-27622500Y18220000I-135000J0D01*
G01*
X-27992500Y18220000D01*
G75*
G02*
X-28127500Y18355000I0J135000D01*
G01*
X-28127500Y18625000D01*
G75*
G02*
X-27992500Y18760000I135000J0D01*
G01*
G37*
G04 #@! TD*
G04 #@! TO.C,R12*
G36*
G01*
X-30597500Y19780000D02*
X-30227500Y19780000D01*
G75*
G02*
X-30092500Y19645000I0J-135000D01*
G01*
X-30092500Y19375000D01*
G75*
G02*
X-30227500Y19240000I-135000J0D01*
G01*
X-30597500Y19240000D01*
G75*
G02*
X-30732500Y19375000I0J135000D01*
G01*
X-30732500Y19645000D01*
G75*
G02*
X-30597500Y19780000I135000J0D01*
G01*
G37*
G36*
G01*
X-30597500Y18760000D02*
X-30227500Y18760000D01*
G75*
G02*
X-30092500Y18625000I0J-135000D01*
G01*
X-30092500Y18355000D01*
G75*
G02*
X-30227500Y18220000I-135000J0D01*
G01*
X-30597500Y18220000D01*
G75*
G02*
X-30732500Y18355000I0J135000D01*
G01*
X-30732500Y18625000D01*
G75*
G02*
X-30597500Y18760000I135000J0D01*
G01*
G37*
G04 #@! TD*
G04 #@! TO.C,R11*
G36*
G01*
X-37142500Y-11785000D02*
X-37142500Y-11415000D01*
G75*
G02*
X-37007500Y-11280000I135000J0D01*
G01*
X-36737500Y-11280000D01*
G75*
G02*
X-36602500Y-11415000I0J-135000D01*
G01*
X-36602500Y-11785000D01*
G75*
G02*
X-36737500Y-11920000I-135000J0D01*
G01*
X-37007500Y-11920000D01*
G75*
G02*
X-37142500Y-11785000I0J135000D01*
G01*
G37*
G36*
G01*
X-36122500Y-11785000D02*
X-36122500Y-11415000D01*
G75*
G02*
X-35987500Y-11280000I135000J0D01*
G01*
X-35717500Y-11280000D01*
G75*
G02*
X-35582500Y-11415000I0J-135000D01*
G01*
X-35582500Y-11785000D01*
G75*
G02*
X-35717500Y-11920000I-135000J0D01*
G01*
X-35987500Y-11920000D01*
G75*
G02*
X-36122500Y-11785000I0J135000D01*
G01*
G37*
G04 #@! TD*
G04 #@! TO.C,R10*
G36*
G01*
X-37142500Y-9795000D02*
X-37142500Y-9425000D01*
G75*
G02*
X-37007500Y-9290000I135000J0D01*
G01*
X-36737500Y-9290000D01*
G75*
G02*
X-36602500Y-9425000I0J-135000D01*
G01*
X-36602500Y-9795000D01*
G75*
G02*
X-36737500Y-9930000I-135000J0D01*
G01*
X-37007500Y-9930000D01*
G75*
G02*
X-37142500Y-9795000I0J135000D01*
G01*
G37*
G36*
G01*
X-36122500Y-9795000D02*
X-36122500Y-9425000D01*
G75*
G02*
X-35987500Y-9290000I135000J0D01*
G01*
X-35717500Y-9290000D01*
G75*
G02*
X-35582500Y-9425000I0J-135000D01*
G01*
X-35582500Y-9795000D01*
G75*
G02*
X-35717500Y-9930000I-135000J0D01*
G01*
X-35987500Y-9930000D01*
G75*
G02*
X-36122500Y-9795000I0J135000D01*
G01*
G37*
G04 #@! TD*
G04 #@! TO.C,R9*
G36*
G01*
X-28780000Y915000D02*
X-28780000Y1285000D01*
G75*
G02*
X-28645000Y1420000I135000J0D01*
G01*
X-28375000Y1420000D01*
G75*
G02*
X-28240000Y1285000I0J-135000D01*
G01*
X-28240000Y915000D01*
G75*
G02*
X-28375000Y780000I-135000J0D01*
G01*
X-28645000Y780000D01*
G75*
G02*
X-28780000Y915000I0J135000D01*
G01*
G37*
G36*
G01*
X-27760000Y915000D02*
X-27760000Y1285000D01*
G75*
G02*
X-27625000Y1420000I135000J0D01*
G01*
X-27355000Y1420000D01*
G75*
G02*
X-27220000Y1285000I0J-135000D01*
G01*
X-27220000Y915000D01*
G75*
G02*
X-27355000Y780000I-135000J0D01*
G01*
X-27625000Y780000D01*
G75*
G02*
X-27760000Y915000I0J135000D01*
G01*
G37*
G04 #@! TD*
G04 #@! TO.C,R8*
G36*
G01*
X-28780000Y-2985000D02*
X-28780000Y-2615000D01*
G75*
G02*
X-28645000Y-2480000I135000J0D01*
G01*
X-28375000Y-2480000D01*
G75*
G02*
X-28240000Y-2615000I0J-135000D01*
G01*
X-28240000Y-2985000D01*
G75*
G02*
X-28375000Y-3120000I-135000J0D01*
G01*
X-28645000Y-3120000D01*
G75*
G02*
X-28780000Y-2985000I0J135000D01*
G01*
G37*
G36*
G01*
X-27760000Y-2985000D02*
X-27760000Y-2615000D01*
G75*
G02*
X-27625000Y-2480000I135000J0D01*
G01*
X-27355000Y-2480000D01*
G75*
G02*
X-27220000Y-2615000I0J-135000D01*
G01*
X-27220000Y-2985000D01*
G75*
G02*
X-27355000Y-3120000I-135000J0D01*
G01*
X-27625000Y-3120000D01*
G75*
G02*
X-27760000Y-2985000I0J135000D01*
G01*
G37*
G04 #@! TD*
G04 #@! TO.C,R5*
G36*
G01*
X-12760000Y12080000D02*
X-12390000Y12080000D01*
G75*
G02*
X-12255000Y11945000I0J-135000D01*
G01*
X-12255000Y11675000D01*
G75*
G02*
X-12390000Y11540000I-135000J0D01*
G01*
X-12760000Y11540000D01*
G75*
G02*
X-12895000Y11675000I0J135000D01*
G01*
X-12895000Y11945000D01*
G75*
G02*
X-12760000Y12080000I135000J0D01*
G01*
G37*
G36*
G01*
X-12760000Y11060000D02*
X-12390000Y11060000D01*
G75*
G02*
X-12255000Y10925000I0J-135000D01*
G01*
X-12255000Y10655000D01*
G75*
G02*
X-12390000Y10520000I-135000J0D01*
G01*
X-12760000Y10520000D01*
G75*
G02*
X-12895000Y10655000I0J135000D01*
G01*
X-12895000Y10925000D01*
G75*
G02*
X-12760000Y11060000I135000J0D01*
G01*
G37*
G04 #@! TD*
G04 #@! TO.C,R4*
G36*
G01*
X-11685000Y12080000D02*
X-11315000Y12080000D01*
G75*
G02*
X-11180000Y11945000I0J-135000D01*
G01*
X-11180000Y11675000D01*
G75*
G02*
X-11315000Y11540000I-135000J0D01*
G01*
X-11685000Y11540000D01*
G75*
G02*
X-11820000Y11675000I0J135000D01*
G01*
X-11820000Y11945000D01*
G75*
G02*
X-11685000Y12080000I135000J0D01*
G01*
G37*
G36*
G01*
X-11685000Y11060000D02*
X-11315000Y11060000D01*
G75*
G02*
X-11180000Y10925000I0J-135000D01*
G01*
X-11180000Y10655000D01*
G75*
G02*
X-11315000Y10520000I-135000J0D01*
G01*
X-11685000Y10520000D01*
G75*
G02*
X-11820000Y10655000I0J135000D01*
G01*
X-11820000Y10925000D01*
G75*
G02*
X-11685000Y11060000I135000J0D01*
G01*
G37*
G04 #@! TD*
D18*
G04 #@! TO.C,L1*
X-28700000Y-12823500D03*
X-28700000Y-17676500D03*
G04 #@! TD*
G04 #@! TO.C,J4*
G36*
G01*
X-9200000Y16325000D02*
X-9200000Y15075000D01*
G75*
G02*
X-9350000Y14925000I-150000J0D01*
G01*
X-9650000Y14925000D01*
G75*
G02*
X-9800000Y15075000I0J150000D01*
G01*
X-9800000Y16325000D01*
G75*
G02*
X-9650000Y16475000I150000J0D01*
G01*
X-9350000Y16475000D01*
G75*
G02*
X-9200000Y16325000I0J-150000D01*
G01*
G37*
G36*
G01*
X-10200000Y16325000D02*
X-10200000Y15075000D01*
G75*
G02*
X-10350000Y14925000I-150000J0D01*
G01*
X-10650000Y14925000D01*
G75*
G02*
X-10800000Y15075000I0J150000D01*
G01*
X-10800000Y16325000D01*
G75*
G02*
X-10650000Y16475000I150000J0D01*
G01*
X-10350000Y16475000D01*
G75*
G02*
X-10200000Y16325000I0J-150000D01*
G01*
G37*
G36*
G01*
X-11200000Y16325000D02*
X-11200000Y15075000D01*
G75*
G02*
X-11350000Y14925000I-150000J0D01*
G01*
X-11650000Y14925000D01*
G75*
G02*
X-11800000Y15075000I0J150000D01*
G01*
X-11800000Y16325000D01*
G75*
G02*
X-11650000Y16475000I150000J0D01*
G01*
X-11350000Y16475000D01*
G75*
G02*
X-11200000Y16325000I0J-150000D01*
G01*
G37*
G36*
G01*
X-7600000Y20225000D02*
X-7600000Y18925000D01*
G75*
G02*
X-7850000Y18675000I-250000J0D01*
G01*
X-8550000Y18675000D01*
G75*
G02*
X-8800000Y18925000I0J250000D01*
G01*
X-8800000Y20225000D01*
G75*
G02*
X-8550000Y20475000I250000J0D01*
G01*
X-7850000Y20475000D01*
G75*
G02*
X-7600000Y20225000I0J-250000D01*
G01*
G37*
G36*
G01*
X-12200000Y20225000D02*
X-12200000Y18925000D01*
G75*
G02*
X-12450000Y18675000I-250000J0D01*
G01*
X-13150000Y18675000D01*
G75*
G02*
X-13400000Y18925000I0J250000D01*
G01*
X-13400000Y20225000D01*
G75*
G02*
X-13150000Y20475000I250000J0D01*
G01*
X-12450000Y20475000D01*
G75*
G02*
X-12200000Y20225000I0J-250000D01*
G01*
G37*
G04 #@! TD*
G04 #@! TO.C,J3*
G36*
G01*
X-16300000Y16325000D02*
X-16300000Y15075000D01*
G75*
G02*
X-16450000Y14925000I-150000J0D01*
G01*
X-16750000Y14925000D01*
G75*
G02*
X-16900000Y15075000I0J150000D01*
G01*
X-16900000Y16325000D01*
G75*
G02*
X-16750000Y16475000I150000J0D01*
G01*
X-16450000Y16475000D01*
G75*
G02*
X-16300000Y16325000I0J-150000D01*
G01*
G37*
G36*
G01*
X-17300000Y16325000D02*
X-17300000Y15075000D01*
G75*
G02*
X-17450000Y14925000I-150000J0D01*
G01*
X-17750000Y14925000D01*
G75*
G02*
X-17900000Y15075000I0J150000D01*
G01*
X-17900000Y16325000D01*
G75*
G02*
X-17750000Y16475000I150000J0D01*
G01*
X-17450000Y16475000D01*
G75*
G02*
X-17300000Y16325000I0J-150000D01*
G01*
G37*
G36*
G01*
X-18300000Y16325000D02*
X-18300000Y15075000D01*
G75*
G02*
X-18450000Y14925000I-150000J0D01*
G01*
X-18750000Y14925000D01*
G75*
G02*
X-18900000Y15075000I0J150000D01*
G01*
X-18900000Y16325000D01*
G75*
G02*
X-18750000Y16475000I150000J0D01*
G01*
X-18450000Y16475000D01*
G75*
G02*
X-18300000Y16325000I0J-150000D01*
G01*
G37*
G36*
G01*
X-14700000Y20225000D02*
X-14700000Y18925000D01*
G75*
G02*
X-14950000Y18675000I-250000J0D01*
G01*
X-15650000Y18675000D01*
G75*
G02*
X-15900000Y18925000I0J250000D01*
G01*
X-15900000Y20225000D01*
G75*
G02*
X-15650000Y20475000I250000J0D01*
G01*
X-14950000Y20475000D01*
G75*
G02*
X-14700000Y20225000I0J-250000D01*
G01*
G37*
G36*
G01*
X-19300000Y20225000D02*
X-19300000Y18925000D01*
G75*
G02*
X-19550000Y18675000I-250000J0D01*
G01*
X-20250000Y18675000D01*
G75*
G02*
X-20500000Y18925000I0J250000D01*
G01*
X-20500000Y20225000D01*
G75*
G02*
X-20250000Y20475000I250000J0D01*
G01*
X-19550000Y20475000D01*
G75*
G02*
X-19300000Y20225000I0J-250000D01*
G01*
G37*
G04 #@! TD*
D19*
G04 #@! TO.C,J2*
X-32300000Y2527500D03*
X-32300000Y-3252500D03*
D20*
X-31235000Y2987500D03*
X-31235000Y2187500D03*
X-31235000Y887500D03*
X-31235000Y-112500D03*
X-31235000Y-612500D03*
X-31235000Y-1612500D03*
X-31235000Y-2912500D03*
X-31235000Y-3712500D03*
X-31235000Y-3412500D03*
X-31235000Y-2612500D03*
X-31235000Y-2112500D03*
X-31235000Y-1112500D03*
X-31235000Y387500D03*
X-31235000Y1387500D03*
X-31235000Y1887500D03*
X-31235000Y2687500D03*
D21*
X-31800000Y3957500D03*
D22*
X-35980000Y3957500D03*
D21*
X-31800000Y-4682500D03*
D22*
X-35980000Y-4682500D03*
G04 #@! TD*
G04 #@! TO.C,U4*
G36*
G01*
X-7500000Y9300000D02*
X-7200000Y9300000D01*
G75*
G02*
X-7050000Y9150000I0J-150000D01*
G01*
X-7050000Y8125000D01*
G75*
G02*
X-7200000Y7975000I-150000J0D01*
G01*
X-7500000Y7975000D01*
G75*
G02*
X-7650000Y8125000I0J150000D01*
G01*
X-7650000Y9150000D01*
G75*
G02*
X-7500000Y9300000I150000J0D01*
G01*
G37*
G36*
G01*
X-8450000Y9300000D02*
X-8150000Y9300000D01*
G75*
G02*
X-8000000Y9150000I0J-150000D01*
G01*
X-8000000Y8125000D01*
G75*
G02*
X-8150000Y7975000I-150000J0D01*
G01*
X-8450000Y7975000D01*
G75*
G02*
X-8600000Y8125000I0J150000D01*
G01*
X-8600000Y9150000D01*
G75*
G02*
X-8450000Y9300000I150000J0D01*
G01*
G37*
G36*
G01*
X-9400000Y9300000D02*
X-9100000Y9300000D01*
G75*
G02*
X-8950000Y9150000I0J-150000D01*
G01*
X-8950000Y8125000D01*
G75*
G02*
X-9100000Y7975000I-150000J0D01*
G01*
X-9400000Y7975000D01*
G75*
G02*
X-9550000Y8125000I0J150000D01*
G01*
X-9550000Y9150000D01*
G75*
G02*
X-9400000Y9300000I150000J0D01*
G01*
G37*
G36*
G01*
X-9400000Y7025000D02*
X-9100000Y7025000D01*
G75*
G02*
X-8950000Y6875000I0J-150000D01*
G01*
X-8950000Y5850000D01*
G75*
G02*
X-9100000Y5700000I-150000J0D01*
G01*
X-9400000Y5700000D01*
G75*
G02*
X-9550000Y5850000I0J150000D01*
G01*
X-9550000Y6875000D01*
G75*
G02*
X-9400000Y7025000I150000J0D01*
G01*
G37*
G36*
G01*
X-8450000Y7025000D02*
X-8150000Y7025000D01*
G75*
G02*
X-8000000Y6875000I0J-150000D01*
G01*
X-8000000Y5850000D01*
G75*
G02*
X-8150000Y5700000I-150000J0D01*
G01*
X-8450000Y5700000D01*
G75*
G02*
X-8600000Y5850000I0J150000D01*
G01*
X-8600000Y6875000D01*
G75*
G02*
X-8450000Y7025000I150000J0D01*
G01*
G37*
G36*
G01*
X-7500000Y7025000D02*
X-7200000Y7025000D01*
G75*
G02*
X-7050000Y6875000I0J-150000D01*
G01*
X-7050000Y5850000D01*
G75*
G02*
X-7200000Y5700000I-150000J0D01*
G01*
X-7500000Y5700000D01*
G75*
G02*
X-7650000Y5850000I0J150000D01*
G01*
X-7650000Y6875000D01*
G75*
G02*
X-7500000Y7025000I150000J0D01*
G01*
G37*
G04 #@! TD*
G04 #@! TO.C,D4*
G36*
G01*
X-22543750Y15212500D02*
X-23056250Y15212500D01*
G75*
G02*
X-23275000Y15431250I0J218750D01*
G01*
X-23275000Y15868750D01*
G75*
G02*
X-23056250Y16087500I218750J0D01*
G01*
X-22543750Y16087500D01*
G75*
G02*
X-22325000Y15868750I0J-218750D01*
G01*
X-22325000Y15431250D01*
G75*
G02*
X-22543750Y15212500I-218750J0D01*
G01*
G37*
G36*
G01*
X-22543750Y16787500D02*
X-23056250Y16787500D01*
G75*
G02*
X-23275000Y17006250I0J218750D01*
G01*
X-23275000Y17443750D01*
G75*
G02*
X-23056250Y17662500I218750J0D01*
G01*
X-22543750Y17662500D01*
G75*
G02*
X-22325000Y17443750I0J-218750D01*
G01*
X-22325000Y17006250D01*
G75*
G02*
X-22543750Y16787500I-218750J0D01*
G01*
G37*
G04 #@! TD*
G04 #@! TO.C,D3*
G36*
G01*
X-25043750Y15175000D02*
X-25556250Y15175000D01*
G75*
G02*
X-25775000Y15393750I0J218750D01*
G01*
X-25775000Y15831250D01*
G75*
G02*
X-25556250Y16050000I218750J0D01*
G01*
X-25043750Y16050000D01*
G75*
G02*
X-24825000Y15831250I0J-218750D01*
G01*
X-24825000Y15393750D01*
G75*
G02*
X-25043750Y15175000I-218750J0D01*
G01*
G37*
G36*
G01*
X-25043750Y16750000D02*
X-25556250Y16750000D01*
G75*
G02*
X-25775000Y16968750I0J218750D01*
G01*
X-25775000Y17406250D01*
G75*
G02*
X-25556250Y17625000I218750J0D01*
G01*
X-25043750Y17625000D01*
G75*
G02*
X-24825000Y17406250I0J-218750D01*
G01*
X-24825000Y16968750D01*
G75*
G02*
X-25043750Y16750000I-218750J0D01*
G01*
G37*
G04 #@! TD*
G04 #@! TO.C,D2*
G36*
G01*
X-27543750Y15175000D02*
X-28056250Y15175000D01*
G75*
G02*
X-28275000Y15393750I0J218750D01*
G01*
X-28275000Y15831250D01*
G75*
G02*
X-28056250Y16050000I218750J0D01*
G01*
X-27543750Y16050000D01*
G75*
G02*
X-27325000Y15831250I0J-218750D01*
G01*
X-27325000Y15393750D01*
G75*
G02*
X-27543750Y15175000I-218750J0D01*
G01*
G37*
G36*
G01*
X-27543750Y16750000D02*
X-28056250Y16750000D01*
G75*
G02*
X-28275000Y16968750I0J218750D01*
G01*
X-28275000Y17406250D01*
G75*
G02*
X-28056250Y17625000I218750J0D01*
G01*
X-27543750Y17625000D01*
G75*
G02*
X-27325000Y17406250I0J-218750D01*
G01*
X-27325000Y16968750D01*
G75*
G02*
X-27543750Y16750000I-218750J0D01*
G01*
G37*
G04 #@! TD*
G04 #@! TO.C,D1*
G36*
G01*
X-30151250Y15175000D02*
X-30663750Y15175000D01*
G75*
G02*
X-30882500Y15393750I0J218750D01*
G01*
X-30882500Y15831250D01*
G75*
G02*
X-30663750Y16050000I218750J0D01*
G01*
X-30151250Y16050000D01*
G75*
G02*
X-29932500Y15831250I0J-218750D01*
G01*
X-29932500Y15393750D01*
G75*
G02*
X-30151250Y15175000I-218750J0D01*
G01*
G37*
G36*
G01*
X-30151250Y16750000D02*
X-30663750Y16750000D01*
G75*
G02*
X-30882500Y16968750I0J218750D01*
G01*
X-30882500Y17406250D01*
G75*
G02*
X-30663750Y17625000I218750J0D01*
G01*
X-30151250Y17625000D01*
G75*
G02*
X-29932500Y17406250I0J-218750D01*
G01*
X-29932500Y16968750D01*
G75*
G02*
X-30151250Y16750000I-218750J0D01*
G01*
G37*
G04 #@! TD*
G04 #@! TO.C,C18*
G36*
G01*
X-9560000Y4830000D02*
X-9560000Y5170000D01*
G75*
G02*
X-9420000Y5310000I140000J0D01*
G01*
X-9140000Y5310000D01*
G75*
G02*
X-9000000Y5170000I0J-140000D01*
G01*
X-9000000Y4830000D01*
G75*
G02*
X-9140000Y4690000I-140000J0D01*
G01*
X-9420000Y4690000D01*
G75*
G02*
X-9560000Y4830000I0J140000D01*
G01*
G37*
G36*
G01*
X-8600000Y4830000D02*
X-8600000Y5170000D01*
G75*
G02*
X-8460000Y5310000I140000J0D01*
G01*
X-8180000Y5310000D01*
G75*
G02*
X-8040000Y5170000I0J-140000D01*
G01*
X-8040000Y4830000D01*
G75*
G02*
X-8180000Y4690000I-140000J0D01*
G01*
X-8460000Y4690000D01*
G75*
G02*
X-8600000Y4830000I0J140000D01*
G01*
G37*
G04 #@! TD*
G04 #@! TO.C,C17*
G36*
G01*
X-32225000Y-17950000D02*
X-33175000Y-17950000D01*
G75*
G02*
X-33425000Y-17700000I0J250000D01*
G01*
X-33425000Y-17200000D01*
G75*
G02*
X-33175000Y-16950000I250000J0D01*
G01*
X-32225000Y-16950000D01*
G75*
G02*
X-31975000Y-17200000I0J-250000D01*
G01*
X-31975000Y-17700000D01*
G75*
G02*
X-32225000Y-17950000I-250000J0D01*
G01*
G37*
G36*
G01*
X-32225000Y-16050000D02*
X-33175000Y-16050000D01*
G75*
G02*
X-33425000Y-15800000I0J250000D01*
G01*
X-33425000Y-15300000D01*
G75*
G02*
X-33175000Y-15050000I250000J0D01*
G01*
X-32225000Y-15050000D01*
G75*
G02*
X-31975000Y-15300000I0J-250000D01*
G01*
X-31975000Y-15800000D01*
G75*
G02*
X-32225000Y-16050000I-250000J0D01*
G01*
G37*
G04 #@! TD*
G04 #@! TO.C,C16*
G36*
G01*
X-37122500Y-10770000D02*
X-37122500Y-10430000D01*
G75*
G02*
X-36982500Y-10290000I140000J0D01*
G01*
X-36702500Y-10290000D01*
G75*
G02*
X-36562500Y-10430000I0J-140000D01*
G01*
X-36562500Y-10770000D01*
G75*
G02*
X-36702500Y-10910000I-140000J0D01*
G01*
X-36982500Y-10910000D01*
G75*
G02*
X-37122500Y-10770000I0J140000D01*
G01*
G37*
G36*
G01*
X-36162500Y-10770000D02*
X-36162500Y-10430000D01*
G75*
G02*
X-36022500Y-10290000I140000J0D01*
G01*
X-35742500Y-10290000D01*
G75*
G02*
X-35602500Y-10430000I0J-140000D01*
G01*
X-35602500Y-10770000D01*
G75*
G02*
X-35742500Y-10910000I-140000J0D01*
G01*
X-36022500Y-10910000D01*
G75*
G02*
X-36162500Y-10770000I0J140000D01*
G01*
G37*
G04 #@! TD*
G04 #@! TO.C,C15*
G36*
G01*
X-34487500Y-9050000D02*
X-34487500Y-8550000D01*
G75*
G02*
X-34262500Y-8325000I225000J0D01*
G01*
X-33812500Y-8325000D01*
G75*
G02*
X-33587500Y-8550000I0J-225000D01*
G01*
X-33587500Y-9050000D01*
G75*
G02*
X-33812500Y-9275000I-225000J0D01*
G01*
X-34262500Y-9275000D01*
G75*
G02*
X-34487500Y-9050000I0J225000D01*
G01*
G37*
G36*
G01*
X-32937500Y-9050000D02*
X-32937500Y-8550000D01*
G75*
G02*
X-32712500Y-8325000I225000J0D01*
G01*
X-32262500Y-8325000D01*
G75*
G02*
X-32037500Y-8550000I0J-225000D01*
G01*
X-32037500Y-9050000D01*
G75*
G02*
X-32262500Y-9275000I-225000J0D01*
G01*
X-32712500Y-9275000D01*
G75*
G02*
X-32937500Y-9050000I0J225000D01*
G01*
G37*
G04 #@! TD*
G04 #@! TO.C,C14*
G36*
G01*
X-14260000Y-1870000D02*
X-14260000Y-1530000D01*
G75*
G02*
X-14120000Y-1390000I140000J0D01*
G01*
X-13840000Y-1390000D01*
G75*
G02*
X-13700000Y-1530000I0J-140000D01*
G01*
X-13700000Y-1870000D01*
G75*
G02*
X-13840000Y-2010000I-140000J0D01*
G01*
X-14120000Y-2010000D01*
G75*
G02*
X-14260000Y-1870000I0J140000D01*
G01*
G37*
G36*
G01*
X-13300000Y-1870000D02*
X-13300000Y-1530000D01*
G75*
G02*
X-13160000Y-1390000I140000J0D01*
G01*
X-12880000Y-1390000D01*
G75*
G02*
X-12740000Y-1530000I0J-140000D01*
G01*
X-12740000Y-1870000D01*
G75*
G02*
X-12880000Y-2010000I-140000J0D01*
G01*
X-13160000Y-2010000D01*
G75*
G02*
X-13300000Y-1870000I0J140000D01*
G01*
G37*
G04 #@! TD*
G04 #@! TO.C,C13*
G36*
G01*
X-14260000Y2130000D02*
X-14260000Y2470000D01*
G75*
G02*
X-14120000Y2610000I140000J0D01*
G01*
X-13840000Y2610000D01*
G75*
G02*
X-13700000Y2470000I0J-140000D01*
G01*
X-13700000Y2130000D01*
G75*
G02*
X-13840000Y1990000I-140000J0D01*
G01*
X-14120000Y1990000D01*
G75*
G02*
X-14260000Y2130000I0J140000D01*
G01*
G37*
G36*
G01*
X-13300000Y2130000D02*
X-13300000Y2470000D01*
G75*
G02*
X-13160000Y2610000I140000J0D01*
G01*
X-12880000Y2610000D01*
G75*
G02*
X-12740000Y2470000I0J-140000D01*
G01*
X-12740000Y2130000D01*
G75*
G02*
X-12880000Y1990000I-140000J0D01*
G01*
X-13160000Y1990000D01*
G75*
G02*
X-13300000Y2130000I0J140000D01*
G01*
G37*
G04 #@! TD*
G04 #@! TO.C,C12*
G36*
G01*
X-19130000Y6240000D02*
X-19470000Y6240000D01*
G75*
G02*
X-19610000Y6380000I0J140000D01*
G01*
X-19610000Y6660000D01*
G75*
G02*
X-19470000Y6800000I140000J0D01*
G01*
X-19130000Y6800000D01*
G75*
G02*
X-18990000Y6660000I0J-140000D01*
G01*
X-18990000Y6380000D01*
G75*
G02*
X-19130000Y6240000I-140000J0D01*
G01*
G37*
G36*
G01*
X-19130000Y7200000D02*
X-19470000Y7200000D01*
G75*
G02*
X-19610000Y7340000I0J140000D01*
G01*
X-19610000Y7620000D01*
G75*
G02*
X-19470000Y7760000I140000J0D01*
G01*
X-19130000Y7760000D01*
G75*
G02*
X-18990000Y7620000I0J-140000D01*
G01*
X-18990000Y7340000D01*
G75*
G02*
X-19130000Y7200000I-140000J0D01*
G01*
G37*
G04 #@! TD*
G04 #@! TO.C,C11*
G36*
G01*
X-23840000Y2070000D02*
X-23840000Y1730000D01*
G75*
G02*
X-23980000Y1590000I-140000J0D01*
G01*
X-24260000Y1590000D01*
G75*
G02*
X-24400000Y1730000I0J140000D01*
G01*
X-24400000Y2070000D01*
G75*
G02*
X-24260000Y2210000I140000J0D01*
G01*
X-23980000Y2210000D01*
G75*
G02*
X-23840000Y2070000I0J-140000D01*
G01*
G37*
G36*
G01*
X-24800000Y2070000D02*
X-24800000Y1730000D01*
G75*
G02*
X-24940000Y1590000I-140000J0D01*
G01*
X-25220000Y1590000D01*
G75*
G02*
X-25360000Y1730000I0J140000D01*
G01*
X-25360000Y2070000D01*
G75*
G02*
X-25220000Y2210000I140000J0D01*
G01*
X-24940000Y2210000D01*
G75*
G02*
X-24800000Y2070000I0J-140000D01*
G01*
G37*
G04 #@! TD*
G04 #@! TO.C,C10*
G36*
G01*
X-23840000Y-1530000D02*
X-23840000Y-1870000D01*
G75*
G02*
X-23980000Y-2010000I-140000J0D01*
G01*
X-24260000Y-2010000D01*
G75*
G02*
X-24400000Y-1870000I0J140000D01*
G01*
X-24400000Y-1530000D01*
G75*
G02*
X-24260000Y-1390000I140000J0D01*
G01*
X-23980000Y-1390000D01*
G75*
G02*
X-23840000Y-1530000I0J-140000D01*
G01*
G37*
G36*
G01*
X-24800000Y-1530000D02*
X-24800000Y-1870000D01*
G75*
G02*
X-24940000Y-2010000I-140000J0D01*
G01*
X-25220000Y-2010000D01*
G75*
G02*
X-25360000Y-1870000I0J140000D01*
G01*
X-25360000Y-1530000D01*
G75*
G02*
X-25220000Y-1390000I140000J0D01*
G01*
X-24940000Y-1390000D01*
G75*
G02*
X-24800000Y-1530000I0J-140000D01*
G01*
G37*
G04 #@! TD*
G04 #@! TO.C,C9*
G36*
G01*
X-23370000Y-5500000D02*
X-23030000Y-5500000D01*
G75*
G02*
X-22890000Y-5640000I0J-140000D01*
G01*
X-22890000Y-5920000D01*
G75*
G02*
X-23030000Y-6060000I-140000J0D01*
G01*
X-23370000Y-6060000D01*
G75*
G02*
X-23510000Y-5920000I0J140000D01*
G01*
X-23510000Y-5640000D01*
G75*
G02*
X-23370000Y-5500000I140000J0D01*
G01*
G37*
G36*
G01*
X-23370000Y-4540000D02*
X-23030000Y-4540000D01*
G75*
G02*
X-22890000Y-4680000I0J-140000D01*
G01*
X-22890000Y-4960000D01*
G75*
G02*
X-23030000Y-5100000I-140000J0D01*
G01*
X-23370000Y-5100000D01*
G75*
G02*
X-23510000Y-4960000I0J140000D01*
G01*
X-23510000Y-4680000D01*
G75*
G02*
X-23370000Y-4540000I140000J0D01*
G01*
G37*
G04 #@! TD*
G04 #@! TO.C,C8*
G36*
G01*
X-22370000Y-5500000D02*
X-22030000Y-5500000D01*
G75*
G02*
X-21890000Y-5640000I0J-140000D01*
G01*
X-21890000Y-5920000D01*
G75*
G02*
X-22030000Y-6060000I-140000J0D01*
G01*
X-22370000Y-6060000D01*
G75*
G02*
X-22510000Y-5920000I0J140000D01*
G01*
X-22510000Y-5640000D01*
G75*
G02*
X-22370000Y-5500000I140000J0D01*
G01*
G37*
G36*
G01*
X-22370000Y-4540000D02*
X-22030000Y-4540000D01*
G75*
G02*
X-21890000Y-4680000I0J-140000D01*
G01*
X-21890000Y-4960000D01*
G75*
G02*
X-22030000Y-5100000I-140000J0D01*
G01*
X-22370000Y-5100000D01*
G75*
G02*
X-22510000Y-4960000I0J140000D01*
G01*
X-22510000Y-4680000D01*
G75*
G02*
X-22370000Y-4540000I140000J0D01*
G01*
G37*
G04 #@! TD*
G04 #@! TO.C,C7*
G36*
G01*
X-19570000Y-5500000D02*
X-19230000Y-5500000D01*
G75*
G02*
X-19090000Y-5640000I0J-140000D01*
G01*
X-19090000Y-5920000D01*
G75*
G02*
X-19230000Y-6060000I-140000J0D01*
G01*
X-19570000Y-6060000D01*
G75*
G02*
X-19710000Y-5920000I0J140000D01*
G01*
X-19710000Y-5640000D01*
G75*
G02*
X-19570000Y-5500000I140000J0D01*
G01*
G37*
G36*
G01*
X-19570000Y-4540000D02*
X-19230000Y-4540000D01*
G75*
G02*
X-19090000Y-4680000I0J-140000D01*
G01*
X-19090000Y-4960000D01*
G75*
G02*
X-19230000Y-5100000I-140000J0D01*
G01*
X-19570000Y-5100000D01*
G75*
G02*
X-19710000Y-4960000I0J140000D01*
G01*
X-19710000Y-4680000D01*
G75*
G02*
X-19570000Y-4540000I140000J0D01*
G01*
G37*
G04 #@! TD*
G04 #@! TO.C,C6*
G36*
G01*
X-21370000Y-5500000D02*
X-21030000Y-5500000D01*
G75*
G02*
X-20890000Y-5640000I0J-140000D01*
G01*
X-20890000Y-5920000D01*
G75*
G02*
X-21030000Y-6060000I-140000J0D01*
G01*
X-21370000Y-6060000D01*
G75*
G02*
X-21510000Y-5920000I0J140000D01*
G01*
X-21510000Y-5640000D01*
G75*
G02*
X-21370000Y-5500000I140000J0D01*
G01*
G37*
G36*
G01*
X-21370000Y-4540000D02*
X-21030000Y-4540000D01*
G75*
G02*
X-20890000Y-4680000I0J-140000D01*
G01*
X-20890000Y-4960000D01*
G75*
G02*
X-21030000Y-5100000I-140000J0D01*
G01*
X-21370000Y-5100000D01*
G75*
G02*
X-21510000Y-4960000I0J140000D01*
G01*
X-21510000Y-4680000D01*
G75*
G02*
X-21370000Y-4540000I140000J0D01*
G01*
G37*
G04 #@! TD*
G04 #@! TO.C,C5*
G36*
G01*
X-20130000Y6240000D02*
X-20470000Y6240000D01*
G75*
G02*
X-20610000Y6380000I0J140000D01*
G01*
X-20610000Y6660000D01*
G75*
G02*
X-20470000Y6800000I140000J0D01*
G01*
X-20130000Y6800000D01*
G75*
G02*
X-19990000Y6660000I0J-140000D01*
G01*
X-19990000Y6380000D01*
G75*
G02*
X-20130000Y6240000I-140000J0D01*
G01*
G37*
G36*
G01*
X-20130000Y7200000D02*
X-20470000Y7200000D01*
G75*
G02*
X-20610000Y7340000I0J140000D01*
G01*
X-20610000Y7620000D01*
G75*
G02*
X-20470000Y7760000I140000J0D01*
G01*
X-20130000Y7760000D01*
G75*
G02*
X-19990000Y7620000I0J-140000D01*
G01*
X-19990000Y7340000D01*
G75*
G02*
X-20130000Y7200000I-140000J0D01*
G01*
G37*
G04 #@! TD*
G04 #@! TO.C,C4*
G36*
G01*
X-18670000Y-4540000D02*
X-18330000Y-4540000D01*
G75*
G02*
X-18190000Y-4680000I0J-140000D01*
G01*
X-18190000Y-4960000D01*
G75*
G02*
X-18330000Y-5100000I-140000J0D01*
G01*
X-18670000Y-5100000D01*
G75*
G02*
X-18810000Y-4960000I0J140000D01*
G01*
X-18810000Y-4680000D01*
G75*
G02*
X-18670000Y-4540000I140000J0D01*
G01*
G37*
G36*
G01*
X-18670000Y-5500000D02*
X-18330000Y-5500000D01*
G75*
G02*
X-18190000Y-5640000I0J-140000D01*
G01*
X-18190000Y-5920000D01*
G75*
G02*
X-18330000Y-6060000I-140000J0D01*
G01*
X-18670000Y-6060000D01*
G75*
G02*
X-18810000Y-5920000I0J140000D01*
G01*
X-18810000Y-5640000D01*
G75*
G02*
X-18670000Y-5500000I140000J0D01*
G01*
G37*
G04 #@! TD*
G04 #@! TO.C,C3*
G36*
G01*
X-15985000Y-7570000D02*
X-15985000Y-7230000D01*
G75*
G02*
X-15845000Y-7090000I140000J0D01*
G01*
X-15565000Y-7090000D01*
G75*
G02*
X-15425000Y-7230000I0J-140000D01*
G01*
X-15425000Y-7570000D01*
G75*
G02*
X-15565000Y-7710000I-140000J0D01*
G01*
X-15845000Y-7710000D01*
G75*
G02*
X-15985000Y-7570000I0J140000D01*
G01*
G37*
G36*
G01*
X-15025000Y-7570000D02*
X-15025000Y-7230000D01*
G75*
G02*
X-14885000Y-7090000I140000J0D01*
G01*
X-14605000Y-7090000D01*
G75*
G02*
X-14465000Y-7230000I0J-140000D01*
G01*
X-14465000Y-7570000D01*
G75*
G02*
X-14605000Y-7710000I-140000J0D01*
G01*
X-14885000Y-7710000D01*
G75*
G02*
X-15025000Y-7570000I0J140000D01*
G01*
G37*
G04 #@! TD*
G04 #@! TO.C,C2*
G36*
G01*
X-19730000Y9040000D02*
X-20070000Y9040000D01*
G75*
G02*
X-20210000Y9180000I0J140000D01*
G01*
X-20210000Y9460000D01*
G75*
G02*
X-20070000Y9600000I140000J0D01*
G01*
X-19730000Y9600000D01*
G75*
G02*
X-19590000Y9460000I0J-140000D01*
G01*
X-19590000Y9180000D01*
G75*
G02*
X-19730000Y9040000I-140000J0D01*
G01*
G37*
G36*
G01*
X-19730000Y10000000D02*
X-20070000Y10000000D01*
G75*
G02*
X-20210000Y10140000I0J140000D01*
G01*
X-20210000Y10420000D01*
G75*
G02*
X-20070000Y10560000I140000J0D01*
G01*
X-19730000Y10560000D01*
G75*
G02*
X-19590000Y10420000I0J-140000D01*
G01*
X-19590000Y10140000D01*
G75*
G02*
X-19730000Y10000000I-140000J0D01*
G01*
G37*
G04 #@! TD*
G04 #@! TO.C,C1*
G36*
G01*
X-14670000Y11360000D02*
X-14330000Y11360000D01*
G75*
G02*
X-14190000Y11220000I0J-140000D01*
G01*
X-14190000Y10940000D01*
G75*
G02*
X-14330000Y10800000I-140000J0D01*
G01*
X-14670000Y10800000D01*
G75*
G02*
X-14810000Y10940000I0J140000D01*
G01*
X-14810000Y11220000D01*
G75*
G02*
X-14670000Y11360000I140000J0D01*
G01*
G37*
G36*
G01*
X-14670000Y10400000D02*
X-14330000Y10400000D01*
G75*
G02*
X-14190000Y10260000I0J-140000D01*
G01*
X-14190000Y9980000D01*
G75*
G02*
X-14330000Y9840000I-140000J0D01*
G01*
X-14670000Y9840000D01*
G75*
G02*
X-14810000Y9980000I0J140000D01*
G01*
X-14810000Y10260000D01*
G75*
G02*
X-14670000Y10400000I140000J0D01*
G01*
G37*
G04 #@! TD*
M02*
