G04 #@! TF.GenerationSoftware,KiCad,Pcbnew,8.0.4*
G04 #@! TF.CreationDate,2026-02-28T16:11:48-08:00*
G04 #@! TF.ProjectId,MK4001MTD_USB_Reader,4d4b3430-3031-44d5-9444-5f5553425f52,rev?*
G04 #@! TF.SameCoordinates,Original*
G04 #@! TF.FileFunction,Legend,Top*
G04 #@! TF.FilePolarity,Positive*
%FSLAX46Y46*%
G04 Gerber Fmt 4.6, Leading zero omitted, Abs format (unit mm)*
G04 Created by KiCad (PCBNEW 8.0.4) date 2026-02-28 16:11:48*
%MOMM*%
%LPD*%
G01*
G04 APERTURE LIST*
%ADD10C,0.150000*%
%ADD11C,0.175000*%
%ADD12C,0.200000*%
%ADD13C,0.120000*%
G04 APERTURE END LIST*
D10*
X400002Y-11752553D02*
X800002Y-11752553D01*
X600002Y-12452553D02*
X600002Y-11752553D01*
X1033335Y-12452553D02*
X1033335Y-11752553D01*
X1333335Y-12452553D02*
X1333335Y-12085886D01*
X1333335Y-12085886D02*
X1300002Y-12019220D01*
X1300002Y-12019220D02*
X1233335Y-11985886D01*
X1233335Y-11985886D02*
X1133335Y-11985886D01*
X1133335Y-11985886D02*
X1066669Y-12019220D01*
X1066669Y-12019220D02*
X1033335Y-12052553D01*
X1666668Y-12452553D02*
X1666668Y-11985886D01*
X1666668Y-11752553D02*
X1633335Y-11785886D01*
X1633335Y-11785886D02*
X1666668Y-11819220D01*
X1666668Y-11819220D02*
X1700002Y-11785886D01*
X1700002Y-11785886D02*
X1666668Y-11752553D01*
X1666668Y-11752553D02*
X1666668Y-11819220D01*
X1966668Y-12419220D02*
X2033335Y-12452553D01*
X2033335Y-12452553D02*
X2166668Y-12452553D01*
X2166668Y-12452553D02*
X2233335Y-12419220D01*
X2233335Y-12419220D02*
X2266668Y-12352553D01*
X2266668Y-12352553D02*
X2266668Y-12319220D01*
X2266668Y-12319220D02*
X2233335Y-12252553D01*
X2233335Y-12252553D02*
X2166668Y-12219220D01*
X2166668Y-12219220D02*
X2066668Y-12219220D01*
X2066668Y-12219220D02*
X2000001Y-12185886D01*
X2000001Y-12185886D02*
X1966668Y-12119220D01*
X1966668Y-12119220D02*
X1966668Y-12085886D01*
X1966668Y-12085886D02*
X2000001Y-12019220D01*
X2000001Y-12019220D02*
X2066668Y-11985886D01*
X2066668Y-11985886D02*
X2166668Y-11985886D01*
X2166668Y-11985886D02*
X2233335Y-12019220D01*
X3100001Y-12452553D02*
X3100001Y-11985886D01*
X3100001Y-11752553D02*
X3066668Y-11785886D01*
X3066668Y-11785886D02*
X3100001Y-11819220D01*
X3100001Y-11819220D02*
X3133335Y-11785886D01*
X3133335Y-11785886D02*
X3100001Y-11752553D01*
X3100001Y-11752553D02*
X3100001Y-11819220D01*
X3400001Y-12419220D02*
X3466668Y-12452553D01*
X3466668Y-12452553D02*
X3600001Y-12452553D01*
X3600001Y-12452553D02*
X3666668Y-12419220D01*
X3666668Y-12419220D02*
X3700001Y-12352553D01*
X3700001Y-12352553D02*
X3700001Y-12319220D01*
X3700001Y-12319220D02*
X3666668Y-12252553D01*
X3666668Y-12252553D02*
X3600001Y-12219220D01*
X3600001Y-12219220D02*
X3500001Y-12219220D01*
X3500001Y-12219220D02*
X3433334Y-12185886D01*
X3433334Y-12185886D02*
X3400001Y-12119220D01*
X3400001Y-12119220D02*
X3400001Y-12085886D01*
X3400001Y-12085886D02*
X3433334Y-12019220D01*
X3433334Y-12019220D02*
X3500001Y-11985886D01*
X3500001Y-11985886D02*
X3600001Y-11985886D01*
X3600001Y-11985886D02*
X3666668Y-12019220D01*
X4533334Y-12452553D02*
X4533334Y-11752553D01*
X4533334Y-11752553D02*
X4933334Y-12452553D01*
X4933334Y-12452553D02*
X4933334Y-11752553D01*
X5400001Y-11752553D02*
X5533334Y-11752553D01*
X5533334Y-11752553D02*
X5600001Y-11785886D01*
X5600001Y-11785886D02*
X5666667Y-11852553D01*
X5666667Y-11852553D02*
X5700001Y-11985886D01*
X5700001Y-11985886D02*
X5700001Y-12219220D01*
X5700001Y-12219220D02*
X5666667Y-12352553D01*
X5666667Y-12352553D02*
X5600001Y-12419220D01*
X5600001Y-12419220D02*
X5533334Y-12452553D01*
X5533334Y-12452553D02*
X5400001Y-12452553D01*
X5400001Y-12452553D02*
X5333334Y-12419220D01*
X5333334Y-12419220D02*
X5266667Y-12352553D01*
X5266667Y-12352553D02*
X5233334Y-12219220D01*
X5233334Y-12219220D02*
X5233334Y-11985886D01*
X5233334Y-11985886D02*
X5266667Y-11852553D01*
X5266667Y-11852553D02*
X5333334Y-11785886D01*
X5333334Y-11785886D02*
X5400001Y-11752553D01*
X5900000Y-11752553D02*
X6300000Y-11752553D01*
X6100000Y-12452553D02*
X6100000Y-11752553D01*
X7033333Y-12419220D02*
X7100000Y-12452553D01*
X7100000Y-12452553D02*
X7233333Y-12452553D01*
X7233333Y-12452553D02*
X7300000Y-12419220D01*
X7300000Y-12419220D02*
X7333333Y-12352553D01*
X7333333Y-12352553D02*
X7333333Y-12319220D01*
X7333333Y-12319220D02*
X7300000Y-12252553D01*
X7300000Y-12252553D02*
X7233333Y-12219220D01*
X7233333Y-12219220D02*
X7133333Y-12219220D01*
X7133333Y-12219220D02*
X7066666Y-12185886D01*
X7066666Y-12185886D02*
X7033333Y-12119220D01*
X7033333Y-12119220D02*
X7033333Y-12085886D01*
X7033333Y-12085886D02*
X7066666Y-12019220D01*
X7066666Y-12019220D02*
X7133333Y-11985886D01*
X7133333Y-11985886D02*
X7233333Y-11985886D01*
X7233333Y-11985886D02*
X7300000Y-12019220D01*
X7533333Y-11985886D02*
X7800000Y-11985886D01*
X7633333Y-11752553D02*
X7633333Y-12352553D01*
X7633333Y-12352553D02*
X7666667Y-12419220D01*
X7666667Y-12419220D02*
X7733333Y-12452553D01*
X7733333Y-12452553D02*
X7800000Y-12452553D01*
X8333333Y-12452553D02*
X8333333Y-12085886D01*
X8333333Y-12085886D02*
X8300000Y-12019220D01*
X8300000Y-12019220D02*
X8233333Y-11985886D01*
X8233333Y-11985886D02*
X8100000Y-11985886D01*
X8100000Y-11985886D02*
X8033333Y-12019220D01*
X8333333Y-12419220D02*
X8266667Y-12452553D01*
X8266667Y-12452553D02*
X8100000Y-12452553D01*
X8100000Y-12452553D02*
X8033333Y-12419220D01*
X8033333Y-12419220D02*
X8000000Y-12352553D01*
X8000000Y-12352553D02*
X8000000Y-12285886D01*
X8000000Y-12285886D02*
X8033333Y-12219220D01*
X8033333Y-12219220D02*
X8100000Y-12185886D01*
X8100000Y-12185886D02*
X8266667Y-12185886D01*
X8266667Y-12185886D02*
X8333333Y-12152553D01*
X8666666Y-11985886D02*
X8666666Y-12452553D01*
X8666666Y-12052553D02*
X8700000Y-12019220D01*
X8700000Y-12019220D02*
X8766666Y-11985886D01*
X8766666Y-11985886D02*
X8866666Y-11985886D01*
X8866666Y-11985886D02*
X8933333Y-12019220D01*
X8933333Y-12019220D02*
X8966666Y-12085886D01*
X8966666Y-12085886D02*
X8966666Y-12452553D01*
X9599999Y-12452553D02*
X9599999Y-11752553D01*
X9599999Y-12419220D02*
X9533333Y-12452553D01*
X9533333Y-12452553D02*
X9399999Y-12452553D01*
X9399999Y-12452553D02*
X9333333Y-12419220D01*
X9333333Y-12419220D02*
X9299999Y-12385886D01*
X9299999Y-12385886D02*
X9266666Y-12319220D01*
X9266666Y-12319220D02*
X9266666Y-12119220D01*
X9266666Y-12119220D02*
X9299999Y-12052553D01*
X9299999Y-12052553D02*
X9333333Y-12019220D01*
X9333333Y-12019220D02*
X9399999Y-11985886D01*
X9399999Y-11985886D02*
X9533333Y-11985886D01*
X9533333Y-11985886D02*
X9599999Y-12019220D01*
X10233332Y-12452553D02*
X10233332Y-12085886D01*
X10233332Y-12085886D02*
X10199999Y-12019220D01*
X10199999Y-12019220D02*
X10133332Y-11985886D01*
X10133332Y-11985886D02*
X9999999Y-11985886D01*
X9999999Y-11985886D02*
X9933332Y-12019220D01*
X10233332Y-12419220D02*
X10166666Y-12452553D01*
X10166666Y-12452553D02*
X9999999Y-12452553D01*
X9999999Y-12452553D02*
X9933332Y-12419220D01*
X9933332Y-12419220D02*
X9899999Y-12352553D01*
X9899999Y-12352553D02*
X9899999Y-12285886D01*
X9899999Y-12285886D02*
X9933332Y-12219220D01*
X9933332Y-12219220D02*
X9999999Y-12185886D01*
X9999999Y-12185886D02*
X10166666Y-12185886D01*
X10166666Y-12185886D02*
X10233332Y-12152553D01*
X10566665Y-12452553D02*
X10566665Y-11985886D01*
X10566665Y-12119220D02*
X10599999Y-12052553D01*
X10599999Y-12052553D02*
X10633332Y-12019220D01*
X10633332Y-12019220D02*
X10699999Y-11985886D01*
X10699999Y-11985886D02*
X10766665Y-11985886D01*
X11299998Y-12452553D02*
X11299998Y-11752553D01*
X11299998Y-12419220D02*
X11233332Y-12452553D01*
X11233332Y-12452553D02*
X11099998Y-12452553D01*
X11099998Y-12452553D02*
X11033332Y-12419220D01*
X11033332Y-12419220D02*
X10999998Y-12385886D01*
X10999998Y-12385886D02*
X10966665Y-12319220D01*
X10966665Y-12319220D02*
X10966665Y-12119220D01*
X10966665Y-12119220D02*
X10999998Y-12052553D01*
X10999998Y-12052553D02*
X11033332Y-12019220D01*
X11033332Y-12019220D02*
X11099998Y-11985886D01*
X11099998Y-11985886D02*
X11233332Y-11985886D01*
X11233332Y-11985886D02*
X11299998Y-12019220D01*
X1933334Y-13546181D02*
X2033334Y-13579514D01*
X2033334Y-13579514D02*
X2200001Y-13579514D01*
X2200001Y-13579514D02*
X2266667Y-13546181D01*
X2266667Y-13546181D02*
X2300001Y-13512847D01*
X2300001Y-13512847D02*
X2333334Y-13446181D01*
X2333334Y-13446181D02*
X2333334Y-13379514D01*
X2333334Y-13379514D02*
X2300001Y-13312847D01*
X2300001Y-13312847D02*
X2266667Y-13279514D01*
X2266667Y-13279514D02*
X2200001Y-13246181D01*
X2200001Y-13246181D02*
X2066667Y-13212847D01*
X2066667Y-13212847D02*
X2000001Y-13179514D01*
X2000001Y-13179514D02*
X1966667Y-13146181D01*
X1966667Y-13146181D02*
X1933334Y-13079514D01*
X1933334Y-13079514D02*
X1933334Y-13012847D01*
X1933334Y-13012847D02*
X1966667Y-12946181D01*
X1966667Y-12946181D02*
X2000001Y-12912847D01*
X2000001Y-12912847D02*
X2066667Y-12879514D01*
X2066667Y-12879514D02*
X2233334Y-12879514D01*
X2233334Y-12879514D02*
X2333334Y-12912847D01*
X2633334Y-13579514D02*
X2633334Y-12879514D01*
X2633334Y-12879514D02*
X2800001Y-12879514D01*
X2800001Y-12879514D02*
X2900001Y-12912847D01*
X2900001Y-12912847D02*
X2966668Y-12979514D01*
X2966668Y-12979514D02*
X3000001Y-13046181D01*
X3000001Y-13046181D02*
X3033334Y-13179514D01*
X3033334Y-13179514D02*
X3033334Y-13279514D01*
X3033334Y-13279514D02*
X3000001Y-13412847D01*
X3000001Y-13412847D02*
X2966668Y-13479514D01*
X2966668Y-13479514D02*
X2900001Y-13546181D01*
X2900001Y-13546181D02*
X2800001Y-13579514D01*
X2800001Y-13579514D02*
X2633334Y-13579514D01*
X3833334Y-12846181D02*
X3233334Y-13746181D01*
X4066667Y-13579514D02*
X4066667Y-12879514D01*
X4066667Y-12879514D02*
X4300001Y-13379514D01*
X4300001Y-13379514D02*
X4533334Y-12879514D01*
X4533334Y-12879514D02*
X4533334Y-13579514D01*
X4866667Y-13579514D02*
X4866667Y-12879514D01*
X4866667Y-12879514D02*
X5100001Y-13379514D01*
X5100001Y-13379514D02*
X5333334Y-12879514D01*
X5333334Y-12879514D02*
X5333334Y-13579514D01*
X6066667Y-13512847D02*
X6033334Y-13546181D01*
X6033334Y-13546181D02*
X5933334Y-13579514D01*
X5933334Y-13579514D02*
X5866667Y-13579514D01*
X5866667Y-13579514D02*
X5766667Y-13546181D01*
X5766667Y-13546181D02*
X5700001Y-13479514D01*
X5700001Y-13479514D02*
X5666667Y-13412847D01*
X5666667Y-13412847D02*
X5633334Y-13279514D01*
X5633334Y-13279514D02*
X5633334Y-13179514D01*
X5633334Y-13179514D02*
X5666667Y-13046181D01*
X5666667Y-13046181D02*
X5700001Y-12979514D01*
X5700001Y-12979514D02*
X5766667Y-12912847D01*
X5766667Y-12912847D02*
X5866667Y-12879514D01*
X5866667Y-12879514D02*
X5933334Y-12879514D01*
X5933334Y-12879514D02*
X6033334Y-12912847D01*
X6033334Y-12912847D02*
X6066667Y-12946181D01*
X6900000Y-13112847D02*
X6900000Y-13812847D01*
X6900000Y-13146181D02*
X6966667Y-13112847D01*
X6966667Y-13112847D02*
X7100000Y-13112847D01*
X7100000Y-13112847D02*
X7166667Y-13146181D01*
X7166667Y-13146181D02*
X7200000Y-13179514D01*
X7200000Y-13179514D02*
X7233334Y-13246181D01*
X7233334Y-13246181D02*
X7233334Y-13446181D01*
X7233334Y-13446181D02*
X7200000Y-13512847D01*
X7200000Y-13512847D02*
X7166667Y-13546181D01*
X7166667Y-13546181D02*
X7100000Y-13579514D01*
X7100000Y-13579514D02*
X6966667Y-13579514D01*
X6966667Y-13579514D02*
X6900000Y-13546181D01*
X7533333Y-13579514D02*
X7533333Y-13112847D01*
X7533333Y-12879514D02*
X7500000Y-12912847D01*
X7500000Y-12912847D02*
X7533333Y-12946181D01*
X7533333Y-12946181D02*
X7566667Y-12912847D01*
X7566667Y-12912847D02*
X7533333Y-12879514D01*
X7533333Y-12879514D02*
X7533333Y-12946181D01*
X7866666Y-13112847D02*
X7866666Y-13579514D01*
X7866666Y-13179514D02*
X7900000Y-13146181D01*
X7900000Y-13146181D02*
X7966666Y-13112847D01*
X7966666Y-13112847D02*
X8066666Y-13112847D01*
X8066666Y-13112847D02*
X8133333Y-13146181D01*
X8133333Y-13146181D02*
X8166666Y-13212847D01*
X8166666Y-13212847D02*
X8166666Y-13579514D01*
X8599999Y-13579514D02*
X8533333Y-13546181D01*
X8533333Y-13546181D02*
X8499999Y-13512847D01*
X8499999Y-13512847D02*
X8466666Y-13446181D01*
X8466666Y-13446181D02*
X8466666Y-13246181D01*
X8466666Y-13246181D02*
X8499999Y-13179514D01*
X8499999Y-13179514D02*
X8533333Y-13146181D01*
X8533333Y-13146181D02*
X8599999Y-13112847D01*
X8599999Y-13112847D02*
X8699999Y-13112847D01*
X8699999Y-13112847D02*
X8766666Y-13146181D01*
X8766666Y-13146181D02*
X8799999Y-13179514D01*
X8799999Y-13179514D02*
X8833333Y-13246181D01*
X8833333Y-13246181D02*
X8833333Y-13446181D01*
X8833333Y-13446181D02*
X8799999Y-13512847D01*
X8799999Y-13512847D02*
X8766666Y-13546181D01*
X8766666Y-13546181D02*
X8699999Y-13579514D01*
X8699999Y-13579514D02*
X8599999Y-13579514D01*
X9433332Y-13112847D02*
X9433332Y-13579514D01*
X9133332Y-13112847D02*
X9133332Y-13479514D01*
X9133332Y-13479514D02*
X9166666Y-13546181D01*
X9166666Y-13546181D02*
X9233332Y-13579514D01*
X9233332Y-13579514D02*
X9333332Y-13579514D01*
X9333332Y-13579514D02*
X9399999Y-13546181D01*
X9399999Y-13546181D02*
X9433332Y-13512847D01*
X9666665Y-13112847D02*
X9933332Y-13112847D01*
X9766665Y-12879514D02*
X9766665Y-13479514D01*
X9766665Y-13479514D02*
X9799999Y-13546181D01*
X9799999Y-13546181D02*
X9866665Y-13579514D01*
X9866665Y-13579514D02*
X9933332Y-13579514D01*
X900000Y-5900000D02*
X1400000Y-5900000D01*
X900000Y-5600000D02*
X900000Y-5900000D01*
X900000Y-2900000D02*
X1400000Y-2900000D01*
X900000Y-2900000D02*
X900000Y-3200000D01*
X549366Y-4933332D02*
X516033Y-4999999D01*
X516033Y-4999999D02*
X516033Y-5099999D01*
X516033Y-5099999D02*
X549366Y-5199999D01*
X549366Y-5199999D02*
X616033Y-5266666D01*
X616033Y-5266666D02*
X682700Y-5299999D01*
X682700Y-5299999D02*
X816033Y-5333332D01*
X816033Y-5333332D02*
X916033Y-5333332D01*
X916033Y-5333332D02*
X1049366Y-5299999D01*
X1049366Y-5299999D02*
X1116033Y-5266666D01*
X1116033Y-5266666D02*
X1182700Y-5199999D01*
X1182700Y-5199999D02*
X1216033Y-5099999D01*
X1216033Y-5099999D02*
X1216033Y-5033332D01*
X1216033Y-5033332D02*
X1182700Y-4933332D01*
X1182700Y-4933332D02*
X1149366Y-4899999D01*
X1149366Y-4899999D02*
X916033Y-4899999D01*
X916033Y-4899999D02*
X916033Y-5033332D01*
X1216033Y-4599999D02*
X516033Y-4599999D01*
X516033Y-4599999D02*
X1216033Y-4199999D01*
X1216033Y-4199999D02*
X516033Y-4199999D01*
X1216033Y-3866666D02*
X516033Y-3866666D01*
X516033Y-3866666D02*
X516033Y-3699999D01*
X516033Y-3699999D02*
X549366Y-3599999D01*
X549366Y-3599999D02*
X616033Y-3533333D01*
X616033Y-3533333D02*
X682700Y-3499999D01*
X682700Y-3499999D02*
X816033Y-3466666D01*
X816033Y-3466666D02*
X916033Y-3466666D01*
X916033Y-3466666D02*
X1049366Y-3499999D01*
X1049366Y-3499999D02*
X1116033Y-3533333D01*
X1116033Y-3533333D02*
X1182700Y-3599999D01*
X1182700Y-3599999D02*
X1216033Y-3699999D01*
X1216033Y-3699999D02*
X1216033Y-3866666D01*
X4850000Y-4049366D02*
X4783333Y-4016033D01*
X4783333Y-4016033D02*
X4683333Y-4016033D01*
X4683333Y-4016033D02*
X4583333Y-4049366D01*
X4583333Y-4049366D02*
X4516667Y-4116033D01*
X4516667Y-4116033D02*
X4483333Y-4182700D01*
X4483333Y-4182700D02*
X4450000Y-4316033D01*
X4450000Y-4316033D02*
X4450000Y-4416033D01*
X4450000Y-4416033D02*
X4483333Y-4549366D01*
X4483333Y-4549366D02*
X4516667Y-4616033D01*
X4516667Y-4616033D02*
X4583333Y-4682700D01*
X4583333Y-4682700D02*
X4683333Y-4716033D01*
X4683333Y-4716033D02*
X4750000Y-4716033D01*
X4750000Y-4716033D02*
X4850000Y-4682700D01*
X4850000Y-4682700D02*
X4883333Y-4649366D01*
X4883333Y-4649366D02*
X4883333Y-4416033D01*
X4883333Y-4416033D02*
X4750000Y-4416033D01*
X5183333Y-4716033D02*
X5183333Y-4016033D01*
X5183333Y-4016033D02*
X5583333Y-4716033D01*
X5583333Y-4716033D02*
X5583333Y-4016033D01*
X5916666Y-4716033D02*
X5916666Y-4016033D01*
X5916666Y-4016033D02*
X6083333Y-4016033D01*
X6083333Y-4016033D02*
X6183333Y-4049366D01*
X6183333Y-4049366D02*
X6250000Y-4116033D01*
X6250000Y-4116033D02*
X6283333Y-4182700D01*
X6283333Y-4182700D02*
X6316666Y-4316033D01*
X6316666Y-4316033D02*
X6316666Y-4416033D01*
X6316666Y-4416033D02*
X6283333Y-4549366D01*
X6283333Y-4549366D02*
X6250000Y-4616033D01*
X6250000Y-4616033D02*
X6183333Y-4682700D01*
X6183333Y-4682700D02*
X6083333Y-4716033D01*
X6083333Y-4716033D02*
X5916666Y-4716033D01*
X4850000Y3450633D02*
X4783333Y3483966D01*
X4783333Y3483966D02*
X4683333Y3483966D01*
X4683333Y3483966D02*
X4583333Y3450633D01*
X4583333Y3450633D02*
X4516667Y3383966D01*
X4516667Y3383966D02*
X4483333Y3317300D01*
X4483333Y3317300D02*
X4450000Y3183966D01*
X4450000Y3183966D02*
X4450000Y3083966D01*
X4450000Y3083966D02*
X4483333Y2950633D01*
X4483333Y2950633D02*
X4516667Y2883966D01*
X4516667Y2883966D02*
X4583333Y2817300D01*
X4583333Y2817300D02*
X4683333Y2783966D01*
X4683333Y2783966D02*
X4750000Y2783966D01*
X4750000Y2783966D02*
X4850000Y2817300D01*
X4850000Y2817300D02*
X4883333Y2850633D01*
X4883333Y2850633D02*
X4883333Y3083966D01*
X4883333Y3083966D02*
X4750000Y3083966D01*
X5183333Y2783966D02*
X5183333Y3483966D01*
X5183333Y3483966D02*
X5583333Y2783966D01*
X5583333Y2783966D02*
X5583333Y3483966D01*
X5916666Y2783966D02*
X5916666Y3483966D01*
X5916666Y3483966D02*
X6083333Y3483966D01*
X6083333Y3483966D02*
X6183333Y3450633D01*
X6183333Y3450633D02*
X6250000Y3383966D01*
X6250000Y3383966D02*
X6283333Y3317300D01*
X6283333Y3317300D02*
X6316666Y3183966D01*
X6316666Y3183966D02*
X6316666Y3083966D01*
X6316666Y3083966D02*
X6283333Y2950633D01*
X6283333Y2950633D02*
X6250000Y2883966D01*
X6250000Y2883966D02*
X6183333Y2817300D01*
X6183333Y2817300D02*
X6083333Y2783966D01*
X6083333Y2783966D02*
X5916666Y2783966D01*
X4516666Y983966D02*
X4750000Y283966D01*
X4750000Y283966D02*
X4983333Y983966D01*
X5616666Y350633D02*
X5583333Y317300D01*
X5583333Y317300D02*
X5483333Y283966D01*
X5483333Y283966D02*
X5416666Y283966D01*
X5416666Y283966D02*
X5316666Y317300D01*
X5316666Y317300D02*
X5250000Y383966D01*
X5250000Y383966D02*
X5216666Y450633D01*
X5216666Y450633D02*
X5183333Y583966D01*
X5183333Y583966D02*
X5183333Y683966D01*
X5183333Y683966D02*
X5216666Y817300D01*
X5216666Y817300D02*
X5250000Y883966D01*
X5250000Y883966D02*
X5316666Y950633D01*
X5316666Y950633D02*
X5416666Y983966D01*
X5416666Y983966D02*
X5483333Y983966D01*
X5483333Y983966D02*
X5583333Y950633D01*
X5583333Y950633D02*
X5616666Y917300D01*
X6316666Y350633D02*
X6283333Y317300D01*
X6283333Y317300D02*
X6183333Y283966D01*
X6183333Y283966D02*
X6116666Y283966D01*
X6116666Y283966D02*
X6016666Y317300D01*
X6016666Y317300D02*
X5950000Y383966D01*
X5950000Y383966D02*
X5916666Y450633D01*
X5916666Y450633D02*
X5883333Y583966D01*
X5883333Y583966D02*
X5883333Y683966D01*
X5883333Y683966D02*
X5916666Y817300D01*
X5916666Y817300D02*
X5950000Y883966D01*
X5950000Y883966D02*
X6016666Y950633D01*
X6016666Y950633D02*
X6116666Y983966D01*
X6116666Y983966D02*
X6183333Y983966D01*
X6183333Y983966D02*
X6283333Y950633D01*
X6283333Y950633D02*
X6316666Y917300D01*
X4116666Y7683966D02*
X4116666Y8383966D01*
X4116666Y8383966D02*
X4283333Y8383966D01*
X4283333Y8383966D02*
X4383333Y8350633D01*
X4383333Y8350633D02*
X4450000Y8283966D01*
X4450000Y8283966D02*
X4483333Y8217300D01*
X4483333Y8217300D02*
X4516666Y8083966D01*
X4516666Y8083966D02*
X4516666Y7983966D01*
X4516666Y7983966D02*
X4483333Y7850633D01*
X4483333Y7850633D02*
X4450000Y7783966D01*
X4450000Y7783966D02*
X4383333Y7717300D01*
X4383333Y7717300D02*
X4283333Y7683966D01*
X4283333Y7683966D02*
X4116666Y7683966D01*
X4783333Y7883966D02*
X5116666Y7883966D01*
X4716666Y7683966D02*
X4950000Y8383966D01*
X4950000Y8383966D02*
X5183333Y7683966D01*
X5316666Y8383966D02*
X5716666Y8383966D01*
X5516666Y7683966D02*
X5516666Y8383966D01*
X5883333Y8383966D02*
X6316666Y8383966D01*
X6316666Y8383966D02*
X6083333Y8117300D01*
X6083333Y8117300D02*
X6183333Y8117300D01*
X6183333Y8117300D02*
X6249999Y8083966D01*
X6249999Y8083966D02*
X6283333Y8050633D01*
X6283333Y8050633D02*
X6316666Y7983966D01*
X6316666Y7983966D02*
X6316666Y7817300D01*
X6316666Y7817300D02*
X6283333Y7750633D01*
X6283333Y7750633D02*
X6249999Y7717300D01*
X6249999Y7717300D02*
X6183333Y7683966D01*
X6183333Y7683966D02*
X5983333Y7683966D01*
X5983333Y7683966D02*
X5916666Y7717300D01*
X5916666Y7717300D02*
X5883333Y7750633D01*
X4116666Y9483966D02*
X4116666Y10183966D01*
X4116666Y10183966D02*
X4283333Y10183966D01*
X4283333Y10183966D02*
X4383333Y10150633D01*
X4383333Y10150633D02*
X4450000Y10083966D01*
X4450000Y10083966D02*
X4483333Y10017300D01*
X4483333Y10017300D02*
X4516666Y9883966D01*
X4516666Y9883966D02*
X4516666Y9783966D01*
X4516666Y9783966D02*
X4483333Y9650633D01*
X4483333Y9650633D02*
X4450000Y9583966D01*
X4450000Y9583966D02*
X4383333Y9517300D01*
X4383333Y9517300D02*
X4283333Y9483966D01*
X4283333Y9483966D02*
X4116666Y9483966D01*
X4783333Y9683966D02*
X5116666Y9683966D01*
X4716666Y9483966D02*
X4950000Y10183966D01*
X4950000Y10183966D02*
X5183333Y9483966D01*
X5316666Y10183966D02*
X5716666Y10183966D01*
X5516666Y9483966D02*
X5516666Y10183966D01*
X5916666Y10117300D02*
X5949999Y10150633D01*
X5949999Y10150633D02*
X6016666Y10183966D01*
X6016666Y10183966D02*
X6183333Y10183966D01*
X6183333Y10183966D02*
X6249999Y10150633D01*
X6249999Y10150633D02*
X6283333Y10117300D01*
X6283333Y10117300D02*
X6316666Y10050633D01*
X6316666Y10050633D02*
X6316666Y9983966D01*
X6316666Y9983966D02*
X6283333Y9883966D01*
X6283333Y9883966D02*
X5883333Y9483966D01*
X5883333Y9483966D02*
X6316666Y9483966D01*
X1816666Y-9716033D02*
X1816666Y-9016033D01*
X1816666Y-9016033D02*
X1983333Y-9016033D01*
X1983333Y-9016033D02*
X2083333Y-9049366D01*
X2083333Y-9049366D02*
X2150000Y-9116033D01*
X2150000Y-9116033D02*
X2183333Y-9182700D01*
X2183333Y-9182700D02*
X2216666Y-9316033D01*
X2216666Y-9316033D02*
X2216666Y-9416033D01*
X2216666Y-9416033D02*
X2183333Y-9549366D01*
X2183333Y-9549366D02*
X2150000Y-9616033D01*
X2150000Y-9616033D02*
X2083333Y-9682700D01*
X2083333Y-9682700D02*
X1983333Y-9716033D01*
X1983333Y-9716033D02*
X1816666Y-9716033D01*
X2483333Y-9516033D02*
X2816666Y-9516033D01*
X2416666Y-9716033D02*
X2650000Y-9016033D01*
X2650000Y-9016033D02*
X2883333Y-9716033D01*
X3016666Y-9016033D02*
X3416666Y-9016033D01*
X3216666Y-9716033D02*
X3216666Y-9016033D01*
X4016666Y-9716033D02*
X3616666Y-9716033D01*
X3816666Y-9716033D02*
X3816666Y-9016033D01*
X3816666Y-9016033D02*
X3749999Y-9116033D01*
X3749999Y-9116033D02*
X3683333Y-9182700D01*
X3683333Y-9182700D02*
X3616666Y-9216033D01*
X4116666Y-7316033D02*
X4116666Y-6616033D01*
X4116666Y-6616033D02*
X4283333Y-6616033D01*
X4283333Y-6616033D02*
X4383333Y-6649366D01*
X4383333Y-6649366D02*
X4450000Y-6716033D01*
X4450000Y-6716033D02*
X4483333Y-6782700D01*
X4483333Y-6782700D02*
X4516666Y-6916033D01*
X4516666Y-6916033D02*
X4516666Y-7016033D01*
X4516666Y-7016033D02*
X4483333Y-7149366D01*
X4483333Y-7149366D02*
X4450000Y-7216033D01*
X4450000Y-7216033D02*
X4383333Y-7282700D01*
X4383333Y-7282700D02*
X4283333Y-7316033D01*
X4283333Y-7316033D02*
X4116666Y-7316033D01*
X4783333Y-7116033D02*
X5116666Y-7116033D01*
X4716666Y-7316033D02*
X4950000Y-6616033D01*
X4950000Y-6616033D02*
X5183333Y-7316033D01*
X5316666Y-6616033D02*
X5716666Y-6616033D01*
X5516666Y-7316033D02*
X5516666Y-6616033D01*
X6083333Y-6616033D02*
X6149999Y-6616033D01*
X6149999Y-6616033D02*
X6216666Y-6649366D01*
X6216666Y-6649366D02*
X6249999Y-6682700D01*
X6249999Y-6682700D02*
X6283333Y-6749366D01*
X6283333Y-6749366D02*
X6316666Y-6882700D01*
X6316666Y-6882700D02*
X6316666Y-7049366D01*
X6316666Y-7049366D02*
X6283333Y-7182700D01*
X6283333Y-7182700D02*
X6249999Y-7249366D01*
X6249999Y-7249366D02*
X6216666Y-7282700D01*
X6216666Y-7282700D02*
X6149999Y-7316033D01*
X6149999Y-7316033D02*
X6083333Y-7316033D01*
X6083333Y-7316033D02*
X6016666Y-7282700D01*
X6016666Y-7282700D02*
X5983333Y-7249366D01*
X5983333Y-7249366D02*
X5949999Y-7182700D01*
X5949999Y-7182700D02*
X5916666Y-7049366D01*
X5916666Y-7049366D02*
X5916666Y-6882700D01*
X5916666Y-6882700D02*
X5949999Y-6749366D01*
X5949999Y-6749366D02*
X5983333Y-6682700D01*
X5983333Y-6682700D02*
X6016666Y-6649366D01*
X6016666Y-6649366D02*
X6083333Y-6616033D01*
X5049999Y-2149366D02*
X5016666Y-2182700D01*
X5016666Y-2182700D02*
X4916666Y-2216033D01*
X4916666Y-2216033D02*
X4849999Y-2216033D01*
X4849999Y-2216033D02*
X4749999Y-2182700D01*
X4749999Y-2182700D02*
X4683333Y-2116033D01*
X4683333Y-2116033D02*
X4649999Y-2049366D01*
X4649999Y-2049366D02*
X4616666Y-1916033D01*
X4616666Y-1916033D02*
X4616666Y-1816033D01*
X4616666Y-1816033D02*
X4649999Y-1682700D01*
X4649999Y-1682700D02*
X4683333Y-1616033D01*
X4683333Y-1616033D02*
X4749999Y-1549366D01*
X4749999Y-1549366D02*
X4849999Y-1516033D01*
X4849999Y-1516033D02*
X4916666Y-1516033D01*
X4916666Y-1516033D02*
X5016666Y-1549366D01*
X5016666Y-1549366D02*
X5049999Y-1582700D01*
X5683333Y-2216033D02*
X5349999Y-2216033D01*
X5349999Y-2216033D02*
X5349999Y-1516033D01*
X5916666Y-2216033D02*
X5916666Y-1516033D01*
X6316666Y-2216033D02*
X6016666Y-1816033D01*
X6316666Y-1516033D02*
X5916666Y-1916033D01*
X4816666Y5250633D02*
X4783333Y5217300D01*
X4783333Y5217300D02*
X4683333Y5183966D01*
X4683333Y5183966D02*
X4616666Y5183966D01*
X4616666Y5183966D02*
X4516666Y5217300D01*
X4516666Y5217300D02*
X4450000Y5283966D01*
X4450000Y5283966D02*
X4416666Y5350633D01*
X4416666Y5350633D02*
X4383333Y5483966D01*
X4383333Y5483966D02*
X4383333Y5583966D01*
X4383333Y5583966D02*
X4416666Y5717300D01*
X4416666Y5717300D02*
X4450000Y5783966D01*
X4450000Y5783966D02*
X4516666Y5850633D01*
X4516666Y5850633D02*
X4616666Y5883966D01*
X4616666Y5883966D02*
X4683333Y5883966D01*
X4683333Y5883966D02*
X4783333Y5850633D01*
X4783333Y5850633D02*
X4816666Y5817300D01*
X5116666Y5183966D02*
X5116666Y5883966D01*
X5116666Y5883966D02*
X5350000Y5383966D01*
X5350000Y5383966D02*
X5583333Y5883966D01*
X5583333Y5883966D02*
X5583333Y5183966D01*
X5916666Y5183966D02*
X5916666Y5883966D01*
X5916666Y5883966D02*
X6083333Y5883966D01*
X6083333Y5883966D02*
X6183333Y5850633D01*
X6183333Y5850633D02*
X6250000Y5783966D01*
X6250000Y5783966D02*
X6283333Y5717300D01*
X6283333Y5717300D02*
X6316666Y5583966D01*
X6316666Y5583966D02*
X6316666Y5483966D01*
X6316666Y5483966D02*
X6283333Y5350633D01*
X6283333Y5350633D02*
X6250000Y5283966D01*
X6250000Y5283966D02*
X6183333Y5217300D01*
X6183333Y5217300D02*
X6083333Y5183966D01*
X6083333Y5183966D02*
X5916666Y5183966D01*
D11*
X25209521Y18839004D02*
X25209521Y19639004D01*
X25209521Y19639004D02*
X25476187Y19067576D01*
X25476187Y19067576D02*
X25742854Y19639004D01*
X25742854Y19639004D02*
X25742854Y18839004D01*
X26123807Y18839004D02*
X26123807Y19639004D01*
X26580950Y18839004D02*
X26238092Y19296147D01*
X26580950Y19639004D02*
X26123807Y19181861D01*
X27266664Y19372338D02*
X27266664Y18839004D01*
X27076188Y19677100D02*
X26885711Y19105671D01*
X26885711Y19105671D02*
X27380950Y19105671D01*
X27838093Y19639004D02*
X27914283Y19639004D01*
X27914283Y19639004D02*
X27990474Y19600909D01*
X27990474Y19600909D02*
X28028569Y19562814D01*
X28028569Y19562814D02*
X28066664Y19486623D01*
X28066664Y19486623D02*
X28104759Y19334242D01*
X28104759Y19334242D02*
X28104759Y19143766D01*
X28104759Y19143766D02*
X28066664Y18991385D01*
X28066664Y18991385D02*
X28028569Y18915195D01*
X28028569Y18915195D02*
X27990474Y18877100D01*
X27990474Y18877100D02*
X27914283Y18839004D01*
X27914283Y18839004D02*
X27838093Y18839004D01*
X27838093Y18839004D02*
X27761902Y18877100D01*
X27761902Y18877100D02*
X27723807Y18915195D01*
X27723807Y18915195D02*
X27685712Y18991385D01*
X27685712Y18991385D02*
X27647616Y19143766D01*
X27647616Y19143766D02*
X27647616Y19334242D01*
X27647616Y19334242D02*
X27685712Y19486623D01*
X27685712Y19486623D02*
X27723807Y19562814D01*
X27723807Y19562814D02*
X27761902Y19600909D01*
X27761902Y19600909D02*
X27838093Y19639004D01*
X28599998Y19639004D02*
X28676188Y19639004D01*
X28676188Y19639004D02*
X28752379Y19600909D01*
X28752379Y19600909D02*
X28790474Y19562814D01*
X28790474Y19562814D02*
X28828569Y19486623D01*
X28828569Y19486623D02*
X28866664Y19334242D01*
X28866664Y19334242D02*
X28866664Y19143766D01*
X28866664Y19143766D02*
X28828569Y18991385D01*
X28828569Y18991385D02*
X28790474Y18915195D01*
X28790474Y18915195D02*
X28752379Y18877100D01*
X28752379Y18877100D02*
X28676188Y18839004D01*
X28676188Y18839004D02*
X28599998Y18839004D01*
X28599998Y18839004D02*
X28523807Y18877100D01*
X28523807Y18877100D02*
X28485712Y18915195D01*
X28485712Y18915195D02*
X28447617Y18991385D01*
X28447617Y18991385D02*
X28409521Y19143766D01*
X28409521Y19143766D02*
X28409521Y19334242D01*
X28409521Y19334242D02*
X28447617Y19486623D01*
X28447617Y19486623D02*
X28485712Y19562814D01*
X28485712Y19562814D02*
X28523807Y19600909D01*
X28523807Y19600909D02*
X28599998Y19639004D01*
X29628569Y18839004D02*
X29171426Y18839004D01*
X29399998Y18839004D02*
X29399998Y19639004D01*
X29399998Y19639004D02*
X29323807Y19524719D01*
X29323807Y19524719D02*
X29247617Y19448528D01*
X29247617Y19448528D02*
X29171426Y19410433D01*
X29971427Y18839004D02*
X29971427Y19639004D01*
X29971427Y19639004D02*
X30238093Y19067576D01*
X30238093Y19067576D02*
X30504760Y19639004D01*
X30504760Y19639004D02*
X30504760Y18839004D01*
X30771427Y19639004D02*
X31228570Y19639004D01*
X30999998Y18839004D02*
X30999998Y19639004D01*
X31495237Y18839004D02*
X31495237Y19639004D01*
X31495237Y19639004D02*
X31685713Y19639004D01*
X31685713Y19639004D02*
X31799999Y19600909D01*
X31799999Y19600909D02*
X31876189Y19524719D01*
X31876189Y19524719D02*
X31914284Y19448528D01*
X31914284Y19448528D02*
X31952380Y19296147D01*
X31952380Y19296147D02*
X31952380Y19181861D01*
X31952380Y19181861D02*
X31914284Y19029480D01*
X31914284Y19029480D02*
X31876189Y18953290D01*
X31876189Y18953290D02*
X31799999Y18877100D01*
X31799999Y18877100D02*
X31685713Y18839004D01*
X31685713Y18839004D02*
X31495237Y18839004D01*
X32904761Y19143766D02*
X33514285Y19143766D01*
X34390475Y19639004D02*
X34847618Y19639004D01*
X34619046Y18839004D02*
X34619046Y19639004D01*
X35114285Y18839004D02*
X35114285Y19639004D01*
X35457142Y18839004D02*
X35457142Y19258052D01*
X35457142Y19258052D02*
X35419047Y19334242D01*
X35419047Y19334242D02*
X35342856Y19372338D01*
X35342856Y19372338D02*
X35228570Y19372338D01*
X35228570Y19372338D02*
X35152380Y19334242D01*
X35152380Y19334242D02*
X35114285Y19296147D01*
X36142857Y18877100D02*
X36066666Y18839004D01*
X36066666Y18839004D02*
X35914285Y18839004D01*
X35914285Y18839004D02*
X35838095Y18877100D01*
X35838095Y18877100D02*
X35799999Y18953290D01*
X35799999Y18953290D02*
X35799999Y19258052D01*
X35799999Y19258052D02*
X35838095Y19334242D01*
X35838095Y19334242D02*
X35914285Y19372338D01*
X35914285Y19372338D02*
X36066666Y19372338D01*
X36066666Y19372338D02*
X36142857Y19334242D01*
X36142857Y19334242D02*
X36180952Y19258052D01*
X36180952Y19258052D02*
X36180952Y19181861D01*
X36180952Y19181861D02*
X35799999Y19105671D01*
X37057142Y19639004D02*
X37247618Y18839004D01*
X37247618Y18839004D02*
X37399999Y19410433D01*
X37399999Y19410433D02*
X37552380Y18839004D01*
X37552380Y18839004D02*
X37742857Y19639004D01*
X38161904Y18839004D02*
X38085714Y18877100D01*
X38085714Y18877100D02*
X38047619Y18915195D01*
X38047619Y18915195D02*
X38009523Y18991385D01*
X38009523Y18991385D02*
X38009523Y19219957D01*
X38009523Y19219957D02*
X38047619Y19296147D01*
X38047619Y19296147D02*
X38085714Y19334242D01*
X38085714Y19334242D02*
X38161904Y19372338D01*
X38161904Y19372338D02*
X38276190Y19372338D01*
X38276190Y19372338D02*
X38352381Y19334242D01*
X38352381Y19334242D02*
X38390476Y19296147D01*
X38390476Y19296147D02*
X38428571Y19219957D01*
X38428571Y19219957D02*
X38428571Y18991385D01*
X38428571Y18991385D02*
X38390476Y18915195D01*
X38390476Y18915195D02*
X38352381Y18877100D01*
X38352381Y18877100D02*
X38276190Y18839004D01*
X38276190Y18839004D02*
X38161904Y18839004D01*
X38771429Y18839004D02*
X38771429Y19372338D01*
X38771429Y19219957D02*
X38809524Y19296147D01*
X38809524Y19296147D02*
X38847619Y19334242D01*
X38847619Y19334242D02*
X38923810Y19372338D01*
X38923810Y19372338D02*
X39000000Y19372338D01*
X39380952Y18839004D02*
X39304762Y18877100D01*
X39304762Y18877100D02*
X39266667Y18953290D01*
X39266667Y18953290D02*
X39266667Y19639004D01*
X40028572Y18839004D02*
X40028572Y19639004D01*
X40028572Y18877100D02*
X39952381Y18839004D01*
X39952381Y18839004D02*
X39800000Y18839004D01*
X39800000Y18839004D02*
X39723810Y18877100D01*
X39723810Y18877100D02*
X39685715Y18915195D01*
X39685715Y18915195D02*
X39647619Y18991385D01*
X39647619Y18991385D02*
X39647619Y19219957D01*
X39647619Y19219957D02*
X39685715Y19296147D01*
X39685715Y19296147D02*
X39723810Y19334242D01*
X39723810Y19334242D02*
X39800000Y19372338D01*
X39800000Y19372338D02*
X39952381Y19372338D01*
X39952381Y19372338D02*
X40028572Y19334242D01*
X40980953Y18877100D02*
X41095239Y18839004D01*
X41095239Y18839004D02*
X41285715Y18839004D01*
X41285715Y18839004D02*
X41361906Y18877100D01*
X41361906Y18877100D02*
X41400001Y18915195D01*
X41400001Y18915195D02*
X41438096Y18991385D01*
X41438096Y18991385D02*
X41438096Y19067576D01*
X41438096Y19067576D02*
X41400001Y19143766D01*
X41400001Y19143766D02*
X41361906Y19181861D01*
X41361906Y19181861D02*
X41285715Y19219957D01*
X41285715Y19219957D02*
X41133334Y19258052D01*
X41133334Y19258052D02*
X41057144Y19296147D01*
X41057144Y19296147D02*
X41019049Y19334242D01*
X41019049Y19334242D02*
X40980953Y19410433D01*
X40980953Y19410433D02*
X40980953Y19486623D01*
X40980953Y19486623D02*
X41019049Y19562814D01*
X41019049Y19562814D02*
X41057144Y19600909D01*
X41057144Y19600909D02*
X41133334Y19639004D01*
X41133334Y19639004D02*
X41323811Y19639004D01*
X41323811Y19639004D02*
X41438096Y19600909D01*
X41780954Y18839004D02*
X41780954Y19372338D01*
X41780954Y19296147D02*
X41819049Y19334242D01*
X41819049Y19334242D02*
X41895239Y19372338D01*
X41895239Y19372338D02*
X42009525Y19372338D01*
X42009525Y19372338D02*
X42085716Y19334242D01*
X42085716Y19334242D02*
X42123811Y19258052D01*
X42123811Y19258052D02*
X42123811Y18839004D01*
X42123811Y19258052D02*
X42161906Y19334242D01*
X42161906Y19334242D02*
X42238097Y19372338D01*
X42238097Y19372338D02*
X42352382Y19372338D01*
X42352382Y19372338D02*
X42428573Y19334242D01*
X42428573Y19334242D02*
X42466668Y19258052D01*
X42466668Y19258052D02*
X42466668Y18839004D01*
X43190478Y18839004D02*
X43190478Y19258052D01*
X43190478Y19258052D02*
X43152383Y19334242D01*
X43152383Y19334242D02*
X43076192Y19372338D01*
X43076192Y19372338D02*
X42923811Y19372338D01*
X42923811Y19372338D02*
X42847621Y19334242D01*
X43190478Y18877100D02*
X43114287Y18839004D01*
X43114287Y18839004D02*
X42923811Y18839004D01*
X42923811Y18839004D02*
X42847621Y18877100D01*
X42847621Y18877100D02*
X42809525Y18953290D01*
X42809525Y18953290D02*
X42809525Y19029480D01*
X42809525Y19029480D02*
X42847621Y19105671D01*
X42847621Y19105671D02*
X42923811Y19143766D01*
X42923811Y19143766D02*
X43114287Y19143766D01*
X43114287Y19143766D02*
X43190478Y19181861D01*
X43685716Y18839004D02*
X43609526Y18877100D01*
X43609526Y18877100D02*
X43571431Y18953290D01*
X43571431Y18953290D02*
X43571431Y19639004D01*
X44104764Y18839004D02*
X44028574Y18877100D01*
X44028574Y18877100D02*
X43990479Y18953290D01*
X43990479Y18953290D02*
X43990479Y19639004D01*
X44714289Y18877100D02*
X44638098Y18839004D01*
X44638098Y18839004D02*
X44485717Y18839004D01*
X44485717Y18839004D02*
X44409527Y18877100D01*
X44409527Y18877100D02*
X44371431Y18953290D01*
X44371431Y18953290D02*
X44371431Y19258052D01*
X44371431Y19258052D02*
X44409527Y19334242D01*
X44409527Y19334242D02*
X44485717Y19372338D01*
X44485717Y19372338D02*
X44638098Y19372338D01*
X44638098Y19372338D02*
X44714289Y19334242D01*
X44714289Y19334242D02*
X44752384Y19258052D01*
X44752384Y19258052D02*
X44752384Y19181861D01*
X44752384Y19181861D02*
X44371431Y19105671D01*
X45057145Y18877100D02*
X45133336Y18839004D01*
X45133336Y18839004D02*
X45285717Y18839004D01*
X45285717Y18839004D02*
X45361907Y18877100D01*
X45361907Y18877100D02*
X45400003Y18953290D01*
X45400003Y18953290D02*
X45400003Y18991385D01*
X45400003Y18991385D02*
X45361907Y19067576D01*
X45361907Y19067576D02*
X45285717Y19105671D01*
X45285717Y19105671D02*
X45171431Y19105671D01*
X45171431Y19105671D02*
X45095241Y19143766D01*
X45095241Y19143766D02*
X45057145Y19219957D01*
X45057145Y19219957D02*
X45057145Y19258052D01*
X45057145Y19258052D02*
X45095241Y19334242D01*
X45095241Y19334242D02*
X45171431Y19372338D01*
X45171431Y19372338D02*
X45285717Y19372338D01*
X45285717Y19372338D02*
X45361907Y19334242D01*
X45628574Y19372338D02*
X45933336Y19372338D01*
X45742860Y19639004D02*
X45742860Y18953290D01*
X45742860Y18953290D02*
X45780955Y18877100D01*
X45780955Y18877100D02*
X45857145Y18839004D01*
X45857145Y18839004D02*
X45933336Y18839004D01*
X46809527Y18839004D02*
X46809527Y19639004D01*
X46809527Y19258052D02*
X47266670Y19258052D01*
X47266670Y18839004D02*
X47266670Y19639004D01*
X47990479Y18839004D02*
X47990479Y19258052D01*
X47990479Y19258052D02*
X47952384Y19334242D01*
X47952384Y19334242D02*
X47876193Y19372338D01*
X47876193Y19372338D02*
X47723812Y19372338D01*
X47723812Y19372338D02*
X47647622Y19334242D01*
X47990479Y18877100D02*
X47914288Y18839004D01*
X47914288Y18839004D02*
X47723812Y18839004D01*
X47723812Y18839004D02*
X47647622Y18877100D01*
X47647622Y18877100D02*
X47609526Y18953290D01*
X47609526Y18953290D02*
X47609526Y19029480D01*
X47609526Y19029480D02*
X47647622Y19105671D01*
X47647622Y19105671D02*
X47723812Y19143766D01*
X47723812Y19143766D02*
X47914288Y19143766D01*
X47914288Y19143766D02*
X47990479Y19181861D01*
X48371432Y18839004D02*
X48371432Y19372338D01*
X48371432Y19219957D02*
X48409527Y19296147D01*
X48409527Y19296147D02*
X48447622Y19334242D01*
X48447622Y19334242D02*
X48523813Y19372338D01*
X48523813Y19372338D02*
X48600003Y19372338D01*
X49209527Y18839004D02*
X49209527Y19639004D01*
X49209527Y18877100D02*
X49133336Y18839004D01*
X49133336Y18839004D02*
X48980955Y18839004D01*
X48980955Y18839004D02*
X48904765Y18877100D01*
X48904765Y18877100D02*
X48866670Y18915195D01*
X48866670Y18915195D02*
X48828574Y18991385D01*
X48828574Y18991385D02*
X48828574Y19219957D01*
X48828574Y19219957D02*
X48866670Y19296147D01*
X48866670Y19296147D02*
X48904765Y19334242D01*
X48904765Y19334242D02*
X48980955Y19372338D01*
X48980955Y19372338D02*
X49133336Y19372338D01*
X49133336Y19372338D02*
X49209527Y19334242D01*
X50200004Y18839004D02*
X50200004Y19639004D01*
X50200004Y19639004D02*
X50390480Y19639004D01*
X50390480Y19639004D02*
X50504766Y19600909D01*
X50504766Y19600909D02*
X50580956Y19524719D01*
X50580956Y19524719D02*
X50619051Y19448528D01*
X50619051Y19448528D02*
X50657147Y19296147D01*
X50657147Y19296147D02*
X50657147Y19181861D01*
X50657147Y19181861D02*
X50619051Y19029480D01*
X50619051Y19029480D02*
X50580956Y18953290D01*
X50580956Y18953290D02*
X50504766Y18877100D01*
X50504766Y18877100D02*
X50390480Y18839004D01*
X50390480Y18839004D02*
X50200004Y18839004D01*
X51000004Y18839004D02*
X51000004Y19372338D01*
X51000004Y19219957D02*
X51038099Y19296147D01*
X51038099Y19296147D02*
X51076194Y19334242D01*
X51076194Y19334242D02*
X51152385Y19372338D01*
X51152385Y19372338D02*
X51228575Y19372338D01*
X51495242Y18839004D02*
X51495242Y19372338D01*
X51495242Y19639004D02*
X51457146Y19600909D01*
X51457146Y19600909D02*
X51495242Y19562814D01*
X51495242Y19562814D02*
X51533337Y19600909D01*
X51533337Y19600909D02*
X51495242Y19639004D01*
X51495242Y19639004D02*
X51495242Y19562814D01*
X51800003Y19372338D02*
X51990479Y18839004D01*
X51990479Y18839004D02*
X52180956Y19372338D01*
X52790480Y18877100D02*
X52714289Y18839004D01*
X52714289Y18839004D02*
X52561908Y18839004D01*
X52561908Y18839004D02*
X52485718Y18877100D01*
X52485718Y18877100D02*
X52447622Y18953290D01*
X52447622Y18953290D02*
X52447622Y19258052D01*
X52447622Y19258052D02*
X52485718Y19334242D01*
X52485718Y19334242D02*
X52561908Y19372338D01*
X52561908Y19372338D02*
X52714289Y19372338D01*
X52714289Y19372338D02*
X52790480Y19334242D01*
X52790480Y19334242D02*
X52828575Y19258052D01*
X52828575Y19258052D02*
X52828575Y19181861D01*
X52828575Y19181861D02*
X52447622Y19105671D01*
D12*
X-23147780Y-15647619D02*
X-23623971Y-15980952D01*
X-23147780Y-16219047D02*
X-24147780Y-16219047D01*
X-24147780Y-16219047D02*
X-24147780Y-15838095D01*
X-24147780Y-15838095D02*
X-24100161Y-15742857D01*
X-24100161Y-15742857D02*
X-24052542Y-15695238D01*
X-24052542Y-15695238D02*
X-23957304Y-15647619D01*
X-23957304Y-15647619D02*
X-23814447Y-15647619D01*
X-23814447Y-15647619D02*
X-23719209Y-15695238D01*
X-23719209Y-15695238D02*
X-23671590Y-15742857D01*
X-23671590Y-15742857D02*
X-23623971Y-15838095D01*
X-23623971Y-15838095D02*
X-23623971Y-16219047D01*
X-23195400Y-15266666D02*
X-23147780Y-15123809D01*
X-23147780Y-15123809D02*
X-23147780Y-14885714D01*
X-23147780Y-14885714D02*
X-23195400Y-14790476D01*
X-23195400Y-14790476D02*
X-23243019Y-14742857D01*
X-23243019Y-14742857D02*
X-23338257Y-14695238D01*
X-23338257Y-14695238D02*
X-23433495Y-14695238D01*
X-23433495Y-14695238D02*
X-23528733Y-14742857D01*
X-23528733Y-14742857D02*
X-23576352Y-14790476D01*
X-23576352Y-14790476D02*
X-23623971Y-14885714D01*
X-23623971Y-14885714D02*
X-23671590Y-15076190D01*
X-23671590Y-15076190D02*
X-23719209Y-15171428D01*
X-23719209Y-15171428D02*
X-23766828Y-15219047D01*
X-23766828Y-15219047D02*
X-23862066Y-15266666D01*
X-23862066Y-15266666D02*
X-23957304Y-15266666D01*
X-23957304Y-15266666D02*
X-24052542Y-15219047D01*
X-24052542Y-15219047D02*
X-24100161Y-15171428D01*
X-24100161Y-15171428D02*
X-24147780Y-15076190D01*
X-24147780Y-15076190D02*
X-24147780Y-14838095D01*
X-24147780Y-14838095D02*
X-24100161Y-14695238D01*
X-24147780Y-14409523D02*
X-24147780Y-13838095D01*
X-23147780Y-14123809D02*
X-24147780Y-14123809D01*
X-15671590Y-16457142D02*
X-15623971Y-16314285D01*
X-15623971Y-16314285D02*
X-15576352Y-16266666D01*
X-15576352Y-16266666D02*
X-15481114Y-16219047D01*
X-15481114Y-16219047D02*
X-15338257Y-16219047D01*
X-15338257Y-16219047D02*
X-15243019Y-16266666D01*
X-15243019Y-16266666D02*
X-15195400Y-16314285D01*
X-15195400Y-16314285D02*
X-15147780Y-16409523D01*
X-15147780Y-16409523D02*
X-15147780Y-16790475D01*
X-15147780Y-16790475D02*
X-16147780Y-16790475D01*
X-16147780Y-16790475D02*
X-16147780Y-16457142D01*
X-16147780Y-16457142D02*
X-16100161Y-16361904D01*
X-16100161Y-16361904D02*
X-16052542Y-16314285D01*
X-16052542Y-16314285D02*
X-15957304Y-16266666D01*
X-15957304Y-16266666D02*
X-15862066Y-16266666D01*
X-15862066Y-16266666D02*
X-15766828Y-16314285D01*
X-15766828Y-16314285D02*
X-15719209Y-16361904D01*
X-15719209Y-16361904D02*
X-15671590Y-16457142D01*
X-15671590Y-16457142D02*
X-15671590Y-16790475D01*
X-16147780Y-15599999D02*
X-16147780Y-15409523D01*
X-16147780Y-15409523D02*
X-16100161Y-15314285D01*
X-16100161Y-15314285D02*
X-16004923Y-15219047D01*
X-16004923Y-15219047D02*
X-15814447Y-15171428D01*
X-15814447Y-15171428D02*
X-15481114Y-15171428D01*
X-15481114Y-15171428D02*
X-15290638Y-15219047D01*
X-15290638Y-15219047D02*
X-15195400Y-15314285D01*
X-15195400Y-15314285D02*
X-15147780Y-15409523D01*
X-15147780Y-15409523D02*
X-15147780Y-15599999D01*
X-15147780Y-15599999D02*
X-15195400Y-15695237D01*
X-15195400Y-15695237D02*
X-15290638Y-15790475D01*
X-15290638Y-15790475D02*
X-15481114Y-15838094D01*
X-15481114Y-15838094D02*
X-15814447Y-15838094D01*
X-15814447Y-15838094D02*
X-16004923Y-15790475D01*
X-16004923Y-15790475D02*
X-16100161Y-15695237D01*
X-16100161Y-15695237D02*
X-16147780Y-15599999D01*
X-16147780Y-14552380D02*
X-16147780Y-14361904D01*
X-16147780Y-14361904D02*
X-16100161Y-14266666D01*
X-16100161Y-14266666D02*
X-16004923Y-14171428D01*
X-16004923Y-14171428D02*
X-15814447Y-14123809D01*
X-15814447Y-14123809D02*
X-15481114Y-14123809D01*
X-15481114Y-14123809D02*
X-15290638Y-14171428D01*
X-15290638Y-14171428D02*
X-15195400Y-14266666D01*
X-15195400Y-14266666D02*
X-15147780Y-14361904D01*
X-15147780Y-14361904D02*
X-15147780Y-14552380D01*
X-15147780Y-14552380D02*
X-15195400Y-14647618D01*
X-15195400Y-14647618D02*
X-15290638Y-14742856D01*
X-15290638Y-14742856D02*
X-15481114Y-14790475D01*
X-15481114Y-14790475D02*
X-15814447Y-14790475D01*
X-15814447Y-14790475D02*
X-16004923Y-14742856D01*
X-16004923Y-14742856D02*
X-16100161Y-14647618D01*
X-16100161Y-14647618D02*
X-16147780Y-14552380D01*
X-16147780Y-13838094D02*
X-16147780Y-13266666D01*
X-15147780Y-13552380D02*
X-16147780Y-13552380D01*
D11*
X-7970936Y-18919048D02*
X-8770936Y-18919048D01*
X-8770936Y-18919048D02*
X-8199508Y-18652382D01*
X-8199508Y-18652382D02*
X-8770936Y-18385715D01*
X-8770936Y-18385715D02*
X-7970936Y-18385715D01*
X-7970936Y-18004762D02*
X-8770936Y-18004762D01*
X-7970936Y-17547619D02*
X-8428079Y-17890477D01*
X-8770936Y-17547619D02*
X-8313793Y-18004762D01*
X-8504270Y-16861905D02*
X-7970936Y-16861905D01*
X-8809032Y-17052381D02*
X-8237603Y-17242858D01*
X-8237603Y-17242858D02*
X-8237603Y-16747619D01*
X-8770936Y-16290476D02*
X-8770936Y-16214286D01*
X-8770936Y-16214286D02*
X-8732841Y-16138095D01*
X-8732841Y-16138095D02*
X-8694746Y-16100000D01*
X-8694746Y-16100000D02*
X-8618555Y-16061905D01*
X-8618555Y-16061905D02*
X-8466174Y-16023810D01*
X-8466174Y-16023810D02*
X-8275698Y-16023810D01*
X-8275698Y-16023810D02*
X-8123317Y-16061905D01*
X-8123317Y-16061905D02*
X-8047127Y-16100000D01*
X-8047127Y-16100000D02*
X-8009032Y-16138095D01*
X-8009032Y-16138095D02*
X-7970936Y-16214286D01*
X-7970936Y-16214286D02*
X-7970936Y-16290476D01*
X-7970936Y-16290476D02*
X-8009032Y-16366667D01*
X-8009032Y-16366667D02*
X-8047127Y-16404762D01*
X-8047127Y-16404762D02*
X-8123317Y-16442857D01*
X-8123317Y-16442857D02*
X-8275698Y-16480953D01*
X-8275698Y-16480953D02*
X-8466174Y-16480953D01*
X-8466174Y-16480953D02*
X-8618555Y-16442857D01*
X-8618555Y-16442857D02*
X-8694746Y-16404762D01*
X-8694746Y-16404762D02*
X-8732841Y-16366667D01*
X-8732841Y-16366667D02*
X-8770936Y-16290476D01*
X-8770936Y-15528571D02*
X-8770936Y-15452381D01*
X-8770936Y-15452381D02*
X-8732841Y-15376190D01*
X-8732841Y-15376190D02*
X-8694746Y-15338095D01*
X-8694746Y-15338095D02*
X-8618555Y-15300000D01*
X-8618555Y-15300000D02*
X-8466174Y-15261905D01*
X-8466174Y-15261905D02*
X-8275698Y-15261905D01*
X-8275698Y-15261905D02*
X-8123317Y-15300000D01*
X-8123317Y-15300000D02*
X-8047127Y-15338095D01*
X-8047127Y-15338095D02*
X-8009032Y-15376190D01*
X-8009032Y-15376190D02*
X-7970936Y-15452381D01*
X-7970936Y-15452381D02*
X-7970936Y-15528571D01*
X-7970936Y-15528571D02*
X-8009032Y-15604762D01*
X-8009032Y-15604762D02*
X-8047127Y-15642857D01*
X-8047127Y-15642857D02*
X-8123317Y-15680952D01*
X-8123317Y-15680952D02*
X-8275698Y-15719048D01*
X-8275698Y-15719048D02*
X-8466174Y-15719048D01*
X-8466174Y-15719048D02*
X-8618555Y-15680952D01*
X-8618555Y-15680952D02*
X-8694746Y-15642857D01*
X-8694746Y-15642857D02*
X-8732841Y-15604762D01*
X-8732841Y-15604762D02*
X-8770936Y-15528571D01*
X-7970936Y-14500000D02*
X-7970936Y-14957143D01*
X-7970936Y-14728571D02*
X-8770936Y-14728571D01*
X-8770936Y-14728571D02*
X-8656651Y-14804762D01*
X-8656651Y-14804762D02*
X-8580460Y-14880952D01*
X-8580460Y-14880952D02*
X-8542365Y-14957143D01*
X-7970936Y-14157142D02*
X-8770936Y-14157142D01*
X-8770936Y-14157142D02*
X-8199508Y-13890476D01*
X-8199508Y-13890476D02*
X-8770936Y-13623809D01*
X-8770936Y-13623809D02*
X-7970936Y-13623809D01*
X-8770936Y-13357142D02*
X-8770936Y-12899999D01*
X-7970936Y-13128571D02*
X-8770936Y-13128571D01*
X-7970936Y-12633332D02*
X-8770936Y-12633332D01*
X-8770936Y-12633332D02*
X-8770936Y-12442856D01*
X-8770936Y-12442856D02*
X-8732841Y-12328570D01*
X-8732841Y-12328570D02*
X-8656651Y-12252380D01*
X-8656651Y-12252380D02*
X-8580460Y-12214285D01*
X-8580460Y-12214285D02*
X-8428079Y-12176189D01*
X-8428079Y-12176189D02*
X-8313793Y-12176189D01*
X-8313793Y-12176189D02*
X-8161412Y-12214285D01*
X-8161412Y-12214285D02*
X-8085222Y-12252380D01*
X-8085222Y-12252380D02*
X-8009032Y-12328570D01*
X-8009032Y-12328570D02*
X-7970936Y-12442856D01*
X-7970936Y-12442856D02*
X-7970936Y-12633332D01*
X-8770936Y-11223808D02*
X-8123317Y-11223808D01*
X-8123317Y-11223808D02*
X-8047127Y-11185713D01*
X-8047127Y-11185713D02*
X-8009032Y-11147618D01*
X-8009032Y-11147618D02*
X-7970936Y-11071427D01*
X-7970936Y-11071427D02*
X-7970936Y-10919046D01*
X-7970936Y-10919046D02*
X-8009032Y-10842856D01*
X-8009032Y-10842856D02*
X-8047127Y-10804761D01*
X-8047127Y-10804761D02*
X-8123317Y-10766665D01*
X-8123317Y-10766665D02*
X-8770936Y-10766665D01*
X-8009032Y-10423809D02*
X-7970936Y-10309523D01*
X-7970936Y-10309523D02*
X-7970936Y-10119047D01*
X-7970936Y-10119047D02*
X-8009032Y-10042856D01*
X-8009032Y-10042856D02*
X-8047127Y-10004761D01*
X-8047127Y-10004761D02*
X-8123317Y-9966666D01*
X-8123317Y-9966666D02*
X-8199508Y-9966666D01*
X-8199508Y-9966666D02*
X-8275698Y-10004761D01*
X-8275698Y-10004761D02*
X-8313793Y-10042856D01*
X-8313793Y-10042856D02*
X-8351889Y-10119047D01*
X-8351889Y-10119047D02*
X-8389984Y-10271428D01*
X-8389984Y-10271428D02*
X-8428079Y-10347618D01*
X-8428079Y-10347618D02*
X-8466174Y-10385713D01*
X-8466174Y-10385713D02*
X-8542365Y-10423809D01*
X-8542365Y-10423809D02*
X-8618555Y-10423809D01*
X-8618555Y-10423809D02*
X-8694746Y-10385713D01*
X-8694746Y-10385713D02*
X-8732841Y-10347618D01*
X-8732841Y-10347618D02*
X-8770936Y-10271428D01*
X-8770936Y-10271428D02*
X-8770936Y-10080951D01*
X-8770936Y-10080951D02*
X-8732841Y-9966666D01*
X-8389984Y-9357142D02*
X-8351889Y-9242856D01*
X-8351889Y-9242856D02*
X-8313793Y-9204761D01*
X-8313793Y-9204761D02*
X-8237603Y-9166665D01*
X-8237603Y-9166665D02*
X-8123317Y-9166665D01*
X-8123317Y-9166665D02*
X-8047127Y-9204761D01*
X-8047127Y-9204761D02*
X-8009032Y-9242856D01*
X-8009032Y-9242856D02*
X-7970936Y-9319046D01*
X-7970936Y-9319046D02*
X-7970936Y-9623808D01*
X-7970936Y-9623808D02*
X-8770936Y-9623808D01*
X-8770936Y-9623808D02*
X-8770936Y-9357142D01*
X-8770936Y-9357142D02*
X-8732841Y-9280951D01*
X-8732841Y-9280951D02*
X-8694746Y-9242856D01*
X-8694746Y-9242856D02*
X-8618555Y-9204761D01*
X-8618555Y-9204761D02*
X-8542365Y-9204761D01*
X-8542365Y-9204761D02*
X-8466174Y-9242856D01*
X-8466174Y-9242856D02*
X-8428079Y-9280951D01*
X-8428079Y-9280951D02*
X-8389984Y-9357142D01*
X-8389984Y-9357142D02*
X-8389984Y-9623808D01*
X-7970936Y-7757141D02*
X-8351889Y-8023808D01*
X-7970936Y-8214284D02*
X-8770936Y-8214284D01*
X-8770936Y-8214284D02*
X-8770936Y-7909522D01*
X-8770936Y-7909522D02*
X-8732841Y-7833332D01*
X-8732841Y-7833332D02*
X-8694746Y-7795237D01*
X-8694746Y-7795237D02*
X-8618555Y-7757141D01*
X-8618555Y-7757141D02*
X-8504270Y-7757141D01*
X-8504270Y-7757141D02*
X-8428079Y-7795237D01*
X-8428079Y-7795237D02*
X-8389984Y-7833332D01*
X-8389984Y-7833332D02*
X-8351889Y-7909522D01*
X-8351889Y-7909522D02*
X-8351889Y-8214284D01*
X-8009032Y-7109522D02*
X-7970936Y-7185713D01*
X-7970936Y-7185713D02*
X-7970936Y-7338094D01*
X-7970936Y-7338094D02*
X-8009032Y-7414284D01*
X-8009032Y-7414284D02*
X-8085222Y-7452380D01*
X-8085222Y-7452380D02*
X-8389984Y-7452380D01*
X-8389984Y-7452380D02*
X-8466174Y-7414284D01*
X-8466174Y-7414284D02*
X-8504270Y-7338094D01*
X-8504270Y-7338094D02*
X-8504270Y-7185713D01*
X-8504270Y-7185713D02*
X-8466174Y-7109522D01*
X-8466174Y-7109522D02*
X-8389984Y-7071427D01*
X-8389984Y-7071427D02*
X-8313793Y-7071427D01*
X-8313793Y-7071427D02*
X-8237603Y-7452380D01*
X-7970936Y-6385713D02*
X-8389984Y-6385713D01*
X-8389984Y-6385713D02*
X-8466174Y-6423808D01*
X-8466174Y-6423808D02*
X-8504270Y-6499999D01*
X-8504270Y-6499999D02*
X-8504270Y-6652380D01*
X-8504270Y-6652380D02*
X-8466174Y-6728570D01*
X-8009032Y-6385713D02*
X-7970936Y-6461904D01*
X-7970936Y-6461904D02*
X-7970936Y-6652380D01*
X-7970936Y-6652380D02*
X-8009032Y-6728570D01*
X-8009032Y-6728570D02*
X-8085222Y-6766666D01*
X-8085222Y-6766666D02*
X-8161412Y-6766666D01*
X-8161412Y-6766666D02*
X-8237603Y-6728570D01*
X-8237603Y-6728570D02*
X-8275698Y-6652380D01*
X-8275698Y-6652380D02*
X-8275698Y-6461904D01*
X-8275698Y-6461904D02*
X-8313793Y-6385713D01*
X-7970936Y-5661903D02*
X-8770936Y-5661903D01*
X-8009032Y-5661903D02*
X-7970936Y-5738094D01*
X-7970936Y-5738094D02*
X-7970936Y-5890475D01*
X-7970936Y-5890475D02*
X-8009032Y-5966665D01*
X-8009032Y-5966665D02*
X-8047127Y-6004760D01*
X-8047127Y-6004760D02*
X-8123317Y-6042856D01*
X-8123317Y-6042856D02*
X-8351889Y-6042856D01*
X-8351889Y-6042856D02*
X-8428079Y-6004760D01*
X-8428079Y-6004760D02*
X-8466174Y-5966665D01*
X-8466174Y-5966665D02*
X-8504270Y-5890475D01*
X-8504270Y-5890475D02*
X-8504270Y-5738094D01*
X-8504270Y-5738094D02*
X-8466174Y-5661903D01*
X-8009032Y-4976188D02*
X-7970936Y-5052379D01*
X-7970936Y-5052379D02*
X-7970936Y-5204760D01*
X-7970936Y-5204760D02*
X-8009032Y-5280950D01*
X-8009032Y-5280950D02*
X-8085222Y-5319046D01*
X-8085222Y-5319046D02*
X-8389984Y-5319046D01*
X-8389984Y-5319046D02*
X-8466174Y-5280950D01*
X-8466174Y-5280950D02*
X-8504270Y-5204760D01*
X-8504270Y-5204760D02*
X-8504270Y-5052379D01*
X-8504270Y-5052379D02*
X-8466174Y-4976188D01*
X-8466174Y-4976188D02*
X-8389984Y-4938093D01*
X-8389984Y-4938093D02*
X-8313793Y-4938093D01*
X-8313793Y-4938093D02*
X-8237603Y-5319046D01*
X-7970936Y-4595236D02*
X-8504270Y-4595236D01*
X-8351889Y-4595236D02*
X-8428079Y-4557141D01*
X-8428079Y-4557141D02*
X-8466174Y-4519046D01*
X-8466174Y-4519046D02*
X-8504270Y-4442855D01*
X-8504270Y-4442855D02*
X-8504270Y-4366665D01*
X-6682981Y-18442858D02*
X-7482981Y-18442858D01*
X-7482981Y-18442858D02*
X-7482981Y-18252382D01*
X-7482981Y-18252382D02*
X-7444886Y-18138096D01*
X-7444886Y-18138096D02*
X-7368696Y-18061906D01*
X-7368696Y-18061906D02*
X-7292505Y-18023811D01*
X-7292505Y-18023811D02*
X-7140124Y-17985715D01*
X-7140124Y-17985715D02*
X-7025838Y-17985715D01*
X-7025838Y-17985715D02*
X-6873457Y-18023811D01*
X-6873457Y-18023811D02*
X-6797267Y-18061906D01*
X-6797267Y-18061906D02*
X-6721077Y-18138096D01*
X-6721077Y-18138096D02*
X-6682981Y-18252382D01*
X-6682981Y-18252382D02*
X-6682981Y-18442858D01*
X-6721077Y-17338096D02*
X-6682981Y-17414287D01*
X-6682981Y-17414287D02*
X-6682981Y-17566668D01*
X-6682981Y-17566668D02*
X-6721077Y-17642858D01*
X-6721077Y-17642858D02*
X-6797267Y-17680954D01*
X-6797267Y-17680954D02*
X-7102029Y-17680954D01*
X-7102029Y-17680954D02*
X-7178219Y-17642858D01*
X-7178219Y-17642858D02*
X-7216315Y-17566668D01*
X-7216315Y-17566668D02*
X-7216315Y-17414287D01*
X-7216315Y-17414287D02*
X-7178219Y-17338096D01*
X-7178219Y-17338096D02*
X-7102029Y-17300001D01*
X-7102029Y-17300001D02*
X-7025838Y-17300001D01*
X-7025838Y-17300001D02*
X-6949648Y-17680954D01*
X-6721077Y-16995240D02*
X-6682981Y-16919049D01*
X-6682981Y-16919049D02*
X-6682981Y-16766668D01*
X-6682981Y-16766668D02*
X-6721077Y-16690478D01*
X-6721077Y-16690478D02*
X-6797267Y-16652382D01*
X-6797267Y-16652382D02*
X-6835362Y-16652382D01*
X-6835362Y-16652382D02*
X-6911553Y-16690478D01*
X-6911553Y-16690478D02*
X-6949648Y-16766668D01*
X-6949648Y-16766668D02*
X-6949648Y-16880954D01*
X-6949648Y-16880954D02*
X-6987743Y-16957144D01*
X-6987743Y-16957144D02*
X-7063934Y-16995240D01*
X-7063934Y-16995240D02*
X-7102029Y-16995240D01*
X-7102029Y-16995240D02*
X-7178219Y-16957144D01*
X-7178219Y-16957144D02*
X-7216315Y-16880954D01*
X-7216315Y-16880954D02*
X-7216315Y-16766668D01*
X-7216315Y-16766668D02*
X-7178219Y-16690478D01*
X-6682981Y-16309525D02*
X-7216315Y-16309525D01*
X-7482981Y-16309525D02*
X-7444886Y-16347621D01*
X-7444886Y-16347621D02*
X-7406791Y-16309525D01*
X-7406791Y-16309525D02*
X-7444886Y-16271430D01*
X-7444886Y-16271430D02*
X-7482981Y-16309525D01*
X-7482981Y-16309525D02*
X-7406791Y-16309525D01*
X-7216315Y-15585716D02*
X-6568696Y-15585716D01*
X-6568696Y-15585716D02*
X-6492505Y-15623811D01*
X-6492505Y-15623811D02*
X-6454410Y-15661907D01*
X-6454410Y-15661907D02*
X-6416315Y-15738097D01*
X-6416315Y-15738097D02*
X-6416315Y-15852383D01*
X-6416315Y-15852383D02*
X-6454410Y-15928573D01*
X-6721077Y-15585716D02*
X-6682981Y-15661907D01*
X-6682981Y-15661907D02*
X-6682981Y-15814288D01*
X-6682981Y-15814288D02*
X-6721077Y-15890478D01*
X-6721077Y-15890478D02*
X-6759172Y-15928573D01*
X-6759172Y-15928573D02*
X-6835362Y-15966669D01*
X-6835362Y-15966669D02*
X-7063934Y-15966669D01*
X-7063934Y-15966669D02*
X-7140124Y-15928573D01*
X-7140124Y-15928573D02*
X-7178219Y-15890478D01*
X-7178219Y-15890478D02*
X-7216315Y-15814288D01*
X-7216315Y-15814288D02*
X-7216315Y-15661907D01*
X-7216315Y-15661907D02*
X-7178219Y-15585716D01*
X-7216315Y-15204763D02*
X-6682981Y-15204763D01*
X-7140124Y-15204763D02*
X-7178219Y-15166668D01*
X-7178219Y-15166668D02*
X-7216315Y-15090478D01*
X-7216315Y-15090478D02*
X-7216315Y-14976192D01*
X-7216315Y-14976192D02*
X-7178219Y-14900001D01*
X-7178219Y-14900001D02*
X-7102029Y-14861906D01*
X-7102029Y-14861906D02*
X-6682981Y-14861906D01*
X-6721077Y-14176191D02*
X-6682981Y-14252382D01*
X-6682981Y-14252382D02*
X-6682981Y-14404763D01*
X-6682981Y-14404763D02*
X-6721077Y-14480953D01*
X-6721077Y-14480953D02*
X-6797267Y-14519049D01*
X-6797267Y-14519049D02*
X-7102029Y-14519049D01*
X-7102029Y-14519049D02*
X-7178219Y-14480953D01*
X-7178219Y-14480953D02*
X-7216315Y-14404763D01*
X-7216315Y-14404763D02*
X-7216315Y-14252382D01*
X-7216315Y-14252382D02*
X-7178219Y-14176191D01*
X-7178219Y-14176191D02*
X-7102029Y-14138096D01*
X-7102029Y-14138096D02*
X-7025838Y-14138096D01*
X-7025838Y-14138096D02*
X-6949648Y-14519049D01*
X-6682981Y-13452382D02*
X-7482981Y-13452382D01*
X-6721077Y-13452382D02*
X-6682981Y-13528573D01*
X-6682981Y-13528573D02*
X-6682981Y-13680954D01*
X-6682981Y-13680954D02*
X-6721077Y-13757144D01*
X-6721077Y-13757144D02*
X-6759172Y-13795239D01*
X-6759172Y-13795239D02*
X-6835362Y-13833335D01*
X-6835362Y-13833335D02*
X-7063934Y-13833335D01*
X-7063934Y-13833335D02*
X-7140124Y-13795239D01*
X-7140124Y-13795239D02*
X-7178219Y-13757144D01*
X-7178219Y-13757144D02*
X-7216315Y-13680954D01*
X-7216315Y-13680954D02*
X-7216315Y-13528573D01*
X-7216315Y-13528573D02*
X-7178219Y-13452382D01*
X-6682981Y-12461905D02*
X-7482981Y-12461905D01*
X-7178219Y-12461905D02*
X-7216315Y-12385715D01*
X-7216315Y-12385715D02*
X-7216315Y-12233334D01*
X-7216315Y-12233334D02*
X-7178219Y-12157143D01*
X-7178219Y-12157143D02*
X-7140124Y-12119048D01*
X-7140124Y-12119048D02*
X-7063934Y-12080953D01*
X-7063934Y-12080953D02*
X-6835362Y-12080953D01*
X-6835362Y-12080953D02*
X-6759172Y-12119048D01*
X-6759172Y-12119048D02*
X-6721077Y-12157143D01*
X-6721077Y-12157143D02*
X-6682981Y-12233334D01*
X-6682981Y-12233334D02*
X-6682981Y-12385715D01*
X-6682981Y-12385715D02*
X-6721077Y-12461905D01*
X-7216315Y-11814286D02*
X-6682981Y-11623810D01*
X-7216315Y-11433333D02*
X-6682981Y-11623810D01*
X-6682981Y-11623810D02*
X-6492505Y-11700000D01*
X-6492505Y-11700000D02*
X-6454410Y-11738095D01*
X-6454410Y-11738095D02*
X-6416315Y-11814286D01*
X-7482981Y-10595238D02*
X-6682981Y-10404762D01*
X-6682981Y-10404762D02*
X-7254410Y-10252381D01*
X-7254410Y-10252381D02*
X-6682981Y-10100000D01*
X-6682981Y-10100000D02*
X-7482981Y-9909524D01*
X-6682981Y-9604761D02*
X-7216315Y-9604761D01*
X-7482981Y-9604761D02*
X-7444886Y-9642857D01*
X-7444886Y-9642857D02*
X-7406791Y-9604761D01*
X-7406791Y-9604761D02*
X-7444886Y-9566666D01*
X-7444886Y-9566666D02*
X-7482981Y-9604761D01*
X-7482981Y-9604761D02*
X-7406791Y-9604761D01*
X-6682981Y-9109524D02*
X-6721077Y-9185714D01*
X-6721077Y-9185714D02*
X-6797267Y-9223809D01*
X-6797267Y-9223809D02*
X-7482981Y-9223809D01*
X-6682981Y-8690476D02*
X-6721077Y-8766666D01*
X-6721077Y-8766666D02*
X-6797267Y-8804761D01*
X-6797267Y-8804761D02*
X-7482981Y-8804761D01*
X-7482981Y-8461904D02*
X-6682981Y-8271428D01*
X-6682981Y-8271428D02*
X-7254410Y-8119047D01*
X-7254410Y-8119047D02*
X-6682981Y-7966666D01*
X-6682981Y-7966666D02*
X-7482981Y-7776190D01*
X-6682981Y-7471427D02*
X-7482981Y-7471427D01*
X-6682981Y-7128570D02*
X-7102029Y-7128570D01*
X-7102029Y-7128570D02*
X-7178219Y-7166665D01*
X-7178219Y-7166665D02*
X-7216315Y-7242856D01*
X-7216315Y-7242856D02*
X-7216315Y-7357142D01*
X-7216315Y-7357142D02*
X-7178219Y-7433332D01*
X-7178219Y-7433332D02*
X-7140124Y-7471427D01*
X-6682981Y-6404760D02*
X-7102029Y-6404760D01*
X-7102029Y-6404760D02*
X-7178219Y-6442855D01*
X-7178219Y-6442855D02*
X-7216315Y-6519046D01*
X-7216315Y-6519046D02*
X-7216315Y-6671427D01*
X-7216315Y-6671427D02*
X-7178219Y-6747617D01*
X-6721077Y-6404760D02*
X-6682981Y-6480951D01*
X-6682981Y-6480951D02*
X-6682981Y-6671427D01*
X-6682981Y-6671427D02*
X-6721077Y-6747617D01*
X-6721077Y-6747617D02*
X-6797267Y-6785713D01*
X-6797267Y-6785713D02*
X-6873457Y-6785713D01*
X-6873457Y-6785713D02*
X-6949648Y-6747617D01*
X-6949648Y-6747617D02*
X-6987743Y-6671427D01*
X-6987743Y-6671427D02*
X-6987743Y-6480951D01*
X-6987743Y-6480951D02*
X-7025838Y-6404760D01*
X-7216315Y-6023807D02*
X-6682981Y-6023807D01*
X-7140124Y-6023807D02*
X-7178219Y-5985712D01*
X-7178219Y-5985712D02*
X-7216315Y-5909522D01*
X-7216315Y-5909522D02*
X-7216315Y-5795236D01*
X-7216315Y-5795236D02*
X-7178219Y-5719045D01*
X-7178219Y-5719045D02*
X-7102029Y-5680950D01*
X-7102029Y-5680950D02*
X-6682981Y-5680950D01*
X-7216315Y-4957140D02*
X-6568696Y-4957140D01*
X-6568696Y-4957140D02*
X-6492505Y-4995235D01*
X-6492505Y-4995235D02*
X-6454410Y-5033331D01*
X-6454410Y-5033331D02*
X-6416315Y-5109521D01*
X-6416315Y-5109521D02*
X-6416315Y-5223807D01*
X-6416315Y-5223807D02*
X-6454410Y-5299997D01*
X-6721077Y-4957140D02*
X-6682981Y-5033331D01*
X-6682981Y-5033331D02*
X-6682981Y-5185712D01*
X-6682981Y-5185712D02*
X-6721077Y-5261902D01*
X-6721077Y-5261902D02*
X-6759172Y-5299997D01*
X-6759172Y-5299997D02*
X-6835362Y-5338093D01*
X-6835362Y-5338093D02*
X-7063934Y-5338093D01*
X-7063934Y-5338093D02*
X-7140124Y-5299997D01*
X-7140124Y-5299997D02*
X-7178219Y-5261902D01*
X-7178219Y-5261902D02*
X-7216315Y-5185712D01*
X-7216315Y-5185712D02*
X-7216315Y-5033331D01*
X-7216315Y-5033331D02*
X-7178219Y-4957140D01*
X-5471217Y-17033334D02*
X-5433122Y-17071430D01*
X-5433122Y-17071430D02*
X-5395026Y-17185715D01*
X-5395026Y-17185715D02*
X-5395026Y-17261906D01*
X-5395026Y-17261906D02*
X-5433122Y-17376192D01*
X-5433122Y-17376192D02*
X-5509312Y-17452382D01*
X-5509312Y-17452382D02*
X-5585502Y-17490477D01*
X-5585502Y-17490477D02*
X-5737883Y-17528573D01*
X-5737883Y-17528573D02*
X-5852169Y-17528573D01*
X-5852169Y-17528573D02*
X-6004550Y-17490477D01*
X-6004550Y-17490477D02*
X-6080741Y-17452382D01*
X-6080741Y-17452382D02*
X-6156931Y-17376192D01*
X-6156931Y-17376192D02*
X-6195026Y-17261906D01*
X-6195026Y-17261906D02*
X-6195026Y-17185715D01*
X-6195026Y-17185715D02*
X-6156931Y-17071430D01*
X-6156931Y-17071430D02*
X-6118836Y-17033334D01*
X-5395026Y-16576192D02*
X-5433122Y-16652382D01*
X-5433122Y-16652382D02*
X-5471217Y-16690477D01*
X-5471217Y-16690477D02*
X-5547407Y-16728573D01*
X-5547407Y-16728573D02*
X-5775979Y-16728573D01*
X-5775979Y-16728573D02*
X-5852169Y-16690477D01*
X-5852169Y-16690477D02*
X-5890264Y-16652382D01*
X-5890264Y-16652382D02*
X-5928360Y-16576192D01*
X-5928360Y-16576192D02*
X-5928360Y-16461906D01*
X-5928360Y-16461906D02*
X-5890264Y-16385715D01*
X-5890264Y-16385715D02*
X-5852169Y-16347620D01*
X-5852169Y-16347620D02*
X-5775979Y-16309525D01*
X-5775979Y-16309525D02*
X-5547407Y-16309525D01*
X-5547407Y-16309525D02*
X-5471217Y-16347620D01*
X-5471217Y-16347620D02*
X-5433122Y-16385715D01*
X-5433122Y-16385715D02*
X-5395026Y-16461906D01*
X-5395026Y-16461906D02*
X-5395026Y-16576192D01*
X-5395026Y-15623810D02*
X-6195026Y-15623810D01*
X-5433122Y-15623810D02*
X-5395026Y-15700001D01*
X-5395026Y-15700001D02*
X-5395026Y-15852382D01*
X-5395026Y-15852382D02*
X-5433122Y-15928572D01*
X-5433122Y-15928572D02*
X-5471217Y-15966667D01*
X-5471217Y-15966667D02*
X-5547407Y-16004763D01*
X-5547407Y-16004763D02*
X-5775979Y-16004763D01*
X-5775979Y-16004763D02*
X-5852169Y-15966667D01*
X-5852169Y-15966667D02*
X-5890264Y-15928572D01*
X-5890264Y-15928572D02*
X-5928360Y-15852382D01*
X-5928360Y-15852382D02*
X-5928360Y-15700001D01*
X-5928360Y-15700001D02*
X-5890264Y-15623810D01*
X-5433122Y-14938095D02*
X-5395026Y-15014286D01*
X-5395026Y-15014286D02*
X-5395026Y-15166667D01*
X-5395026Y-15166667D02*
X-5433122Y-15242857D01*
X-5433122Y-15242857D02*
X-5509312Y-15280953D01*
X-5509312Y-15280953D02*
X-5814074Y-15280953D01*
X-5814074Y-15280953D02*
X-5890264Y-15242857D01*
X-5890264Y-15242857D02*
X-5928360Y-15166667D01*
X-5928360Y-15166667D02*
X-5928360Y-15014286D01*
X-5928360Y-15014286D02*
X-5890264Y-14938095D01*
X-5890264Y-14938095D02*
X-5814074Y-14900000D01*
X-5814074Y-14900000D02*
X-5737883Y-14900000D01*
X-5737883Y-14900000D02*
X-5661693Y-15280953D01*
X-5395026Y-14214286D02*
X-6195026Y-14214286D01*
X-5433122Y-14214286D02*
X-5395026Y-14290477D01*
X-5395026Y-14290477D02*
X-5395026Y-14442858D01*
X-5395026Y-14442858D02*
X-5433122Y-14519048D01*
X-5433122Y-14519048D02*
X-5471217Y-14557143D01*
X-5471217Y-14557143D02*
X-5547407Y-14595239D01*
X-5547407Y-14595239D02*
X-5775979Y-14595239D01*
X-5775979Y-14595239D02*
X-5852169Y-14557143D01*
X-5852169Y-14557143D02*
X-5890264Y-14519048D01*
X-5890264Y-14519048D02*
X-5928360Y-14442858D01*
X-5928360Y-14442858D02*
X-5928360Y-14290477D01*
X-5928360Y-14290477D02*
X-5890264Y-14214286D01*
X-5395026Y-13223809D02*
X-6195026Y-13223809D01*
X-5890264Y-13223809D02*
X-5928360Y-13147619D01*
X-5928360Y-13147619D02*
X-5928360Y-12995238D01*
X-5928360Y-12995238D02*
X-5890264Y-12919047D01*
X-5890264Y-12919047D02*
X-5852169Y-12880952D01*
X-5852169Y-12880952D02*
X-5775979Y-12842857D01*
X-5775979Y-12842857D02*
X-5547407Y-12842857D01*
X-5547407Y-12842857D02*
X-5471217Y-12880952D01*
X-5471217Y-12880952D02*
X-5433122Y-12919047D01*
X-5433122Y-12919047D02*
X-5395026Y-12995238D01*
X-5395026Y-12995238D02*
X-5395026Y-13147619D01*
X-5395026Y-13147619D02*
X-5433122Y-13223809D01*
X-5928360Y-12576190D02*
X-5395026Y-12385714D01*
X-5928360Y-12195237D02*
X-5395026Y-12385714D01*
X-5395026Y-12385714D02*
X-5204550Y-12461904D01*
X-5204550Y-12461904D02*
X-5166455Y-12499999D01*
X-5166455Y-12499999D02*
X-5128360Y-12576190D01*
X-6195026Y-11128570D02*
X-6195026Y-10976189D01*
X-6195026Y-10976189D02*
X-6156931Y-10899999D01*
X-6156931Y-10899999D02*
X-6080741Y-10823808D01*
X-6080741Y-10823808D02*
X-5928360Y-10785713D01*
X-5928360Y-10785713D02*
X-5661693Y-10785713D01*
X-5661693Y-10785713D02*
X-5509312Y-10823808D01*
X-5509312Y-10823808D02*
X-5433122Y-10899999D01*
X-5433122Y-10899999D02*
X-5395026Y-10976189D01*
X-5395026Y-10976189D02*
X-5395026Y-11128570D01*
X-5395026Y-11128570D02*
X-5433122Y-11204761D01*
X-5433122Y-11204761D02*
X-5509312Y-11280951D01*
X-5509312Y-11280951D02*
X-5661693Y-11319047D01*
X-5661693Y-11319047D02*
X-5928360Y-11319047D01*
X-5928360Y-11319047D02*
X-6080741Y-11280951D01*
X-6080741Y-11280951D02*
X-6156931Y-11204761D01*
X-6156931Y-11204761D02*
X-6195026Y-11128570D01*
X-5928360Y-10442856D02*
X-5128360Y-10442856D01*
X-5890264Y-10442856D02*
X-5928360Y-10366666D01*
X-5928360Y-10366666D02*
X-5928360Y-10214285D01*
X-5928360Y-10214285D02*
X-5890264Y-10138094D01*
X-5890264Y-10138094D02*
X-5852169Y-10099999D01*
X-5852169Y-10099999D02*
X-5775979Y-10061904D01*
X-5775979Y-10061904D02*
X-5547407Y-10061904D01*
X-5547407Y-10061904D02*
X-5471217Y-10099999D01*
X-5471217Y-10099999D02*
X-5433122Y-10138094D01*
X-5433122Y-10138094D02*
X-5395026Y-10214285D01*
X-5395026Y-10214285D02*
X-5395026Y-10366666D01*
X-5395026Y-10366666D02*
X-5433122Y-10442856D01*
X-5433122Y-9414284D02*
X-5395026Y-9490475D01*
X-5395026Y-9490475D02*
X-5395026Y-9642856D01*
X-5395026Y-9642856D02*
X-5433122Y-9719046D01*
X-5433122Y-9719046D02*
X-5509312Y-9757142D01*
X-5509312Y-9757142D02*
X-5814074Y-9757142D01*
X-5814074Y-9757142D02*
X-5890264Y-9719046D01*
X-5890264Y-9719046D02*
X-5928360Y-9642856D01*
X-5928360Y-9642856D02*
X-5928360Y-9490475D01*
X-5928360Y-9490475D02*
X-5890264Y-9414284D01*
X-5890264Y-9414284D02*
X-5814074Y-9376189D01*
X-5814074Y-9376189D02*
X-5737883Y-9376189D01*
X-5737883Y-9376189D02*
X-5661693Y-9757142D01*
X-5928360Y-9033332D02*
X-5395026Y-9033332D01*
X-5852169Y-9033332D02*
X-5890264Y-8995237D01*
X-5890264Y-8995237D02*
X-5928360Y-8919047D01*
X-5928360Y-8919047D02*
X-5928360Y-8804761D01*
X-5928360Y-8804761D02*
X-5890264Y-8728570D01*
X-5890264Y-8728570D02*
X-5814074Y-8690475D01*
X-5814074Y-8690475D02*
X-5395026Y-8690475D01*
X-5471217Y-7852379D02*
X-5433122Y-7890475D01*
X-5433122Y-7890475D02*
X-5395026Y-8004760D01*
X-5395026Y-8004760D02*
X-5395026Y-8080951D01*
X-5395026Y-8080951D02*
X-5433122Y-8195237D01*
X-5433122Y-8195237D02*
X-5509312Y-8271427D01*
X-5509312Y-8271427D02*
X-5585502Y-8309522D01*
X-5585502Y-8309522D02*
X-5737883Y-8347618D01*
X-5737883Y-8347618D02*
X-5852169Y-8347618D01*
X-5852169Y-8347618D02*
X-6004550Y-8309522D01*
X-6004550Y-8309522D02*
X-6080741Y-8271427D01*
X-6080741Y-8271427D02*
X-6156931Y-8195237D01*
X-6156931Y-8195237D02*
X-6195026Y-8080951D01*
X-6195026Y-8080951D02*
X-6195026Y-8004760D01*
X-6195026Y-8004760D02*
X-6156931Y-7890475D01*
X-6156931Y-7890475D02*
X-6118836Y-7852379D01*
X-5395026Y-7395237D02*
X-5433122Y-7471427D01*
X-5433122Y-7471427D02*
X-5509312Y-7509522D01*
X-5509312Y-7509522D02*
X-6195026Y-7509522D01*
X-5395026Y-6747617D02*
X-5814074Y-6747617D01*
X-5814074Y-6747617D02*
X-5890264Y-6785712D01*
X-5890264Y-6785712D02*
X-5928360Y-6861903D01*
X-5928360Y-6861903D02*
X-5928360Y-7014284D01*
X-5928360Y-7014284D02*
X-5890264Y-7090474D01*
X-5433122Y-6747617D02*
X-5395026Y-6823808D01*
X-5395026Y-6823808D02*
X-5395026Y-7014284D01*
X-5395026Y-7014284D02*
X-5433122Y-7090474D01*
X-5433122Y-7090474D02*
X-5509312Y-7128570D01*
X-5509312Y-7128570D02*
X-5585502Y-7128570D01*
X-5585502Y-7128570D02*
X-5661693Y-7090474D01*
X-5661693Y-7090474D02*
X-5699788Y-7014284D01*
X-5699788Y-7014284D02*
X-5699788Y-6823808D01*
X-5699788Y-6823808D02*
X-5737883Y-6747617D01*
X-5928360Y-6442855D02*
X-5395026Y-6290474D01*
X-5395026Y-6290474D02*
X-5775979Y-6138093D01*
X-5775979Y-6138093D02*
X-5395026Y-5985712D01*
X-5395026Y-5985712D02*
X-5928360Y-5833331D01*
X-4830881Y-15433334D02*
X-4868976Y-15395238D01*
X-4868976Y-15395238D02*
X-4907071Y-15319048D01*
X-4907071Y-15319048D02*
X-4907071Y-15128572D01*
X-4907071Y-15128572D02*
X-4868976Y-15052381D01*
X-4868976Y-15052381D02*
X-4830881Y-15014286D01*
X-4830881Y-15014286D02*
X-4754690Y-14976191D01*
X-4754690Y-14976191D02*
X-4678500Y-14976191D01*
X-4678500Y-14976191D02*
X-4564214Y-15014286D01*
X-4564214Y-15014286D02*
X-4107071Y-15471429D01*
X-4107071Y-15471429D02*
X-4107071Y-14976191D01*
X-4907071Y-14480952D02*
X-4907071Y-14404762D01*
X-4907071Y-14404762D02*
X-4868976Y-14328571D01*
X-4868976Y-14328571D02*
X-4830881Y-14290476D01*
X-4830881Y-14290476D02*
X-4754690Y-14252381D01*
X-4754690Y-14252381D02*
X-4602309Y-14214286D01*
X-4602309Y-14214286D02*
X-4411833Y-14214286D01*
X-4411833Y-14214286D02*
X-4259452Y-14252381D01*
X-4259452Y-14252381D02*
X-4183262Y-14290476D01*
X-4183262Y-14290476D02*
X-4145167Y-14328571D01*
X-4145167Y-14328571D02*
X-4107071Y-14404762D01*
X-4107071Y-14404762D02*
X-4107071Y-14480952D01*
X-4107071Y-14480952D02*
X-4145167Y-14557143D01*
X-4145167Y-14557143D02*
X-4183262Y-14595238D01*
X-4183262Y-14595238D02*
X-4259452Y-14633333D01*
X-4259452Y-14633333D02*
X-4411833Y-14671429D01*
X-4411833Y-14671429D02*
X-4602309Y-14671429D01*
X-4602309Y-14671429D02*
X-4754690Y-14633333D01*
X-4754690Y-14633333D02*
X-4830881Y-14595238D01*
X-4830881Y-14595238D02*
X-4868976Y-14557143D01*
X-4868976Y-14557143D02*
X-4907071Y-14480952D01*
X-4830881Y-13909524D02*
X-4868976Y-13871428D01*
X-4868976Y-13871428D02*
X-4907071Y-13795238D01*
X-4907071Y-13795238D02*
X-4907071Y-13604762D01*
X-4907071Y-13604762D02*
X-4868976Y-13528571D01*
X-4868976Y-13528571D02*
X-4830881Y-13490476D01*
X-4830881Y-13490476D02*
X-4754690Y-13452381D01*
X-4754690Y-13452381D02*
X-4678500Y-13452381D01*
X-4678500Y-13452381D02*
X-4564214Y-13490476D01*
X-4564214Y-13490476D02*
X-4107071Y-13947619D01*
X-4107071Y-13947619D02*
X-4107071Y-13452381D01*
X-4907071Y-12766666D02*
X-4907071Y-12919047D01*
X-4907071Y-12919047D02*
X-4868976Y-12995238D01*
X-4868976Y-12995238D02*
X-4830881Y-13033333D01*
X-4830881Y-13033333D02*
X-4716595Y-13109523D01*
X-4716595Y-13109523D02*
X-4564214Y-13147619D01*
X-4564214Y-13147619D02*
X-4259452Y-13147619D01*
X-4259452Y-13147619D02*
X-4183262Y-13109523D01*
X-4183262Y-13109523D02*
X-4145167Y-13071428D01*
X-4145167Y-13071428D02*
X-4107071Y-12995238D01*
X-4107071Y-12995238D02*
X-4107071Y-12842857D01*
X-4107071Y-12842857D02*
X-4145167Y-12766666D01*
X-4145167Y-12766666D02*
X-4183262Y-12728571D01*
X-4183262Y-12728571D02*
X-4259452Y-12690476D01*
X-4259452Y-12690476D02*
X-4449928Y-12690476D01*
X-4449928Y-12690476D02*
X-4526119Y-12728571D01*
X-4526119Y-12728571D02*
X-4564214Y-12766666D01*
X-4564214Y-12766666D02*
X-4602309Y-12842857D01*
X-4602309Y-12842857D02*
X-4602309Y-12995238D01*
X-4602309Y-12995238D02*
X-4564214Y-13071428D01*
X-4564214Y-13071428D02*
X-4526119Y-13109523D01*
X-4526119Y-13109523D02*
X-4449928Y-13147619D01*
X-4945167Y-11776190D02*
X-3916595Y-12461904D01*
X-4907071Y-11357142D02*
X-4907071Y-11280952D01*
X-4907071Y-11280952D02*
X-4868976Y-11204761D01*
X-4868976Y-11204761D02*
X-4830881Y-11166666D01*
X-4830881Y-11166666D02*
X-4754690Y-11128571D01*
X-4754690Y-11128571D02*
X-4602309Y-11090476D01*
X-4602309Y-11090476D02*
X-4411833Y-11090476D01*
X-4411833Y-11090476D02*
X-4259452Y-11128571D01*
X-4259452Y-11128571D02*
X-4183262Y-11166666D01*
X-4183262Y-11166666D02*
X-4145167Y-11204761D01*
X-4145167Y-11204761D02*
X-4107071Y-11280952D01*
X-4107071Y-11280952D02*
X-4107071Y-11357142D01*
X-4107071Y-11357142D02*
X-4145167Y-11433333D01*
X-4145167Y-11433333D02*
X-4183262Y-11471428D01*
X-4183262Y-11471428D02*
X-4259452Y-11509523D01*
X-4259452Y-11509523D02*
X-4411833Y-11547619D01*
X-4411833Y-11547619D02*
X-4602309Y-11547619D01*
X-4602309Y-11547619D02*
X-4754690Y-11509523D01*
X-4754690Y-11509523D02*
X-4830881Y-11471428D01*
X-4830881Y-11471428D02*
X-4868976Y-11433333D01*
X-4868976Y-11433333D02*
X-4907071Y-11357142D01*
X-4830881Y-10785714D02*
X-4868976Y-10747618D01*
X-4868976Y-10747618D02*
X-4907071Y-10671428D01*
X-4907071Y-10671428D02*
X-4907071Y-10480952D01*
X-4907071Y-10480952D02*
X-4868976Y-10404761D01*
X-4868976Y-10404761D02*
X-4830881Y-10366666D01*
X-4830881Y-10366666D02*
X-4754690Y-10328571D01*
X-4754690Y-10328571D02*
X-4678500Y-10328571D01*
X-4678500Y-10328571D02*
X-4564214Y-10366666D01*
X-4564214Y-10366666D02*
X-4107071Y-10823809D01*
X-4107071Y-10823809D02*
X-4107071Y-10328571D01*
X-4945167Y-9414285D02*
X-3916595Y-10099999D01*
X-4830881Y-9185714D02*
X-4868976Y-9147618D01*
X-4868976Y-9147618D02*
X-4907071Y-9071428D01*
X-4907071Y-9071428D02*
X-4907071Y-8880952D01*
X-4907071Y-8880952D02*
X-4868976Y-8804761D01*
X-4868976Y-8804761D02*
X-4830881Y-8766666D01*
X-4830881Y-8766666D02*
X-4754690Y-8728571D01*
X-4754690Y-8728571D02*
X-4678500Y-8728571D01*
X-4678500Y-8728571D02*
X-4564214Y-8766666D01*
X-4564214Y-8766666D02*
X-4107071Y-9223809D01*
X-4107071Y-9223809D02*
X-4107071Y-8728571D01*
X-4907071Y-8461904D02*
X-4907071Y-7928570D01*
X-4907071Y-7928570D02*
X-4107071Y-8271428D01*
D12*
X-30947780Y11209524D02*
X-29947780Y11447619D01*
X-29947780Y11447619D02*
X-30662066Y11638095D01*
X-30662066Y11638095D02*
X-29947780Y11828571D01*
X-29947780Y11828571D02*
X-30947780Y12066667D01*
X-29947780Y12447619D02*
X-30614447Y12447619D01*
X-30423971Y12447619D02*
X-30519209Y12495238D01*
X-30519209Y12495238D02*
X-30566828Y12542857D01*
X-30566828Y12542857D02*
X-30614447Y12638095D01*
X-30614447Y12638095D02*
X-30614447Y12733333D01*
X-29947780Y13066667D02*
X-30614447Y13066667D01*
X-30947780Y13066667D02*
X-30900161Y13019048D01*
X-30900161Y13019048D02*
X-30852542Y13066667D01*
X-30852542Y13066667D02*
X-30900161Y13114286D01*
X-30900161Y13114286D02*
X-30947780Y13066667D01*
X-30947780Y13066667D02*
X-30852542Y13066667D01*
X-30614447Y13400000D02*
X-30614447Y13780952D01*
X-30947780Y13542857D02*
X-30090638Y13542857D01*
X-30090638Y13542857D02*
X-29995400Y13590476D01*
X-29995400Y13590476D02*
X-29947780Y13685714D01*
X-29947780Y13685714D02*
X-29947780Y13780952D01*
X-29995400Y14495238D02*
X-29947780Y14400000D01*
X-29947780Y14400000D02*
X-29947780Y14209524D01*
X-29947780Y14209524D02*
X-29995400Y14114286D01*
X-29995400Y14114286D02*
X-30090638Y14066667D01*
X-30090638Y14066667D02*
X-30471590Y14066667D01*
X-30471590Y14066667D02*
X-30566828Y14114286D01*
X-30566828Y14114286D02*
X-30614447Y14209524D01*
X-30614447Y14209524D02*
X-30614447Y14400000D01*
X-30614447Y14400000D02*
X-30566828Y14495238D01*
X-30566828Y14495238D02*
X-30471590Y14542857D01*
X-30471590Y14542857D02*
X-30376352Y14542857D01*
X-30376352Y14542857D02*
X-30281114Y14066667D01*
X-27347780Y11976190D02*
X-27823971Y11642857D01*
X-27347780Y11404762D02*
X-28347780Y11404762D01*
X-28347780Y11404762D02*
X-28347780Y11785714D01*
X-28347780Y11785714D02*
X-28300161Y11880952D01*
X-28300161Y11880952D02*
X-28252542Y11928571D01*
X-28252542Y11928571D02*
X-28157304Y11976190D01*
X-28157304Y11976190D02*
X-28014447Y11976190D01*
X-28014447Y11976190D02*
X-27919209Y11928571D01*
X-27919209Y11928571D02*
X-27871590Y11880952D01*
X-27871590Y11880952D02*
X-27823971Y11785714D01*
X-27823971Y11785714D02*
X-27823971Y11404762D01*
X-27395400Y12785714D02*
X-27347780Y12690476D01*
X-27347780Y12690476D02*
X-27347780Y12500000D01*
X-27347780Y12500000D02*
X-27395400Y12404762D01*
X-27395400Y12404762D02*
X-27490638Y12357143D01*
X-27490638Y12357143D02*
X-27871590Y12357143D01*
X-27871590Y12357143D02*
X-27966828Y12404762D01*
X-27966828Y12404762D02*
X-28014447Y12500000D01*
X-28014447Y12500000D02*
X-28014447Y12690476D01*
X-28014447Y12690476D02*
X-27966828Y12785714D01*
X-27966828Y12785714D02*
X-27871590Y12833333D01*
X-27871590Y12833333D02*
X-27776352Y12833333D01*
X-27776352Y12833333D02*
X-27681114Y12357143D01*
X-27347780Y13690476D02*
X-27871590Y13690476D01*
X-27871590Y13690476D02*
X-27966828Y13642857D01*
X-27966828Y13642857D02*
X-28014447Y13547619D01*
X-28014447Y13547619D02*
X-28014447Y13357143D01*
X-28014447Y13357143D02*
X-27966828Y13261905D01*
X-27395400Y13690476D02*
X-27347780Y13595238D01*
X-27347780Y13595238D02*
X-27347780Y13357143D01*
X-27347780Y13357143D02*
X-27395400Y13261905D01*
X-27395400Y13261905D02*
X-27490638Y13214286D01*
X-27490638Y13214286D02*
X-27585876Y13214286D01*
X-27585876Y13214286D02*
X-27681114Y13261905D01*
X-27681114Y13261905D02*
X-27728733Y13357143D01*
X-27728733Y13357143D02*
X-27728733Y13595238D01*
X-27728733Y13595238D02*
X-27776352Y13690476D01*
X-27347780Y14595238D02*
X-28347780Y14595238D01*
X-27395400Y14595238D02*
X-27347780Y14500000D01*
X-27347780Y14500000D02*
X-27347780Y14309524D01*
X-27347780Y14309524D02*
X-27395400Y14214286D01*
X-27395400Y14214286D02*
X-27443019Y14166667D01*
X-27443019Y14166667D02*
X-27538257Y14119048D01*
X-27538257Y14119048D02*
X-27823971Y14119048D01*
X-27823971Y14119048D02*
X-27919209Y14166667D01*
X-27919209Y14166667D02*
X-27966828Y14214286D01*
X-27966828Y14214286D02*
X-28014447Y14309524D01*
X-28014447Y14309524D02*
X-28014447Y14500000D01*
X-28014447Y14500000D02*
X-27966828Y14595238D01*
X-24847780Y8795238D02*
X-25847780Y8795238D01*
X-25371590Y8795238D02*
X-25371590Y9366666D01*
X-24847780Y9366666D02*
X-25847780Y9366666D01*
X-25371590Y9842857D02*
X-25371590Y10176190D01*
X-24847780Y10319047D02*
X-24847780Y9842857D01*
X-24847780Y9842857D02*
X-25847780Y9842857D01*
X-25847780Y9842857D02*
X-25847780Y10319047D01*
X-25133495Y10700000D02*
X-25133495Y11176190D01*
X-24847780Y10604762D02*
X-25847780Y10938095D01*
X-25847780Y10938095D02*
X-24847780Y11271428D01*
X-24847780Y12080952D02*
X-24847780Y11604762D01*
X-24847780Y11604762D02*
X-25847780Y11604762D01*
X-25847780Y12271429D02*
X-25847780Y12842857D01*
X-24847780Y12557143D02*
X-25847780Y12557143D01*
X-24847780Y13176191D02*
X-25847780Y13176191D01*
X-25371590Y13176191D02*
X-25371590Y13747619D01*
X-24847780Y13747619D02*
X-25847780Y13747619D01*
X-25323971Y14414286D02*
X-24847780Y14414286D01*
X-25847780Y14080953D02*
X-25323971Y14414286D01*
X-25323971Y14414286D02*
X-25847780Y14747619D01*
X-22347780Y8942857D02*
X-23347780Y8942857D01*
X-22871590Y8942857D02*
X-22871590Y9514285D01*
X-22347780Y9514285D02*
X-23347780Y9514285D01*
X-22347780Y9990476D02*
X-23347780Y9990476D01*
X-23347780Y9990476D02*
X-23347780Y10228571D01*
X-23347780Y10228571D02*
X-23300161Y10371428D01*
X-23300161Y10371428D02*
X-23204923Y10466666D01*
X-23204923Y10466666D02*
X-23109685Y10514285D01*
X-23109685Y10514285D02*
X-22919209Y10561904D01*
X-22919209Y10561904D02*
X-22776352Y10561904D01*
X-22776352Y10561904D02*
X-22585876Y10514285D01*
X-22585876Y10514285D02*
X-22490638Y10466666D01*
X-22490638Y10466666D02*
X-22395400Y10371428D01*
X-22395400Y10371428D02*
X-22347780Y10228571D01*
X-22347780Y10228571D02*
X-22347780Y9990476D01*
X-22347780Y10990476D02*
X-23347780Y10990476D01*
X-23347780Y10990476D02*
X-23347780Y11228571D01*
X-23347780Y11228571D02*
X-23300161Y11371428D01*
X-23300161Y11371428D02*
X-23204923Y11466666D01*
X-23204923Y11466666D02*
X-23109685Y11514285D01*
X-23109685Y11514285D02*
X-22919209Y11561904D01*
X-22919209Y11561904D02*
X-22776352Y11561904D01*
X-22776352Y11561904D02*
X-22585876Y11514285D01*
X-22585876Y11514285D02*
X-22490638Y11466666D01*
X-22490638Y11466666D02*
X-22395400Y11371428D01*
X-22395400Y11371428D02*
X-22347780Y11228571D01*
X-22347780Y11228571D02*
X-22347780Y10990476D01*
X-22347780Y11990476D02*
X-23347780Y11990476D01*
X-23347780Y11990476D02*
X-23347780Y12371428D01*
X-23347780Y12371428D02*
X-23300161Y12466666D01*
X-23300161Y12466666D02*
X-23252542Y12514285D01*
X-23252542Y12514285D02*
X-23157304Y12561904D01*
X-23157304Y12561904D02*
X-23014447Y12561904D01*
X-23014447Y12561904D02*
X-22919209Y12514285D01*
X-22919209Y12514285D02*
X-22871590Y12466666D01*
X-22871590Y12466666D02*
X-22823971Y12371428D01*
X-22823971Y12371428D02*
X-22823971Y11990476D01*
X-23347780Y12895238D02*
X-22347780Y13133333D01*
X-22347780Y13133333D02*
X-23062066Y13323809D01*
X-23062066Y13323809D02*
X-22347780Y13514285D01*
X-22347780Y13514285D02*
X-23347780Y13752381D01*
X-22347780Y14704761D02*
X-22823971Y14371428D01*
X-22347780Y14133333D02*
X-23347780Y14133333D01*
X-23347780Y14133333D02*
X-23347780Y14514285D01*
X-23347780Y14514285D02*
X-23300161Y14609523D01*
X-23300161Y14609523D02*
X-23252542Y14657142D01*
X-23252542Y14657142D02*
X-23157304Y14704761D01*
X-23157304Y14704761D02*
X-23014447Y14704761D01*
X-23014447Y14704761D02*
X-22919209Y14657142D01*
X-22919209Y14657142D02*
X-22871590Y14609523D01*
X-22871590Y14609523D02*
X-22823971Y14514285D01*
X-22823971Y14514285D02*
X-22823971Y14133333D01*
D10*
X-11216033Y14499999D02*
X-11216033Y14099999D01*
X-11916033Y14299999D02*
X-11216033Y14299999D01*
X-9816033Y14083333D02*
X-9482700Y14316666D01*
X-9816033Y14483333D02*
X-9116033Y14483333D01*
X-9116033Y14483333D02*
X-9116033Y14216666D01*
X-9116033Y14216666D02*
X-9149366Y14150000D01*
X-9149366Y14150000D02*
X-9182700Y14116666D01*
X-9182700Y14116666D02*
X-9249366Y14083333D01*
X-9249366Y14083333D02*
X-9349366Y14083333D01*
X-9349366Y14083333D02*
X-9416033Y14116666D01*
X-9416033Y14116666D02*
X-9449366Y14150000D01*
X-9449366Y14150000D02*
X-9482700Y14216666D01*
X-9482700Y14216666D02*
X-9482700Y14483333D01*
X-18916033Y14466666D02*
X-18216033Y14466666D01*
X-18216033Y14000000D02*
X-18216033Y13866666D01*
X-18216033Y13866666D02*
X-18249366Y13800000D01*
X-18249366Y13800000D02*
X-18316033Y13733333D01*
X-18316033Y13733333D02*
X-18449366Y13700000D01*
X-18449366Y13700000D02*
X-18682700Y13700000D01*
X-18682700Y13700000D02*
X-18816033Y13733333D01*
X-18816033Y13733333D02*
X-18882700Y13800000D01*
X-18882700Y13800000D02*
X-18916033Y13866666D01*
X-18916033Y13866666D02*
X-18916033Y14000000D01*
X-18916033Y14000000D02*
X-18882700Y14066666D01*
X-18882700Y14066666D02*
X-18816033Y14133333D01*
X-18816033Y14133333D02*
X-18682700Y14166666D01*
X-18682700Y14166666D02*
X-18449366Y14166666D01*
X-18449366Y14166666D02*
X-18316033Y14133333D01*
X-18316033Y14133333D02*
X-18249366Y14066666D01*
X-18249366Y14066666D02*
X-18216033Y14000000D01*
X-16849366Y14083333D02*
X-16882700Y14116666D01*
X-16882700Y14116666D02*
X-16916033Y14216666D01*
X-16916033Y14216666D02*
X-16916033Y14283333D01*
X-16916033Y14283333D02*
X-16882700Y14383333D01*
X-16882700Y14383333D02*
X-16816033Y14450000D01*
X-16816033Y14450000D02*
X-16749366Y14483333D01*
X-16749366Y14483333D02*
X-16616033Y14516666D01*
X-16616033Y14516666D02*
X-16516033Y14516666D01*
X-16516033Y14516666D02*
X-16382700Y14483333D01*
X-16382700Y14483333D02*
X-16316033Y14450000D01*
X-16316033Y14450000D02*
X-16249366Y14383333D01*
X-16249366Y14383333D02*
X-16216033Y14283333D01*
X-16216033Y14283333D02*
X-16216033Y14216666D01*
X-16216033Y14216666D02*
X-16249366Y14116666D01*
X-16249366Y14116666D02*
X-16282700Y14083333D01*
X-8904762Y12454819D02*
X-8904762Y13264342D01*
X-8904762Y13264342D02*
X-8952381Y13359580D01*
X-8952381Y13359580D02*
X-9000000Y13407200D01*
X-9000000Y13407200D02*
X-9095238Y13454819D01*
X-9095238Y13454819D02*
X-9285714Y13454819D01*
X-9285714Y13454819D02*
X-9380952Y13407200D01*
X-9380952Y13407200D02*
X-9428571Y13359580D01*
X-9428571Y13359580D02*
X-9476190Y13264342D01*
X-9476190Y13264342D02*
X-9476190Y12454819D01*
X-9904762Y13169104D02*
X-10380952Y13169104D01*
X-9809524Y13454819D02*
X-10142857Y12454819D01*
X-10142857Y12454819D02*
X-10476190Y13454819D01*
X-11380952Y13454819D02*
X-11047619Y12978628D01*
X-10809524Y13454819D02*
X-10809524Y12454819D01*
X-10809524Y12454819D02*
X-11190476Y12454819D01*
X-11190476Y12454819D02*
X-11285714Y12502438D01*
X-11285714Y12502438D02*
X-11333333Y12550057D01*
X-11333333Y12550057D02*
X-11380952Y12645295D01*
X-11380952Y12645295D02*
X-11380952Y12788152D01*
X-11380952Y12788152D02*
X-11333333Y12883390D01*
X-11333333Y12883390D02*
X-11285714Y12931009D01*
X-11285714Y12931009D02*
X-11190476Y12978628D01*
X-11190476Y12978628D02*
X-10809524Y12978628D01*
X-11666667Y12454819D02*
X-12238095Y12454819D01*
X-11952381Y13454819D02*
X-11952381Y12454819D01*
X-15485714Y13408557D02*
X-15485714Y12508557D01*
X-15485714Y12508557D02*
X-15700000Y12508557D01*
X-15700000Y12508557D02*
X-15828571Y12551414D01*
X-15828571Y12551414D02*
X-15914286Y12637128D01*
X-15914286Y12637128D02*
X-15957143Y12722842D01*
X-15957143Y12722842D02*
X-16000000Y12894271D01*
X-16000000Y12894271D02*
X-16000000Y13022842D01*
X-16000000Y13022842D02*
X-15957143Y13194271D01*
X-15957143Y13194271D02*
X-15914286Y13279985D01*
X-15914286Y13279985D02*
X-15828571Y13365700D01*
X-15828571Y13365700D02*
X-15700000Y13408557D01*
X-15700000Y13408557D02*
X-15485714Y13408557D01*
X-16385714Y12937128D02*
X-16685714Y12937128D01*
X-16814286Y13408557D02*
X-16385714Y13408557D01*
X-16385714Y13408557D02*
X-16385714Y12508557D01*
X-16385714Y12508557D02*
X-16814286Y12508557D01*
X-17500000Y12937128D02*
X-17628572Y12979985D01*
X-17628572Y12979985D02*
X-17671429Y13022842D01*
X-17671429Y13022842D02*
X-17714286Y13108557D01*
X-17714286Y13108557D02*
X-17714286Y13237128D01*
X-17714286Y13237128D02*
X-17671429Y13322842D01*
X-17671429Y13322842D02*
X-17628572Y13365700D01*
X-17628572Y13365700D02*
X-17542857Y13408557D01*
X-17542857Y13408557D02*
X-17200000Y13408557D01*
X-17200000Y13408557D02*
X-17200000Y12508557D01*
X-17200000Y12508557D02*
X-17500000Y12508557D01*
X-17500000Y12508557D02*
X-17585715Y12551414D01*
X-17585715Y12551414D02*
X-17628572Y12594271D01*
X-17628572Y12594271D02*
X-17671429Y12679985D01*
X-17671429Y12679985D02*
X-17671429Y12765700D01*
X-17671429Y12765700D02*
X-17628572Y12851414D01*
X-17628572Y12851414D02*
X-17585715Y12894271D01*
X-17585715Y12894271D02*
X-17500000Y12937128D01*
X-17500000Y12937128D02*
X-17200000Y12937128D01*
X-18100000Y12508557D02*
X-18100000Y13237128D01*
X-18100000Y13237128D02*
X-18142857Y13322842D01*
X-18142857Y13322842D02*
X-18185715Y13365700D01*
X-18185715Y13365700D02*
X-18271429Y13408557D01*
X-18271429Y13408557D02*
X-18442857Y13408557D01*
X-18442857Y13408557D02*
X-18528572Y13365700D01*
X-18528572Y13365700D02*
X-18571429Y13322842D01*
X-18571429Y13322842D02*
X-18614286Y13237128D01*
X-18614286Y13237128D02*
X-18614286Y12508557D01*
X-19514286Y12551414D02*
X-19428572Y12508557D01*
X-19428572Y12508557D02*
X-19300000Y12508557D01*
X-19300000Y12508557D02*
X-19171429Y12551414D01*
X-19171429Y12551414D02*
X-19085714Y12637128D01*
X-19085714Y12637128D02*
X-19042857Y12722842D01*
X-19042857Y12722842D02*
X-19000000Y12894271D01*
X-19000000Y12894271D02*
X-19000000Y13022842D01*
X-19000000Y13022842D02*
X-19042857Y13194271D01*
X-19042857Y13194271D02*
X-19085714Y13279985D01*
X-19085714Y13279985D02*
X-19171429Y13365700D01*
X-19171429Y13365700D02*
X-19300000Y13408557D01*
X-19300000Y13408557D02*
X-19385714Y13408557D01*
X-19385714Y13408557D02*
X-19514286Y13365700D01*
X-19514286Y13365700D02*
X-19557143Y13322842D01*
X-19557143Y13322842D02*
X-19557143Y13022842D01*
X-19557143Y13022842D02*
X-19385714Y13022842D01*
X-12183333Y2883966D02*
X-12183333Y3583966D01*
X-12183333Y3583966D02*
X-12016666Y3583966D01*
X-12016666Y3583966D02*
X-11916666Y3550633D01*
X-11916666Y3550633D02*
X-11850000Y3483966D01*
X-11850000Y3483966D02*
X-11816666Y3417300D01*
X-11816666Y3417300D02*
X-11783333Y3283966D01*
X-11783333Y3283966D02*
X-11783333Y3183966D01*
X-11783333Y3183966D02*
X-11816666Y3050633D01*
X-11816666Y3050633D02*
X-11850000Y2983966D01*
X-11850000Y2983966D02*
X-11916666Y2917300D01*
X-11916666Y2917300D02*
X-12016666Y2883966D01*
X-12016666Y2883966D02*
X-12183333Y2883966D01*
X-11516666Y3083966D02*
X-11183333Y3083966D01*
X-11583333Y2883966D02*
X-11350000Y3583966D01*
X-11350000Y3583966D02*
X-11116666Y2883966D01*
X-10983333Y3583966D02*
X-10583333Y3583966D01*
X-10783333Y2883966D02*
X-10783333Y3583966D01*
X-10416667Y3583966D02*
X-9983333Y3583966D01*
X-9983333Y3583966D02*
X-10216667Y3317300D01*
X-10216667Y3317300D02*
X-10116667Y3317300D01*
X-10116667Y3317300D02*
X-10050000Y3283966D01*
X-10050000Y3283966D02*
X-10016667Y3250633D01*
X-10016667Y3250633D02*
X-9983333Y3183966D01*
X-9983333Y3183966D02*
X-9983333Y3017300D01*
X-9983333Y3017300D02*
X-10016667Y2950633D01*
X-10016667Y2950633D02*
X-10050000Y2917300D01*
X-10050000Y2917300D02*
X-10116667Y2883966D01*
X-10116667Y2883966D02*
X-10316667Y2883966D01*
X-10316667Y2883966D02*
X-10383333Y2917300D01*
X-10383333Y2917300D02*
X-10416667Y2950633D01*
X-12183333Y1783966D02*
X-12183333Y2483966D01*
X-12183333Y2483966D02*
X-12016666Y2483966D01*
X-12016666Y2483966D02*
X-11916666Y2450633D01*
X-11916666Y2450633D02*
X-11850000Y2383966D01*
X-11850000Y2383966D02*
X-11816666Y2317300D01*
X-11816666Y2317300D02*
X-11783333Y2183966D01*
X-11783333Y2183966D02*
X-11783333Y2083966D01*
X-11783333Y2083966D02*
X-11816666Y1950633D01*
X-11816666Y1950633D02*
X-11850000Y1883966D01*
X-11850000Y1883966D02*
X-11916666Y1817300D01*
X-11916666Y1817300D02*
X-12016666Y1783966D01*
X-12016666Y1783966D02*
X-12183333Y1783966D01*
X-11516666Y1983966D02*
X-11183333Y1983966D01*
X-11583333Y1783966D02*
X-11350000Y2483966D01*
X-11350000Y2483966D02*
X-11116666Y1783966D01*
X-10983333Y2483966D02*
X-10583333Y2483966D01*
X-10783333Y1783966D02*
X-10783333Y2483966D01*
X-10383333Y2417300D02*
X-10350000Y2450633D01*
X-10350000Y2450633D02*
X-10283333Y2483966D01*
X-10283333Y2483966D02*
X-10116667Y2483966D01*
X-10116667Y2483966D02*
X-10050000Y2450633D01*
X-10050000Y2450633D02*
X-10016667Y2417300D01*
X-10016667Y2417300D02*
X-9983333Y2350633D01*
X-9983333Y2350633D02*
X-9983333Y2283966D01*
X-9983333Y2283966D02*
X-10016667Y2183966D01*
X-10016667Y2183966D02*
X-10416667Y1783966D01*
X-10416667Y1783966D02*
X-9983333Y1783966D01*
X-12183333Y683966D02*
X-12183333Y1383966D01*
X-12183333Y1383966D02*
X-12016666Y1383966D01*
X-12016666Y1383966D02*
X-11916666Y1350633D01*
X-11916666Y1350633D02*
X-11850000Y1283966D01*
X-11850000Y1283966D02*
X-11816666Y1217300D01*
X-11816666Y1217300D02*
X-11783333Y1083966D01*
X-11783333Y1083966D02*
X-11783333Y983966D01*
X-11783333Y983966D02*
X-11816666Y850633D01*
X-11816666Y850633D02*
X-11850000Y783966D01*
X-11850000Y783966D02*
X-11916666Y717300D01*
X-11916666Y717300D02*
X-12016666Y683966D01*
X-12016666Y683966D02*
X-12183333Y683966D01*
X-11516666Y883966D02*
X-11183333Y883966D01*
X-11583333Y683966D02*
X-11350000Y1383966D01*
X-11350000Y1383966D02*
X-11116666Y683966D01*
X-10983333Y1383966D02*
X-10583333Y1383966D01*
X-10783333Y683966D02*
X-10783333Y1383966D01*
X-9983333Y683966D02*
X-10383333Y683966D01*
X-10183333Y683966D02*
X-10183333Y1383966D01*
X-10183333Y1383966D02*
X-10250000Y1283966D01*
X-10250000Y1283966D02*
X-10316667Y1217300D01*
X-10316667Y1217300D02*
X-10383333Y1183966D01*
X-12183333Y-416033D02*
X-12183333Y283966D01*
X-12183333Y283966D02*
X-12016666Y283966D01*
X-12016666Y283966D02*
X-11916666Y250633D01*
X-11916666Y250633D02*
X-11850000Y183966D01*
X-11850000Y183966D02*
X-11816666Y117299D01*
X-11816666Y117299D02*
X-11783333Y-16033D01*
X-11783333Y-16033D02*
X-11783333Y-116033D01*
X-11783333Y-116033D02*
X-11816666Y-249366D01*
X-11816666Y-249366D02*
X-11850000Y-316033D01*
X-11850000Y-316033D02*
X-11916666Y-382700D01*
X-11916666Y-382700D02*
X-12016666Y-416033D01*
X-12016666Y-416033D02*
X-12183333Y-416033D01*
X-11516666Y-216033D02*
X-11183333Y-216033D01*
X-11583333Y-416033D02*
X-11350000Y283966D01*
X-11350000Y283966D02*
X-11116666Y-416033D01*
X-10983333Y283966D02*
X-10583333Y283966D01*
X-10783333Y-416033D02*
X-10783333Y283966D01*
X-10216667Y283966D02*
X-10150000Y283966D01*
X-10150000Y283966D02*
X-10083333Y250633D01*
X-10083333Y250633D02*
X-10050000Y217300D01*
X-10050000Y217300D02*
X-10016667Y150633D01*
X-10016667Y150633D02*
X-9983333Y17300D01*
X-9983333Y17300D02*
X-9983333Y-149366D01*
X-9983333Y-149366D02*
X-10016667Y-282700D01*
X-10016667Y-282700D02*
X-10050000Y-349366D01*
X-10050000Y-349366D02*
X-10083333Y-382700D01*
X-10083333Y-382700D02*
X-10150000Y-416033D01*
X-10150000Y-416033D02*
X-10216667Y-416033D01*
X-10216667Y-416033D02*
X-10283333Y-382700D01*
X-10283333Y-382700D02*
X-10316667Y-349366D01*
X-10316667Y-349366D02*
X-10350000Y-282700D01*
X-10350000Y-282700D02*
X-10383333Y-149366D01*
X-10383333Y-149366D02*
X-10383333Y17300D01*
X-10383333Y17300D02*
X-10350000Y150633D01*
X-10350000Y150633D02*
X-10316667Y217300D01*
X-10316667Y217300D02*
X-10283333Y250633D01*
X-10283333Y250633D02*
X-10216667Y283966D01*
X-11433333Y-1449366D02*
X-11466666Y-1482700D01*
X-11466666Y-1482700D02*
X-11566666Y-1516033D01*
X-11566666Y-1516033D02*
X-11633333Y-1516033D01*
X-11633333Y-1516033D02*
X-11733333Y-1482700D01*
X-11733333Y-1482700D02*
X-11800000Y-1416033D01*
X-11800000Y-1416033D02*
X-11833333Y-1349366D01*
X-11833333Y-1349366D02*
X-11866666Y-1216033D01*
X-11866666Y-1216033D02*
X-11866666Y-1116033D01*
X-11866666Y-1116033D02*
X-11833333Y-982700D01*
X-11833333Y-982700D02*
X-11800000Y-916033D01*
X-11800000Y-916033D02*
X-11733333Y-849366D01*
X-11733333Y-849366D02*
X-11633333Y-816033D01*
X-11633333Y-816033D02*
X-11566666Y-816033D01*
X-11566666Y-816033D02*
X-11466666Y-849366D01*
X-11466666Y-849366D02*
X-11433333Y-882700D01*
X-11133333Y-1516033D02*
X-11133333Y-816033D01*
X-11133333Y-816033D02*
X-10900000Y-1316033D01*
X-10900000Y-1316033D02*
X-10666666Y-816033D01*
X-10666666Y-816033D02*
X-10666666Y-1516033D01*
X-10333333Y-1516033D02*
X-10333333Y-816033D01*
X-10333333Y-816033D02*
X-10166666Y-816033D01*
X-10166666Y-816033D02*
X-10066666Y-849366D01*
X-10066666Y-849366D02*
X-10000000Y-916033D01*
X-10000000Y-916033D02*
X-9966666Y-982700D01*
X-9966666Y-982700D02*
X-9933333Y-1116033D01*
X-9933333Y-1116033D02*
X-9933333Y-1216033D01*
X-9933333Y-1216033D02*
X-9966666Y-1349366D01*
X-9966666Y-1349366D02*
X-10000000Y-1416033D01*
X-10000000Y-1416033D02*
X-10066666Y-1482700D01*
X-10066666Y-1482700D02*
X-10166666Y-1516033D01*
X-10166666Y-1516033D02*
X-10333333Y-1516033D01*
X-11216666Y-2549366D02*
X-11249999Y-2582700D01*
X-11249999Y-2582700D02*
X-11349999Y-2616033D01*
X-11349999Y-2616033D02*
X-11416666Y-2616033D01*
X-11416666Y-2616033D02*
X-11516666Y-2582700D01*
X-11516666Y-2582700D02*
X-11583333Y-2516033D01*
X-11583333Y-2516033D02*
X-11616666Y-2449366D01*
X-11616666Y-2449366D02*
X-11649999Y-2316033D01*
X-11649999Y-2316033D02*
X-11649999Y-2216033D01*
X-11649999Y-2216033D02*
X-11616666Y-2082700D01*
X-11616666Y-2082700D02*
X-11583333Y-2016033D01*
X-11583333Y-2016033D02*
X-11516666Y-1949366D01*
X-11516666Y-1949366D02*
X-11416666Y-1916033D01*
X-11416666Y-1916033D02*
X-11349999Y-1916033D01*
X-11349999Y-1916033D02*
X-11249999Y-1949366D01*
X-11249999Y-1949366D02*
X-11216666Y-1982700D01*
X-10583333Y-2616033D02*
X-10916666Y-2616033D01*
X-10916666Y-2616033D02*
X-10916666Y-1916033D01*
X-10349999Y-2616033D02*
X-10349999Y-1916033D01*
X-9949999Y-2616033D02*
X-10249999Y-2216033D01*
X-9949999Y-1916033D02*
X-10349999Y-2316033D01*
D12*
X-36261904Y8052752D02*
X-36261904Y7243229D01*
X-36261904Y7243229D02*
X-36214285Y7147991D01*
X-36214285Y7147991D02*
X-36166666Y7100372D01*
X-36166666Y7100372D02*
X-36071428Y7052752D01*
X-36071428Y7052752D02*
X-35880952Y7052752D01*
X-35880952Y7052752D02*
X-35785714Y7100372D01*
X-35785714Y7100372D02*
X-35738095Y7147991D01*
X-35738095Y7147991D02*
X-35690476Y7243229D01*
X-35690476Y7243229D02*
X-35690476Y8052752D01*
X-35261904Y7100372D02*
X-35119047Y7052752D01*
X-35119047Y7052752D02*
X-34880952Y7052752D01*
X-34880952Y7052752D02*
X-34785714Y7100372D01*
X-34785714Y7100372D02*
X-34738095Y7147991D01*
X-34738095Y7147991D02*
X-34690476Y7243229D01*
X-34690476Y7243229D02*
X-34690476Y7338467D01*
X-34690476Y7338467D02*
X-34738095Y7433705D01*
X-34738095Y7433705D02*
X-34785714Y7481324D01*
X-34785714Y7481324D02*
X-34880952Y7528943D01*
X-34880952Y7528943D02*
X-35071428Y7576562D01*
X-35071428Y7576562D02*
X-35166666Y7624181D01*
X-35166666Y7624181D02*
X-35214285Y7671800D01*
X-35214285Y7671800D02*
X-35261904Y7767038D01*
X-35261904Y7767038D02*
X-35261904Y7862276D01*
X-35261904Y7862276D02*
X-35214285Y7957514D01*
X-35214285Y7957514D02*
X-35166666Y8005133D01*
X-35166666Y8005133D02*
X-35071428Y8052752D01*
X-35071428Y8052752D02*
X-34833333Y8052752D01*
X-34833333Y8052752D02*
X-34690476Y8005133D01*
X-33928571Y7576562D02*
X-33785714Y7528943D01*
X-33785714Y7528943D02*
X-33738095Y7481324D01*
X-33738095Y7481324D02*
X-33690476Y7386086D01*
X-33690476Y7386086D02*
X-33690476Y7243229D01*
X-33690476Y7243229D02*
X-33738095Y7147991D01*
X-33738095Y7147991D02*
X-33785714Y7100372D01*
X-33785714Y7100372D02*
X-33880952Y7052752D01*
X-33880952Y7052752D02*
X-34261904Y7052752D01*
X-34261904Y7052752D02*
X-34261904Y8052752D01*
X-34261904Y8052752D02*
X-33928571Y8052752D01*
X-33928571Y8052752D02*
X-33833333Y8005133D01*
X-33833333Y8005133D02*
X-33785714Y7957514D01*
X-33785714Y7957514D02*
X-33738095Y7862276D01*
X-33738095Y7862276D02*
X-33738095Y7767038D01*
X-33738095Y7767038D02*
X-33785714Y7671800D01*
X-33785714Y7671800D02*
X-33833333Y7624181D01*
X-33833333Y7624181D02*
X-33928571Y7576562D01*
X-33928571Y7576562D02*
X-34261904Y7576562D01*
X-36309523Y5442808D02*
X-36309523Y6442808D01*
X-36309523Y6442808D02*
X-35976190Y5728523D01*
X-35976190Y5728523D02*
X-35642857Y6442808D01*
X-35642857Y6442808D02*
X-35642857Y5442808D01*
X-35214285Y5490428D02*
X-35071428Y5442808D01*
X-35071428Y5442808D02*
X-34833333Y5442808D01*
X-34833333Y5442808D02*
X-34738095Y5490428D01*
X-34738095Y5490428D02*
X-34690476Y5538047D01*
X-34690476Y5538047D02*
X-34642857Y5633285D01*
X-34642857Y5633285D02*
X-34642857Y5728523D01*
X-34642857Y5728523D02*
X-34690476Y5823761D01*
X-34690476Y5823761D02*
X-34738095Y5871380D01*
X-34738095Y5871380D02*
X-34833333Y5918999D01*
X-34833333Y5918999D02*
X-35023809Y5966618D01*
X-35023809Y5966618D02*
X-35119047Y6014237D01*
X-35119047Y6014237D02*
X-35166666Y6061856D01*
X-35166666Y6061856D02*
X-35214285Y6157094D01*
X-35214285Y6157094D02*
X-35214285Y6252332D01*
X-35214285Y6252332D02*
X-35166666Y6347570D01*
X-35166666Y6347570D02*
X-35119047Y6395189D01*
X-35119047Y6395189D02*
X-35023809Y6442808D01*
X-35023809Y6442808D02*
X-34785714Y6442808D01*
X-34785714Y6442808D02*
X-34642857Y6395189D01*
X-33642857Y5538047D02*
X-33690476Y5490428D01*
X-33690476Y5490428D02*
X-33833333Y5442808D01*
X-33833333Y5442808D02*
X-33928571Y5442808D01*
X-33928571Y5442808D02*
X-34071428Y5490428D01*
X-34071428Y5490428D02*
X-34166666Y5585666D01*
X-34166666Y5585666D02*
X-34214285Y5680904D01*
X-34214285Y5680904D02*
X-34261904Y5871380D01*
X-34261904Y5871380D02*
X-34261904Y6014237D01*
X-34261904Y6014237D02*
X-34214285Y6204713D01*
X-34214285Y6204713D02*
X-34166666Y6299951D01*
X-34166666Y6299951D02*
X-34071428Y6395189D01*
X-34071428Y6395189D02*
X-33928571Y6442808D01*
X-33928571Y6442808D02*
X-33833333Y6442808D01*
X-33833333Y6442808D02*
X-33690476Y6395189D01*
X-33690476Y6395189D02*
X-33642857Y6347570D01*
X-36809523Y17547780D02*
X-36809523Y18547780D01*
X-36809523Y18547780D02*
X-36571428Y18547780D01*
X-36571428Y18547780D02*
X-36428571Y18500161D01*
X-36428571Y18500161D02*
X-36333333Y18404923D01*
X-36333333Y18404923D02*
X-36285714Y18309685D01*
X-36285714Y18309685D02*
X-36238095Y18119209D01*
X-36238095Y18119209D02*
X-36238095Y17976352D01*
X-36238095Y17976352D02*
X-36285714Y17785876D01*
X-36285714Y17785876D02*
X-36333333Y17690638D01*
X-36333333Y17690638D02*
X-36428571Y17595400D01*
X-36428571Y17595400D02*
X-36571428Y17547780D01*
X-36571428Y17547780D02*
X-36809523Y17547780D01*
X-35809523Y18071590D02*
X-35476190Y18071590D01*
X-35333333Y17547780D02*
X-35809523Y17547780D01*
X-35809523Y17547780D02*
X-35809523Y18547780D01*
X-35809523Y18547780D02*
X-35333333Y18547780D01*
X-34904761Y17547780D02*
X-34904761Y18547780D01*
X-34904761Y18547780D02*
X-34571428Y17833495D01*
X-34571428Y17833495D02*
X-34238095Y18547780D01*
X-34238095Y18547780D02*
X-34238095Y17547780D01*
X-33571428Y18547780D02*
X-33380952Y18547780D01*
X-33380952Y18547780D02*
X-33285714Y18500161D01*
X-33285714Y18500161D02*
X-33190476Y18404923D01*
X-33190476Y18404923D02*
X-33142857Y18214447D01*
X-33142857Y18214447D02*
X-33142857Y17881114D01*
X-33142857Y17881114D02*
X-33190476Y17690638D01*
X-33190476Y17690638D02*
X-33285714Y17595400D01*
X-33285714Y17595400D02*
X-33380952Y17547780D01*
X-33380952Y17547780D02*
X-33571428Y17547780D01*
X-33571428Y17547780D02*
X-33666666Y17595400D01*
X-33666666Y17595400D02*
X-33761904Y17690638D01*
X-33761904Y17690638D02*
X-33809523Y17881114D01*
X-33809523Y17881114D02*
X-33809523Y18214447D01*
X-33809523Y18214447D02*
X-33761904Y18404923D01*
X-33761904Y18404923D02*
X-33666666Y18500161D01*
X-33666666Y18500161D02*
X-33571428Y18547780D01*
D10*
X-5850633Y10349999D02*
X-5817300Y10316666D01*
X-5817300Y10316666D02*
X-5783966Y10216666D01*
X-5783966Y10216666D02*
X-5783966Y10149999D01*
X-5783966Y10149999D02*
X-5817300Y10049999D01*
X-5817300Y10049999D02*
X-5883966Y9983333D01*
X-5883966Y9983333D02*
X-5950633Y9949999D01*
X-5950633Y9949999D02*
X-6083966Y9916666D01*
X-6083966Y9916666D02*
X-6183966Y9916666D01*
X-6183966Y9916666D02*
X-6317300Y9949999D01*
X-6317300Y9949999D02*
X-6383966Y9983333D01*
X-6383966Y9983333D02*
X-6450633Y10049999D01*
X-6450633Y10049999D02*
X-6483966Y10149999D01*
X-6483966Y10149999D02*
X-6483966Y10216666D01*
X-6483966Y10216666D02*
X-6450633Y10316666D01*
X-6450633Y10316666D02*
X-6417300Y10349999D01*
X-5783966Y11016666D02*
X-5783966Y10616666D01*
X-5783966Y10816666D02*
X-6483966Y10816666D01*
X-6483966Y10816666D02*
X-6383966Y10749999D01*
X-6383966Y10749999D02*
X-6317300Y10683333D01*
X-6317300Y10683333D02*
X-6283966Y10616666D01*
X-5783966Y11350000D02*
X-5783966Y11483333D01*
X-5783966Y11483333D02*
X-5817300Y11550000D01*
X-5817300Y11550000D02*
X-5850633Y11583333D01*
X-5850633Y11583333D02*
X-5950633Y11650000D01*
X-5950633Y11650000D02*
X-6083966Y11683333D01*
X-6083966Y11683333D02*
X-6350633Y11683333D01*
X-6350633Y11683333D02*
X-6417300Y11650000D01*
X-6417300Y11650000D02*
X-6450633Y11616666D01*
X-6450633Y11616666D02*
X-6483966Y11550000D01*
X-6483966Y11550000D02*
X-6483966Y11416666D01*
X-6483966Y11416666D02*
X-6450633Y11350000D01*
X-6450633Y11350000D02*
X-6417300Y11316666D01*
X-6417300Y11316666D02*
X-6350633Y11283333D01*
X-6350633Y11283333D02*
X-6183966Y11283333D01*
X-6183966Y11283333D02*
X-6117300Y11316666D01*
X-6117300Y11316666D02*
X-6083966Y11350000D01*
X-6083966Y11350000D02*
X-6050633Y11416666D01*
X-6050633Y11416666D02*
X-6050633Y11550000D01*
X-6050633Y11550000D02*
X-6083966Y11616666D01*
X-6083966Y11616666D02*
X-6117300Y11650000D01*
X-6117300Y11650000D02*
X-6183966Y11683333D01*
X-31817300Y12466666D02*
X-31783966Y12566666D01*
X-31783966Y12566666D02*
X-31783966Y12733333D01*
X-31783966Y12733333D02*
X-31817300Y12799999D01*
X-31817300Y12799999D02*
X-31850633Y12833333D01*
X-31850633Y12833333D02*
X-31917300Y12866666D01*
X-31917300Y12866666D02*
X-31983966Y12866666D01*
X-31983966Y12866666D02*
X-32050633Y12833333D01*
X-32050633Y12833333D02*
X-32083966Y12799999D01*
X-32083966Y12799999D02*
X-32117300Y12733333D01*
X-32117300Y12733333D02*
X-32150633Y12599999D01*
X-32150633Y12599999D02*
X-32183966Y12533333D01*
X-32183966Y12533333D02*
X-32217300Y12499999D01*
X-32217300Y12499999D02*
X-32283966Y12466666D01*
X-32283966Y12466666D02*
X-32350633Y12466666D01*
X-32350633Y12466666D02*
X-32417300Y12499999D01*
X-32417300Y12499999D02*
X-32450633Y12533333D01*
X-32450633Y12533333D02*
X-32483966Y12599999D01*
X-32483966Y12599999D02*
X-32483966Y12766666D01*
X-32483966Y12766666D02*
X-32450633Y12866666D01*
X-32483966Y13100000D02*
X-31783966Y13266666D01*
X-31783966Y13266666D02*
X-32283966Y13400000D01*
X-32283966Y13400000D02*
X-31783966Y13533333D01*
X-31783966Y13533333D02*
X-32483966Y13700000D01*
X-31783966Y14333333D02*
X-31783966Y13933333D01*
X-31783966Y14133333D02*
X-32483966Y14133333D01*
X-32483966Y14133333D02*
X-32383966Y14066666D01*
X-32383966Y14066666D02*
X-32317300Y14000000D01*
X-32317300Y14000000D02*
X-32283966Y13933333D01*
X-34450633Y-19750000D02*
X-34417300Y-19783333D01*
X-34417300Y-19783333D02*
X-34383966Y-19883333D01*
X-34383966Y-19883333D02*
X-34383966Y-19950000D01*
X-34383966Y-19950000D02*
X-34417300Y-20050000D01*
X-34417300Y-20050000D02*
X-34483966Y-20116667D01*
X-34483966Y-20116667D02*
X-34550633Y-20150000D01*
X-34550633Y-20150000D02*
X-34683966Y-20183333D01*
X-34683966Y-20183333D02*
X-34783966Y-20183333D01*
X-34783966Y-20183333D02*
X-34917300Y-20150000D01*
X-34917300Y-20150000D02*
X-34983966Y-20116667D01*
X-34983966Y-20116667D02*
X-35050633Y-20050000D01*
X-35050633Y-20050000D02*
X-35083966Y-19950000D01*
X-35083966Y-19950000D02*
X-35083966Y-19883333D01*
X-35083966Y-19883333D02*
X-35050633Y-19783333D01*
X-35050633Y-19783333D02*
X-35017300Y-19750000D01*
X-35017300Y-19483333D02*
X-35050633Y-19450000D01*
X-35050633Y-19450000D02*
X-35083966Y-19383333D01*
X-35083966Y-19383333D02*
X-35083966Y-19216667D01*
X-35083966Y-19216667D02*
X-35050633Y-19150000D01*
X-35050633Y-19150000D02*
X-35017300Y-19116667D01*
X-35017300Y-19116667D02*
X-34950633Y-19083333D01*
X-34950633Y-19083333D02*
X-34883966Y-19083333D01*
X-34883966Y-19083333D02*
X-34783966Y-19116667D01*
X-34783966Y-19116667D02*
X-34383966Y-19516667D01*
X-34383966Y-19516667D02*
X-34383966Y-19083333D01*
X-35083966Y-18650000D02*
X-35083966Y-18583333D01*
X-35083966Y-18583333D02*
X-35050633Y-18516666D01*
X-35050633Y-18516666D02*
X-35017300Y-18483333D01*
X-35017300Y-18483333D02*
X-34950633Y-18450000D01*
X-34950633Y-18450000D02*
X-34817300Y-18416666D01*
X-34817300Y-18416666D02*
X-34650633Y-18416666D01*
X-34650633Y-18416666D02*
X-34517300Y-18450000D01*
X-34517300Y-18450000D02*
X-34450633Y-18483333D01*
X-34450633Y-18483333D02*
X-34417300Y-18516666D01*
X-34417300Y-18516666D02*
X-34383966Y-18583333D01*
X-34383966Y-18583333D02*
X-34383966Y-18650000D01*
X-34383966Y-18650000D02*
X-34417300Y-18716666D01*
X-34417300Y-18716666D02*
X-34450633Y-18750000D01*
X-34450633Y-18750000D02*
X-34517300Y-18783333D01*
X-34517300Y-18783333D02*
X-34650633Y-18816666D01*
X-34650633Y-18816666D02*
X-34817300Y-18816666D01*
X-34817300Y-18816666D02*
X-34950633Y-18783333D01*
X-34950633Y-18783333D02*
X-35017300Y-18750000D01*
X-35017300Y-18750000D02*
X-35050633Y-18716666D01*
X-35050633Y-18716666D02*
X-35083966Y-18650000D01*
X-26416666Y-716033D02*
X-26649999Y-382700D01*
X-26816666Y-716033D02*
X-26816666Y-16033D01*
X-26816666Y-16033D02*
X-26549999Y-16033D01*
X-26549999Y-16033D02*
X-26483333Y-49366D01*
X-26483333Y-49366D02*
X-26449999Y-82700D01*
X-26449999Y-82700D02*
X-26416666Y-149366D01*
X-26416666Y-149366D02*
X-26416666Y-249366D01*
X-26416666Y-249366D02*
X-26449999Y-316033D01*
X-26449999Y-316033D02*
X-26483333Y-349366D01*
X-26483333Y-349366D02*
X-26549999Y-382700D01*
X-26549999Y-382700D02*
X-26816666Y-382700D01*
X-26183333Y-16033D02*
X-25716666Y-16033D01*
X-25716666Y-16033D02*
X-26016666Y-716033D01*
X-26416666Y-1686033D02*
X-26649999Y-1352700D01*
X-26816666Y-1686033D02*
X-26816666Y-986033D01*
X-26816666Y-986033D02*
X-26549999Y-986033D01*
X-26549999Y-986033D02*
X-26483333Y-1019366D01*
X-26483333Y-1019366D02*
X-26449999Y-1052700D01*
X-26449999Y-1052700D02*
X-26416666Y-1119366D01*
X-26416666Y-1119366D02*
X-26416666Y-1219366D01*
X-26416666Y-1219366D02*
X-26449999Y-1286033D01*
X-26449999Y-1286033D02*
X-26483333Y-1319366D01*
X-26483333Y-1319366D02*
X-26549999Y-1352700D01*
X-26549999Y-1352700D02*
X-26816666Y-1352700D01*
X-25816666Y-986033D02*
X-25949999Y-986033D01*
X-25949999Y-986033D02*
X-26016666Y-1019366D01*
X-26016666Y-1019366D02*
X-26049999Y-1052700D01*
X-26049999Y-1052700D02*
X-26116666Y-1152700D01*
X-26116666Y-1152700D02*
X-26149999Y-1286033D01*
X-26149999Y-1286033D02*
X-26149999Y-1552700D01*
X-26149999Y-1552700D02*
X-26116666Y-1619366D01*
X-26116666Y-1619366D02*
X-26083333Y-1652700D01*
X-26083333Y-1652700D02*
X-26016666Y-1686033D01*
X-26016666Y-1686033D02*
X-25883333Y-1686033D01*
X-25883333Y-1686033D02*
X-25816666Y-1652700D01*
X-25816666Y-1652700D02*
X-25783333Y-1619366D01*
X-25783333Y-1619366D02*
X-25749999Y-1552700D01*
X-25749999Y-1552700D02*
X-25749999Y-1386033D01*
X-25749999Y-1386033D02*
X-25783333Y-1319366D01*
X-25783333Y-1319366D02*
X-25816666Y-1286033D01*
X-25816666Y-1286033D02*
X-25883333Y-1252700D01*
X-25883333Y-1252700D02*
X-26016666Y-1252700D01*
X-26016666Y-1252700D02*
X-26083333Y-1286033D01*
X-26083333Y-1286033D02*
X-26116666Y-1319366D01*
X-26116666Y-1319366D02*
X-26149999Y-1386033D01*
X-16883966Y6883333D02*
X-17217300Y6650000D01*
X-16883966Y6483333D02*
X-17583966Y6483333D01*
X-17583966Y6483333D02*
X-17583966Y6750000D01*
X-17583966Y6750000D02*
X-17550633Y6816667D01*
X-17550633Y6816667D02*
X-17517300Y6850000D01*
X-17517300Y6850000D02*
X-17450633Y6883333D01*
X-17450633Y6883333D02*
X-17350633Y6883333D01*
X-17350633Y6883333D02*
X-17283966Y6850000D01*
X-17283966Y6850000D02*
X-17250633Y6816667D01*
X-17250633Y6816667D02*
X-17217300Y6750000D01*
X-17217300Y6750000D02*
X-17217300Y6483333D01*
X-17583966Y7116667D02*
X-17583966Y7550000D01*
X-17583966Y7550000D02*
X-17317300Y7316667D01*
X-17317300Y7316667D02*
X-17317300Y7416667D01*
X-17317300Y7416667D02*
X-17283966Y7483333D01*
X-17283966Y7483333D02*
X-17250633Y7516667D01*
X-17250633Y7516667D02*
X-17183966Y7550000D01*
X-17183966Y7550000D02*
X-17017300Y7550000D01*
X-17017300Y7550000D02*
X-16950633Y7516667D01*
X-16950633Y7516667D02*
X-16917300Y7483333D01*
X-16917300Y7483333D02*
X-16883966Y7416667D01*
X-16883966Y7416667D02*
X-16883966Y7216667D01*
X-16883966Y7216667D02*
X-16917300Y7150000D01*
X-16917300Y7150000D02*
X-16950633Y7116667D01*
X-11716666Y-7816033D02*
X-11949999Y-7482700D01*
X-12116666Y-7816033D02*
X-12116666Y-7116033D01*
X-12116666Y-7116033D02*
X-11849999Y-7116033D01*
X-11849999Y-7116033D02*
X-11783333Y-7149366D01*
X-11783333Y-7149366D02*
X-11749999Y-7182700D01*
X-11749999Y-7182700D02*
X-11716666Y-7249366D01*
X-11716666Y-7249366D02*
X-11716666Y-7349366D01*
X-11716666Y-7349366D02*
X-11749999Y-7416033D01*
X-11749999Y-7416033D02*
X-11783333Y-7449366D01*
X-11783333Y-7449366D02*
X-11849999Y-7482700D01*
X-11849999Y-7482700D02*
X-12116666Y-7482700D01*
X-11449999Y-7182700D02*
X-11416666Y-7149366D01*
X-11416666Y-7149366D02*
X-11349999Y-7116033D01*
X-11349999Y-7116033D02*
X-11183333Y-7116033D01*
X-11183333Y-7116033D02*
X-11116666Y-7149366D01*
X-11116666Y-7149366D02*
X-11083333Y-7182700D01*
X-11083333Y-7182700D02*
X-11049999Y-7249366D01*
X-11049999Y-7249366D02*
X-11049999Y-7316033D01*
X-11049999Y-7316033D02*
X-11083333Y-7416033D01*
X-11083333Y-7416033D02*
X-11483333Y-7816033D01*
X-11483333Y-7816033D02*
X-11049999Y-7816033D01*
X-11383966Y-9016666D02*
X-11717300Y-9249999D01*
X-11383966Y-9416666D02*
X-12083966Y-9416666D01*
X-12083966Y-9416666D02*
X-12083966Y-9149999D01*
X-12083966Y-9149999D02*
X-12050633Y-9083333D01*
X-12050633Y-9083333D02*
X-12017300Y-9049999D01*
X-12017300Y-9049999D02*
X-11950633Y-9016666D01*
X-11950633Y-9016666D02*
X-11850633Y-9016666D01*
X-11850633Y-9016666D02*
X-11783966Y-9049999D01*
X-11783966Y-9049999D02*
X-11750633Y-9083333D01*
X-11750633Y-9083333D02*
X-11717300Y-9149999D01*
X-11717300Y-9149999D02*
X-11717300Y-9416666D01*
X-11383966Y-8349999D02*
X-11383966Y-8749999D01*
X-11383966Y-8549999D02*
X-12083966Y-8549999D01*
X-12083966Y-8549999D02*
X-11983966Y-8616666D01*
X-11983966Y-8616666D02*
X-11917300Y-8683333D01*
X-11917300Y-8683333D02*
X-11883966Y-8749999D01*
X-16233333Y5983966D02*
X-16233333Y5417300D01*
X-16233333Y5417300D02*
X-16200000Y5350633D01*
X-16200000Y5350633D02*
X-16166666Y5317300D01*
X-16166666Y5317300D02*
X-16100000Y5283966D01*
X-16100000Y5283966D02*
X-15966666Y5283966D01*
X-15966666Y5283966D02*
X-15900000Y5317300D01*
X-15900000Y5317300D02*
X-15866666Y5350633D01*
X-15866666Y5350633D02*
X-15833333Y5417300D01*
X-15833333Y5417300D02*
X-15833333Y5983966D01*
X-15533333Y5917300D02*
X-15500000Y5950633D01*
X-15500000Y5950633D02*
X-15433333Y5983966D01*
X-15433333Y5983966D02*
X-15266667Y5983966D01*
X-15266667Y5983966D02*
X-15200000Y5950633D01*
X-15200000Y5950633D02*
X-15166667Y5917300D01*
X-15166667Y5917300D02*
X-15133333Y5850633D01*
X-15133333Y5850633D02*
X-15133333Y5783966D01*
X-15133333Y5783966D02*
X-15166667Y5683966D01*
X-15166667Y5683966D02*
X-15566667Y5283966D01*
X-15566667Y5283966D02*
X-15133333Y5283966D01*
X-13758333Y-3216033D02*
X-13758333Y-3782700D01*
X-13758333Y-3782700D02*
X-13725000Y-3849366D01*
X-13725000Y-3849366D02*
X-13691666Y-3882700D01*
X-13691666Y-3882700D02*
X-13625000Y-3916033D01*
X-13625000Y-3916033D02*
X-13491666Y-3916033D01*
X-13491666Y-3916033D02*
X-13425000Y-3882700D01*
X-13425000Y-3882700D02*
X-13391666Y-3849366D01*
X-13391666Y-3849366D02*
X-13358333Y-3782700D01*
X-13358333Y-3782700D02*
X-13358333Y-3216033D01*
X-12658333Y-3916033D02*
X-13058333Y-3916033D01*
X-12858333Y-3916033D02*
X-12858333Y-3216033D01*
X-12858333Y-3216033D02*
X-12925000Y-3316033D01*
X-12925000Y-3316033D02*
X-12991667Y-3382700D01*
X-12991667Y-3382700D02*
X-13058333Y-3416033D01*
X-16233333Y7817300D02*
X-16233333Y7483966D01*
X-16466666Y8183966D02*
X-16233333Y7817300D01*
X-16233333Y7817300D02*
X-15999999Y8183966D01*
X-15399999Y7483966D02*
X-15799999Y7483966D01*
X-15599999Y7483966D02*
X-15599999Y8183966D01*
X-15599999Y8183966D02*
X-15666666Y8083966D01*
X-15666666Y8083966D02*
X-15733333Y8017300D01*
X-15733333Y8017300D02*
X-15799999Y7983966D01*
X-30983966Y-11033333D02*
X-30417300Y-11033333D01*
X-30417300Y-11033333D02*
X-30350633Y-11000000D01*
X-30350633Y-11000000D02*
X-30317300Y-10966666D01*
X-30317300Y-10966666D02*
X-30283966Y-10900000D01*
X-30283966Y-10900000D02*
X-30283966Y-10766666D01*
X-30283966Y-10766666D02*
X-30317300Y-10700000D01*
X-30317300Y-10700000D02*
X-30350633Y-10666666D01*
X-30350633Y-10666666D02*
X-30417300Y-10633333D01*
X-30417300Y-10633333D02*
X-30983966Y-10633333D01*
X-30983966Y-10366667D02*
X-30983966Y-9933333D01*
X-30983966Y-9933333D02*
X-30717300Y-10166667D01*
X-30717300Y-10166667D02*
X-30717300Y-10066667D01*
X-30717300Y-10066667D02*
X-30683966Y-10000000D01*
X-30683966Y-10000000D02*
X-30650633Y-9966667D01*
X-30650633Y-9966667D02*
X-30583966Y-9933333D01*
X-30583966Y-9933333D02*
X-30417300Y-9933333D01*
X-30417300Y-9933333D02*
X-30350633Y-9966667D01*
X-30350633Y-9966667D02*
X-30317300Y-10000000D01*
X-30317300Y-10000000D02*
X-30283966Y-10066667D01*
X-30283966Y-10066667D02*
X-30283966Y-10266667D01*
X-30283966Y-10266667D02*
X-30317300Y-10333333D01*
X-30317300Y-10333333D02*
X-30350633Y-10366667D01*
X-11383966Y7449999D02*
X-11717300Y7216666D01*
X-11383966Y7049999D02*
X-12083966Y7049999D01*
X-12083966Y7049999D02*
X-12083966Y7316666D01*
X-12083966Y7316666D02*
X-12050633Y7383333D01*
X-12050633Y7383333D02*
X-12017300Y7416666D01*
X-12017300Y7416666D02*
X-11950633Y7449999D01*
X-11950633Y7449999D02*
X-11850633Y7449999D01*
X-11850633Y7449999D02*
X-11783966Y7416666D01*
X-11783966Y7416666D02*
X-11750633Y7383333D01*
X-11750633Y7383333D02*
X-11717300Y7316666D01*
X-11717300Y7316666D02*
X-11717300Y7049999D01*
X-12017300Y7716666D02*
X-12050633Y7749999D01*
X-12050633Y7749999D02*
X-12083966Y7816666D01*
X-12083966Y7816666D02*
X-12083966Y7983333D01*
X-12083966Y7983333D02*
X-12050633Y8049999D01*
X-12050633Y8049999D02*
X-12017300Y8083333D01*
X-12017300Y8083333D02*
X-11950633Y8116666D01*
X-11950633Y8116666D02*
X-11883966Y8116666D01*
X-11883966Y8116666D02*
X-11783966Y8083333D01*
X-11783966Y8083333D02*
X-11383966Y7683333D01*
X-11383966Y7683333D02*
X-11383966Y8116666D01*
X-12083966Y8350000D02*
X-12083966Y8783333D01*
X-12083966Y8783333D02*
X-11817300Y8550000D01*
X-11817300Y8550000D02*
X-11817300Y8650000D01*
X-11817300Y8650000D02*
X-11783966Y8716666D01*
X-11783966Y8716666D02*
X-11750633Y8750000D01*
X-11750633Y8750000D02*
X-11683966Y8783333D01*
X-11683966Y8783333D02*
X-11517300Y8783333D01*
X-11517300Y8783333D02*
X-11450633Y8750000D01*
X-11450633Y8750000D02*
X-11417300Y8716666D01*
X-11417300Y8716666D02*
X-11383966Y8650000D01*
X-11383966Y8650000D02*
X-11383966Y8450000D01*
X-11383966Y8450000D02*
X-11417300Y8383333D01*
X-11417300Y8383333D02*
X-11450633Y8350000D01*
X-7250000Y2883966D02*
X-7483333Y3217300D01*
X-7650000Y2883966D02*
X-7650000Y3583966D01*
X-7650000Y3583966D02*
X-7383333Y3583966D01*
X-7383333Y3583966D02*
X-7316667Y3550633D01*
X-7316667Y3550633D02*
X-7283333Y3517300D01*
X-7283333Y3517300D02*
X-7250000Y3450633D01*
X-7250000Y3450633D02*
X-7250000Y3350633D01*
X-7250000Y3350633D02*
X-7283333Y3283966D01*
X-7283333Y3283966D02*
X-7316667Y3250633D01*
X-7316667Y3250633D02*
X-7383333Y3217300D01*
X-7383333Y3217300D02*
X-7650000Y3217300D01*
X-6983333Y3517300D02*
X-6950000Y3550633D01*
X-6950000Y3550633D02*
X-6883333Y3583966D01*
X-6883333Y3583966D02*
X-6716667Y3583966D01*
X-6716667Y3583966D02*
X-6650000Y3550633D01*
X-6650000Y3550633D02*
X-6616667Y3517300D01*
X-6616667Y3517300D02*
X-6583333Y3450633D01*
X-6583333Y3450633D02*
X-6583333Y3383966D01*
X-6583333Y3383966D02*
X-6616667Y3283966D01*
X-6616667Y3283966D02*
X-7016667Y2883966D01*
X-7016667Y2883966D02*
X-6583333Y2883966D01*
X-6316666Y3517300D02*
X-6283333Y3550633D01*
X-6283333Y3550633D02*
X-6216666Y3583966D01*
X-6216666Y3583966D02*
X-6050000Y3583966D01*
X-6050000Y3583966D02*
X-5983333Y3550633D01*
X-5983333Y3550633D02*
X-5950000Y3517300D01*
X-5950000Y3517300D02*
X-5916666Y3450633D01*
X-5916666Y3450633D02*
X-5916666Y3383966D01*
X-5916666Y3383966D02*
X-5950000Y3283966D01*
X-5950000Y3283966D02*
X-6350000Y2883966D01*
X-6350000Y2883966D02*
X-5916666Y2883966D01*
X-7250000Y1783966D02*
X-7483333Y2117300D01*
X-7650000Y1783966D02*
X-7650000Y2483966D01*
X-7650000Y2483966D02*
X-7383333Y2483966D01*
X-7383333Y2483966D02*
X-7316667Y2450633D01*
X-7316667Y2450633D02*
X-7283333Y2417300D01*
X-7283333Y2417300D02*
X-7250000Y2350633D01*
X-7250000Y2350633D02*
X-7250000Y2250633D01*
X-7250000Y2250633D02*
X-7283333Y2183966D01*
X-7283333Y2183966D02*
X-7316667Y2150633D01*
X-7316667Y2150633D02*
X-7383333Y2117300D01*
X-7383333Y2117300D02*
X-7650000Y2117300D01*
X-6983333Y2417300D02*
X-6950000Y2450633D01*
X-6950000Y2450633D02*
X-6883333Y2483966D01*
X-6883333Y2483966D02*
X-6716667Y2483966D01*
X-6716667Y2483966D02*
X-6650000Y2450633D01*
X-6650000Y2450633D02*
X-6616667Y2417300D01*
X-6616667Y2417300D02*
X-6583333Y2350633D01*
X-6583333Y2350633D02*
X-6583333Y2283966D01*
X-6583333Y2283966D02*
X-6616667Y2183966D01*
X-6616667Y2183966D02*
X-7016667Y1783966D01*
X-7016667Y1783966D02*
X-6583333Y1783966D01*
X-5916666Y1783966D02*
X-6316666Y1783966D01*
X-6116666Y1783966D02*
X-6116666Y2483966D01*
X-6116666Y2483966D02*
X-6183333Y2383966D01*
X-6183333Y2383966D02*
X-6250000Y2317300D01*
X-6250000Y2317300D02*
X-6316666Y2283966D01*
X-7250000Y683966D02*
X-7483333Y1017300D01*
X-7650000Y683966D02*
X-7650000Y1383966D01*
X-7650000Y1383966D02*
X-7383333Y1383966D01*
X-7383333Y1383966D02*
X-7316667Y1350633D01*
X-7316667Y1350633D02*
X-7283333Y1317300D01*
X-7283333Y1317300D02*
X-7250000Y1250633D01*
X-7250000Y1250633D02*
X-7250000Y1150633D01*
X-7250000Y1150633D02*
X-7283333Y1083966D01*
X-7283333Y1083966D02*
X-7316667Y1050633D01*
X-7316667Y1050633D02*
X-7383333Y1017300D01*
X-7383333Y1017300D02*
X-7650000Y1017300D01*
X-6983333Y1317300D02*
X-6950000Y1350633D01*
X-6950000Y1350633D02*
X-6883333Y1383966D01*
X-6883333Y1383966D02*
X-6716667Y1383966D01*
X-6716667Y1383966D02*
X-6650000Y1350633D01*
X-6650000Y1350633D02*
X-6616667Y1317300D01*
X-6616667Y1317300D02*
X-6583333Y1250633D01*
X-6583333Y1250633D02*
X-6583333Y1183966D01*
X-6583333Y1183966D02*
X-6616667Y1083966D01*
X-6616667Y1083966D02*
X-7016667Y683966D01*
X-7016667Y683966D02*
X-6583333Y683966D01*
X-6150000Y1383966D02*
X-6083333Y1383966D01*
X-6083333Y1383966D02*
X-6016666Y1350633D01*
X-6016666Y1350633D02*
X-5983333Y1317300D01*
X-5983333Y1317300D02*
X-5950000Y1250633D01*
X-5950000Y1250633D02*
X-5916666Y1117300D01*
X-5916666Y1117300D02*
X-5916666Y950633D01*
X-5916666Y950633D02*
X-5950000Y817300D01*
X-5950000Y817300D02*
X-5983333Y750633D01*
X-5983333Y750633D02*
X-6016666Y717300D01*
X-6016666Y717300D02*
X-6083333Y683966D01*
X-6083333Y683966D02*
X-6150000Y683966D01*
X-6150000Y683966D02*
X-6216666Y717300D01*
X-6216666Y717300D02*
X-6250000Y750633D01*
X-6250000Y750633D02*
X-6283333Y817300D01*
X-6283333Y817300D02*
X-6316666Y950633D01*
X-6316666Y950633D02*
X-6316666Y1117300D01*
X-6316666Y1117300D02*
X-6283333Y1250633D01*
X-6283333Y1250633D02*
X-6250000Y1317300D01*
X-6250000Y1317300D02*
X-6216666Y1350633D01*
X-6216666Y1350633D02*
X-6150000Y1383966D01*
X-7250000Y-416033D02*
X-7483333Y-82700D01*
X-7650000Y-416033D02*
X-7650000Y283966D01*
X-7650000Y283966D02*
X-7383333Y283966D01*
X-7383333Y283966D02*
X-7316667Y250633D01*
X-7316667Y250633D02*
X-7283333Y217300D01*
X-7283333Y217300D02*
X-7250000Y150633D01*
X-7250000Y150633D02*
X-7250000Y50633D01*
X-7250000Y50633D02*
X-7283333Y-16033D01*
X-7283333Y-16033D02*
X-7316667Y-49366D01*
X-7316667Y-49366D02*
X-7383333Y-82700D01*
X-7383333Y-82700D02*
X-7650000Y-82700D01*
X-6583333Y-416033D02*
X-6983333Y-416033D01*
X-6783333Y-416033D02*
X-6783333Y283966D01*
X-6783333Y283966D02*
X-6850000Y183966D01*
X-6850000Y183966D02*
X-6916667Y117299D01*
X-6916667Y117299D02*
X-6983333Y83966D01*
X-6250000Y-416033D02*
X-6116666Y-416033D01*
X-6116666Y-416033D02*
X-6050000Y-382700D01*
X-6050000Y-382700D02*
X-6016666Y-349366D01*
X-6016666Y-349366D02*
X-5950000Y-249366D01*
X-5950000Y-249366D02*
X-5916666Y-116033D01*
X-5916666Y-116033D02*
X-5916666Y150633D01*
X-5916666Y150633D02*
X-5950000Y217300D01*
X-5950000Y217300D02*
X-5983333Y250633D01*
X-5983333Y250633D02*
X-6050000Y283966D01*
X-6050000Y283966D02*
X-6183333Y283966D01*
X-6183333Y283966D02*
X-6250000Y250633D01*
X-6250000Y250633D02*
X-6283333Y217300D01*
X-6283333Y217300D02*
X-6316666Y150633D01*
X-6316666Y150633D02*
X-6316666Y-16033D01*
X-6316666Y-16033D02*
X-6283333Y-82700D01*
X-6283333Y-82700D02*
X-6250000Y-116033D01*
X-6250000Y-116033D02*
X-6183333Y-149366D01*
X-6183333Y-149366D02*
X-6050000Y-149366D01*
X-6050000Y-149366D02*
X-5983333Y-116033D01*
X-5983333Y-116033D02*
X-5950000Y-82700D01*
X-5950000Y-82700D02*
X-5916666Y-16033D01*
X-7150000Y-1516033D02*
X-7383333Y-1182700D01*
X-7550000Y-1516033D02*
X-7550000Y-816033D01*
X-7550000Y-816033D02*
X-7283333Y-816033D01*
X-7283333Y-816033D02*
X-7216667Y-849366D01*
X-7216667Y-849366D02*
X-7183333Y-882700D01*
X-7183333Y-882700D02*
X-7150000Y-949366D01*
X-7150000Y-949366D02*
X-7150000Y-1049366D01*
X-7150000Y-1049366D02*
X-7183333Y-1116033D01*
X-7183333Y-1116033D02*
X-7216667Y-1149366D01*
X-7216667Y-1149366D02*
X-7283333Y-1182700D01*
X-7283333Y-1182700D02*
X-7550000Y-1182700D01*
X-6483333Y-1516033D02*
X-6883333Y-1516033D01*
X-6683333Y-1516033D02*
X-6683333Y-816033D01*
X-6683333Y-816033D02*
X-6750000Y-916033D01*
X-6750000Y-916033D02*
X-6816667Y-982700D01*
X-6816667Y-982700D02*
X-6883333Y-1016033D01*
X-6083333Y-1116033D02*
X-6150000Y-1082700D01*
X-6150000Y-1082700D02*
X-6183333Y-1049366D01*
X-6183333Y-1049366D02*
X-6216666Y-982700D01*
X-6216666Y-982700D02*
X-6216666Y-949366D01*
X-6216666Y-949366D02*
X-6183333Y-882700D01*
X-6183333Y-882700D02*
X-6150000Y-849366D01*
X-6150000Y-849366D02*
X-6083333Y-816033D01*
X-6083333Y-816033D02*
X-5950000Y-816033D01*
X-5950000Y-816033D02*
X-5883333Y-849366D01*
X-5883333Y-849366D02*
X-5850000Y-882700D01*
X-5850000Y-882700D02*
X-5816666Y-949366D01*
X-5816666Y-949366D02*
X-5816666Y-982700D01*
X-5816666Y-982700D02*
X-5850000Y-1049366D01*
X-5850000Y-1049366D02*
X-5883333Y-1082700D01*
X-5883333Y-1082700D02*
X-5950000Y-1116033D01*
X-5950000Y-1116033D02*
X-6083333Y-1116033D01*
X-6083333Y-1116033D02*
X-6150000Y-1149366D01*
X-6150000Y-1149366D02*
X-6183333Y-1182700D01*
X-6183333Y-1182700D02*
X-6216666Y-1249366D01*
X-6216666Y-1249366D02*
X-6216666Y-1382700D01*
X-6216666Y-1382700D02*
X-6183333Y-1449366D01*
X-6183333Y-1449366D02*
X-6150000Y-1482700D01*
X-6150000Y-1482700D02*
X-6083333Y-1516033D01*
X-6083333Y-1516033D02*
X-5950000Y-1516033D01*
X-5950000Y-1516033D02*
X-5883333Y-1482700D01*
X-5883333Y-1482700D02*
X-5850000Y-1449366D01*
X-5850000Y-1449366D02*
X-5816666Y-1382700D01*
X-5816666Y-1382700D02*
X-5816666Y-1249366D01*
X-5816666Y-1249366D02*
X-5850000Y-1182700D01*
X-5850000Y-1182700D02*
X-5883333Y-1149366D01*
X-5883333Y-1149366D02*
X-5950000Y-1116033D01*
X-7150000Y-2616033D02*
X-7383333Y-2282700D01*
X-7550000Y-2616033D02*
X-7550000Y-1916033D01*
X-7550000Y-1916033D02*
X-7283333Y-1916033D01*
X-7283333Y-1916033D02*
X-7216667Y-1949366D01*
X-7216667Y-1949366D02*
X-7183333Y-1982700D01*
X-7183333Y-1982700D02*
X-7150000Y-2049366D01*
X-7150000Y-2049366D02*
X-7150000Y-2149366D01*
X-7150000Y-2149366D02*
X-7183333Y-2216033D01*
X-7183333Y-2216033D02*
X-7216667Y-2249366D01*
X-7216667Y-2249366D02*
X-7283333Y-2282700D01*
X-7283333Y-2282700D02*
X-7550000Y-2282700D01*
X-6483333Y-2616033D02*
X-6883333Y-2616033D01*
X-6683333Y-2616033D02*
X-6683333Y-1916033D01*
X-6683333Y-1916033D02*
X-6750000Y-2016033D01*
X-6750000Y-2016033D02*
X-6816667Y-2082700D01*
X-6816667Y-2082700D02*
X-6883333Y-2116033D01*
X-6250000Y-1916033D02*
X-5783333Y-1916033D01*
X-5783333Y-1916033D02*
X-6083333Y-2616033D01*
X-31683966Y8849999D02*
X-32017300Y8616666D01*
X-31683966Y8449999D02*
X-32383966Y8449999D01*
X-32383966Y8449999D02*
X-32383966Y8716666D01*
X-32383966Y8716666D02*
X-32350633Y8783333D01*
X-32350633Y8783333D02*
X-32317300Y8816666D01*
X-32317300Y8816666D02*
X-32250633Y8849999D01*
X-32250633Y8849999D02*
X-32150633Y8849999D01*
X-32150633Y8849999D02*
X-32083966Y8816666D01*
X-32083966Y8816666D02*
X-32050633Y8783333D01*
X-32050633Y8783333D02*
X-32017300Y8716666D01*
X-32017300Y8716666D02*
X-32017300Y8449999D01*
X-31683966Y9516666D02*
X-31683966Y9116666D01*
X-31683966Y9316666D02*
X-32383966Y9316666D01*
X-32383966Y9316666D02*
X-32283966Y9249999D01*
X-32283966Y9249999D02*
X-32217300Y9183333D01*
X-32217300Y9183333D02*
X-32183966Y9116666D01*
X-32383966Y10116666D02*
X-32383966Y9983333D01*
X-32383966Y9983333D02*
X-32350633Y9916666D01*
X-32350633Y9916666D02*
X-32317300Y9883333D01*
X-32317300Y9883333D02*
X-32217300Y9816666D01*
X-32217300Y9816666D02*
X-32083966Y9783333D01*
X-32083966Y9783333D02*
X-31817300Y9783333D01*
X-31817300Y9783333D02*
X-31750633Y9816666D01*
X-31750633Y9816666D02*
X-31717300Y9850000D01*
X-31717300Y9850000D02*
X-31683966Y9916666D01*
X-31683966Y9916666D02*
X-31683966Y10050000D01*
X-31683966Y10050000D02*
X-31717300Y10116666D01*
X-31717300Y10116666D02*
X-31750633Y10150000D01*
X-31750633Y10150000D02*
X-31817300Y10183333D01*
X-31817300Y10183333D02*
X-31983966Y10183333D01*
X-31983966Y10183333D02*
X-32050633Y10150000D01*
X-32050633Y10150000D02*
X-32083966Y10116666D01*
X-32083966Y10116666D02*
X-32117300Y10050000D01*
X-32117300Y10050000D02*
X-32117300Y9916666D01*
X-32117300Y9916666D02*
X-32083966Y9850000D01*
X-32083966Y9850000D02*
X-32050633Y9816666D01*
X-32050633Y9816666D02*
X-31983966Y9783333D01*
X-21383966Y18549999D02*
X-21717300Y18316666D01*
X-21383966Y18149999D02*
X-22083966Y18149999D01*
X-22083966Y18149999D02*
X-22083966Y18416666D01*
X-22083966Y18416666D02*
X-22050633Y18483333D01*
X-22050633Y18483333D02*
X-22017300Y18516666D01*
X-22017300Y18516666D02*
X-21950633Y18549999D01*
X-21950633Y18549999D02*
X-21850633Y18549999D01*
X-21850633Y18549999D02*
X-21783966Y18516666D01*
X-21783966Y18516666D02*
X-21750633Y18483333D01*
X-21750633Y18483333D02*
X-21717300Y18416666D01*
X-21717300Y18416666D02*
X-21717300Y18149999D01*
X-21383966Y19216666D02*
X-21383966Y18816666D01*
X-21383966Y19016666D02*
X-22083966Y19016666D01*
X-22083966Y19016666D02*
X-21983966Y18949999D01*
X-21983966Y18949999D02*
X-21917300Y18883333D01*
X-21917300Y18883333D02*
X-21883966Y18816666D01*
X-22083966Y19850000D02*
X-22083966Y19516666D01*
X-22083966Y19516666D02*
X-21750633Y19483333D01*
X-21750633Y19483333D02*
X-21783966Y19516666D01*
X-21783966Y19516666D02*
X-21817300Y19583333D01*
X-21817300Y19583333D02*
X-21817300Y19750000D01*
X-21817300Y19750000D02*
X-21783966Y19816666D01*
X-21783966Y19816666D02*
X-21750633Y19850000D01*
X-21750633Y19850000D02*
X-21683966Y19883333D01*
X-21683966Y19883333D02*
X-21517300Y19883333D01*
X-21517300Y19883333D02*
X-21450633Y19850000D01*
X-21450633Y19850000D02*
X-21417300Y19816666D01*
X-21417300Y19816666D02*
X-21383966Y19750000D01*
X-21383966Y19750000D02*
X-21383966Y19583333D01*
X-21383966Y19583333D02*
X-21417300Y19516666D01*
X-21417300Y19516666D02*
X-21450633Y19483333D01*
X-23883966Y18549999D02*
X-24217300Y18316666D01*
X-23883966Y18149999D02*
X-24583966Y18149999D01*
X-24583966Y18149999D02*
X-24583966Y18416666D01*
X-24583966Y18416666D02*
X-24550633Y18483333D01*
X-24550633Y18483333D02*
X-24517300Y18516666D01*
X-24517300Y18516666D02*
X-24450633Y18549999D01*
X-24450633Y18549999D02*
X-24350633Y18549999D01*
X-24350633Y18549999D02*
X-24283966Y18516666D01*
X-24283966Y18516666D02*
X-24250633Y18483333D01*
X-24250633Y18483333D02*
X-24217300Y18416666D01*
X-24217300Y18416666D02*
X-24217300Y18149999D01*
X-23883966Y19216666D02*
X-23883966Y18816666D01*
X-23883966Y19016666D02*
X-24583966Y19016666D01*
X-24583966Y19016666D02*
X-24483966Y18949999D01*
X-24483966Y18949999D02*
X-24417300Y18883333D01*
X-24417300Y18883333D02*
X-24383966Y18816666D01*
X-24350633Y19816666D02*
X-23883966Y19816666D01*
X-24617300Y19650000D02*
X-24117300Y19483333D01*
X-24117300Y19483333D02*
X-24117300Y19916666D01*
X-26383966Y18549999D02*
X-26717300Y18316666D01*
X-26383966Y18149999D02*
X-27083966Y18149999D01*
X-27083966Y18149999D02*
X-27083966Y18416666D01*
X-27083966Y18416666D02*
X-27050633Y18483333D01*
X-27050633Y18483333D02*
X-27017300Y18516666D01*
X-27017300Y18516666D02*
X-26950633Y18549999D01*
X-26950633Y18549999D02*
X-26850633Y18549999D01*
X-26850633Y18549999D02*
X-26783966Y18516666D01*
X-26783966Y18516666D02*
X-26750633Y18483333D01*
X-26750633Y18483333D02*
X-26717300Y18416666D01*
X-26717300Y18416666D02*
X-26717300Y18149999D01*
X-26383966Y19216666D02*
X-26383966Y18816666D01*
X-26383966Y19016666D02*
X-27083966Y19016666D01*
X-27083966Y19016666D02*
X-26983966Y18949999D01*
X-26983966Y18949999D02*
X-26917300Y18883333D01*
X-26917300Y18883333D02*
X-26883966Y18816666D01*
X-27083966Y19450000D02*
X-27083966Y19883333D01*
X-27083966Y19883333D02*
X-26817300Y19650000D01*
X-26817300Y19650000D02*
X-26817300Y19750000D01*
X-26817300Y19750000D02*
X-26783966Y19816666D01*
X-26783966Y19816666D02*
X-26750633Y19850000D01*
X-26750633Y19850000D02*
X-26683966Y19883333D01*
X-26683966Y19883333D02*
X-26517300Y19883333D01*
X-26517300Y19883333D02*
X-26450633Y19850000D01*
X-26450633Y19850000D02*
X-26417300Y19816666D01*
X-26417300Y19816666D02*
X-26383966Y19750000D01*
X-26383966Y19750000D02*
X-26383966Y19550000D01*
X-26383966Y19550000D02*
X-26417300Y19483333D01*
X-26417300Y19483333D02*
X-26450633Y19450000D01*
X-28983966Y18549999D02*
X-29317300Y18316666D01*
X-28983966Y18149999D02*
X-29683966Y18149999D01*
X-29683966Y18149999D02*
X-29683966Y18416666D01*
X-29683966Y18416666D02*
X-29650633Y18483333D01*
X-29650633Y18483333D02*
X-29617300Y18516666D01*
X-29617300Y18516666D02*
X-29550633Y18549999D01*
X-29550633Y18549999D02*
X-29450633Y18549999D01*
X-29450633Y18549999D02*
X-29383966Y18516666D01*
X-29383966Y18516666D02*
X-29350633Y18483333D01*
X-29350633Y18483333D02*
X-29317300Y18416666D01*
X-29317300Y18416666D02*
X-29317300Y18149999D01*
X-28983966Y19216666D02*
X-28983966Y18816666D01*
X-28983966Y19016666D02*
X-29683966Y19016666D01*
X-29683966Y19016666D02*
X-29583966Y18949999D01*
X-29583966Y18949999D02*
X-29517300Y18883333D01*
X-29517300Y18883333D02*
X-29483966Y18816666D01*
X-29617300Y19483333D02*
X-29650633Y19516666D01*
X-29650633Y19516666D02*
X-29683966Y19583333D01*
X-29683966Y19583333D02*
X-29683966Y19750000D01*
X-29683966Y19750000D02*
X-29650633Y19816666D01*
X-29650633Y19816666D02*
X-29617300Y19850000D01*
X-29617300Y19850000D02*
X-29550633Y19883333D01*
X-29550633Y19883333D02*
X-29483966Y19883333D01*
X-29483966Y19883333D02*
X-29383966Y19850000D01*
X-29383966Y19850000D02*
X-28983966Y19450000D01*
X-28983966Y19450000D02*
X-28983966Y19883333D01*
X-37350000Y-15416033D02*
X-37583333Y-15082700D01*
X-37750000Y-15416033D02*
X-37750000Y-14716033D01*
X-37750000Y-14716033D02*
X-37483333Y-14716033D01*
X-37483333Y-14716033D02*
X-37416667Y-14749366D01*
X-37416667Y-14749366D02*
X-37383333Y-14782700D01*
X-37383333Y-14782700D02*
X-37350000Y-14849366D01*
X-37350000Y-14849366D02*
X-37350000Y-14949366D01*
X-37350000Y-14949366D02*
X-37383333Y-15016033D01*
X-37383333Y-15016033D02*
X-37416667Y-15049366D01*
X-37416667Y-15049366D02*
X-37483333Y-15082700D01*
X-37483333Y-15082700D02*
X-37750000Y-15082700D01*
X-36683333Y-15416033D02*
X-37083333Y-15416033D01*
X-36883333Y-15416033D02*
X-36883333Y-14716033D01*
X-36883333Y-14716033D02*
X-36950000Y-14816033D01*
X-36950000Y-14816033D02*
X-37016667Y-14882700D01*
X-37016667Y-14882700D02*
X-37083333Y-14916033D01*
X-36016666Y-15416033D02*
X-36416666Y-15416033D01*
X-36216666Y-15416033D02*
X-36216666Y-14716033D01*
X-36216666Y-14716033D02*
X-36283333Y-14816033D01*
X-36283333Y-14816033D02*
X-36350000Y-14882700D01*
X-36350000Y-14882700D02*
X-36416666Y-14916033D01*
X-37350000Y-13426033D02*
X-37583333Y-13092700D01*
X-37750000Y-13426033D02*
X-37750000Y-12726033D01*
X-37750000Y-12726033D02*
X-37483333Y-12726033D01*
X-37483333Y-12726033D02*
X-37416667Y-12759366D01*
X-37416667Y-12759366D02*
X-37383333Y-12792700D01*
X-37383333Y-12792700D02*
X-37350000Y-12859366D01*
X-37350000Y-12859366D02*
X-37350000Y-12959366D01*
X-37350000Y-12959366D02*
X-37383333Y-13026033D01*
X-37383333Y-13026033D02*
X-37416667Y-13059366D01*
X-37416667Y-13059366D02*
X-37483333Y-13092700D01*
X-37483333Y-13092700D02*
X-37750000Y-13092700D01*
X-36683333Y-13426033D02*
X-37083333Y-13426033D01*
X-36883333Y-13426033D02*
X-36883333Y-12726033D01*
X-36883333Y-12726033D02*
X-36950000Y-12826033D01*
X-36950000Y-12826033D02*
X-37016667Y-12892700D01*
X-37016667Y-12892700D02*
X-37083333Y-12926033D01*
X-36250000Y-12726033D02*
X-36183333Y-12726033D01*
X-36183333Y-12726033D02*
X-36116666Y-12759366D01*
X-36116666Y-12759366D02*
X-36083333Y-12792700D01*
X-36083333Y-12792700D02*
X-36050000Y-12859366D01*
X-36050000Y-12859366D02*
X-36016666Y-12992700D01*
X-36016666Y-12992700D02*
X-36016666Y-13159366D01*
X-36016666Y-13159366D02*
X-36050000Y-13292700D01*
X-36050000Y-13292700D02*
X-36083333Y-13359366D01*
X-36083333Y-13359366D02*
X-36116666Y-13392700D01*
X-36116666Y-13392700D02*
X-36183333Y-13426033D01*
X-36183333Y-13426033D02*
X-36250000Y-13426033D01*
X-36250000Y-13426033D02*
X-36316666Y-13392700D01*
X-36316666Y-13392700D02*
X-36350000Y-13359366D01*
X-36350000Y-13359366D02*
X-36383333Y-13292700D01*
X-36383333Y-13292700D02*
X-36416666Y-13159366D01*
X-36416666Y-13159366D02*
X-36416666Y-12992700D01*
X-36416666Y-12992700D02*
X-36383333Y-12859366D01*
X-36383333Y-12859366D02*
X-36350000Y-12792700D01*
X-36350000Y-12792700D02*
X-36316666Y-12759366D01*
X-36316666Y-12759366D02*
X-36250000Y-12726033D01*
X-28116666Y1953966D02*
X-28349999Y2287300D01*
X-28516666Y1953966D02*
X-28516666Y2653966D01*
X-28516666Y2653966D02*
X-28249999Y2653966D01*
X-28249999Y2653966D02*
X-28183333Y2620633D01*
X-28183333Y2620633D02*
X-28149999Y2587300D01*
X-28149999Y2587300D02*
X-28116666Y2520633D01*
X-28116666Y2520633D02*
X-28116666Y2420633D01*
X-28116666Y2420633D02*
X-28149999Y2353966D01*
X-28149999Y2353966D02*
X-28183333Y2320633D01*
X-28183333Y2320633D02*
X-28249999Y2287300D01*
X-28249999Y2287300D02*
X-28516666Y2287300D01*
X-27783333Y1953966D02*
X-27649999Y1953966D01*
X-27649999Y1953966D02*
X-27583333Y1987300D01*
X-27583333Y1987300D02*
X-27549999Y2020633D01*
X-27549999Y2020633D02*
X-27483333Y2120633D01*
X-27483333Y2120633D02*
X-27449999Y2253966D01*
X-27449999Y2253966D02*
X-27449999Y2520633D01*
X-27449999Y2520633D02*
X-27483333Y2587300D01*
X-27483333Y2587300D02*
X-27516666Y2620633D01*
X-27516666Y2620633D02*
X-27583333Y2653966D01*
X-27583333Y2653966D02*
X-27716666Y2653966D01*
X-27716666Y2653966D02*
X-27783333Y2620633D01*
X-27783333Y2620633D02*
X-27816666Y2587300D01*
X-27816666Y2587300D02*
X-27849999Y2520633D01*
X-27849999Y2520633D02*
X-27849999Y2353966D01*
X-27849999Y2353966D02*
X-27816666Y2287300D01*
X-27816666Y2287300D02*
X-27783333Y2253966D01*
X-27783333Y2253966D02*
X-27716666Y2220633D01*
X-27716666Y2220633D02*
X-27583333Y2220633D01*
X-27583333Y2220633D02*
X-27516666Y2253966D01*
X-27516666Y2253966D02*
X-27483333Y2287300D01*
X-27483333Y2287300D02*
X-27449999Y2353966D01*
X-28116666Y-4116033D02*
X-28349999Y-3782700D01*
X-28516666Y-4116033D02*
X-28516666Y-3416033D01*
X-28516666Y-3416033D02*
X-28249999Y-3416033D01*
X-28249999Y-3416033D02*
X-28183333Y-3449366D01*
X-28183333Y-3449366D02*
X-28149999Y-3482700D01*
X-28149999Y-3482700D02*
X-28116666Y-3549366D01*
X-28116666Y-3549366D02*
X-28116666Y-3649366D01*
X-28116666Y-3649366D02*
X-28149999Y-3716033D01*
X-28149999Y-3716033D02*
X-28183333Y-3749366D01*
X-28183333Y-3749366D02*
X-28249999Y-3782700D01*
X-28249999Y-3782700D02*
X-28516666Y-3782700D01*
X-27716666Y-3716033D02*
X-27783333Y-3682700D01*
X-27783333Y-3682700D02*
X-27816666Y-3649366D01*
X-27816666Y-3649366D02*
X-27849999Y-3582700D01*
X-27849999Y-3582700D02*
X-27849999Y-3549366D01*
X-27849999Y-3549366D02*
X-27816666Y-3482700D01*
X-27816666Y-3482700D02*
X-27783333Y-3449366D01*
X-27783333Y-3449366D02*
X-27716666Y-3416033D01*
X-27716666Y-3416033D02*
X-27583333Y-3416033D01*
X-27583333Y-3416033D02*
X-27516666Y-3449366D01*
X-27516666Y-3449366D02*
X-27483333Y-3482700D01*
X-27483333Y-3482700D02*
X-27449999Y-3549366D01*
X-27449999Y-3549366D02*
X-27449999Y-3582700D01*
X-27449999Y-3582700D02*
X-27483333Y-3649366D01*
X-27483333Y-3649366D02*
X-27516666Y-3682700D01*
X-27516666Y-3682700D02*
X-27583333Y-3716033D01*
X-27583333Y-3716033D02*
X-27716666Y-3716033D01*
X-27716666Y-3716033D02*
X-27783333Y-3749366D01*
X-27783333Y-3749366D02*
X-27816666Y-3782700D01*
X-27816666Y-3782700D02*
X-27849999Y-3849366D01*
X-27849999Y-3849366D02*
X-27849999Y-3982700D01*
X-27849999Y-3982700D02*
X-27816666Y-4049366D01*
X-27816666Y-4049366D02*
X-27783333Y-4082700D01*
X-27783333Y-4082700D02*
X-27716666Y-4116033D01*
X-27716666Y-4116033D02*
X-27583333Y-4116033D01*
X-27583333Y-4116033D02*
X-27516666Y-4082700D01*
X-27516666Y-4082700D02*
X-27483333Y-4049366D01*
X-27483333Y-4049366D02*
X-27449999Y-3982700D01*
X-27449999Y-3982700D02*
X-27449999Y-3849366D01*
X-27449999Y-3849366D02*
X-27483333Y-3782700D01*
X-27483333Y-3782700D02*
X-27516666Y-3749366D01*
X-27516666Y-3749366D02*
X-27583333Y-3716033D01*
X-12283966Y9583333D02*
X-12617300Y9350000D01*
X-12283966Y9183333D02*
X-12983966Y9183333D01*
X-12983966Y9183333D02*
X-12983966Y9450000D01*
X-12983966Y9450000D02*
X-12950633Y9516667D01*
X-12950633Y9516667D02*
X-12917300Y9550000D01*
X-12917300Y9550000D02*
X-12850633Y9583333D01*
X-12850633Y9583333D02*
X-12750633Y9583333D01*
X-12750633Y9583333D02*
X-12683966Y9550000D01*
X-12683966Y9550000D02*
X-12650633Y9516667D01*
X-12650633Y9516667D02*
X-12617300Y9450000D01*
X-12617300Y9450000D02*
X-12617300Y9183333D01*
X-12983966Y10216667D02*
X-12983966Y9883333D01*
X-12983966Y9883333D02*
X-12650633Y9850000D01*
X-12650633Y9850000D02*
X-12683966Y9883333D01*
X-12683966Y9883333D02*
X-12717300Y9950000D01*
X-12717300Y9950000D02*
X-12717300Y10116667D01*
X-12717300Y10116667D02*
X-12683966Y10183333D01*
X-12683966Y10183333D02*
X-12650633Y10216667D01*
X-12650633Y10216667D02*
X-12583966Y10250000D01*
X-12583966Y10250000D02*
X-12417300Y10250000D01*
X-12417300Y10250000D02*
X-12350633Y10216667D01*
X-12350633Y10216667D02*
X-12317300Y10183333D01*
X-12317300Y10183333D02*
X-12283966Y10116667D01*
X-12283966Y10116667D02*
X-12283966Y9950000D01*
X-12283966Y9950000D02*
X-12317300Y9883333D01*
X-12317300Y9883333D02*
X-12350633Y9850000D01*
X-11183966Y9583333D02*
X-11517300Y9350000D01*
X-11183966Y9183333D02*
X-11883966Y9183333D01*
X-11883966Y9183333D02*
X-11883966Y9450000D01*
X-11883966Y9450000D02*
X-11850633Y9516667D01*
X-11850633Y9516667D02*
X-11817300Y9550000D01*
X-11817300Y9550000D02*
X-11750633Y9583333D01*
X-11750633Y9583333D02*
X-11650633Y9583333D01*
X-11650633Y9583333D02*
X-11583966Y9550000D01*
X-11583966Y9550000D02*
X-11550633Y9516667D01*
X-11550633Y9516667D02*
X-11517300Y9450000D01*
X-11517300Y9450000D02*
X-11517300Y9183333D01*
X-11650633Y10183333D02*
X-11183966Y10183333D01*
X-11917300Y10016667D02*
X-11417300Y9850000D01*
X-11417300Y9850000D02*
X-11417300Y10283333D01*
X-26183966Y-11916667D02*
X-26183966Y-12250000D01*
X-26183966Y-12250000D02*
X-26883966Y-12250000D01*
X-26183966Y-11316666D02*
X-26183966Y-11716666D01*
X-26183966Y-11516666D02*
X-26883966Y-11516666D01*
X-26883966Y-11516666D02*
X-26783966Y-11583333D01*
X-26783966Y-11583333D02*
X-26717300Y-11650000D01*
X-26717300Y-11650000D02*
X-26683966Y-11716666D01*
X-8433333Y15583966D02*
X-8433333Y15083966D01*
X-8433333Y15083966D02*
X-8466666Y14983966D01*
X-8466666Y14983966D02*
X-8533333Y14917300D01*
X-8533333Y14917300D02*
X-8633333Y14883966D01*
X-8633333Y14883966D02*
X-8700000Y14883966D01*
X-7800000Y15350633D02*
X-7800000Y14883966D01*
X-7966667Y15617300D02*
X-8133333Y15117300D01*
X-8133333Y15117300D02*
X-7700000Y15117300D01*
X-15333333Y15683966D02*
X-15333333Y15183966D01*
X-15333333Y15183966D02*
X-15366666Y15083966D01*
X-15366666Y15083966D02*
X-15433333Y15017300D01*
X-15433333Y15017300D02*
X-15533333Y14983966D01*
X-15533333Y14983966D02*
X-15600000Y14983966D01*
X-15066667Y15683966D02*
X-14633333Y15683966D01*
X-14633333Y15683966D02*
X-14866667Y15417300D01*
X-14866667Y15417300D02*
X-14766667Y15417300D01*
X-14766667Y15417300D02*
X-14700000Y15383966D01*
X-14700000Y15383966D02*
X-14666667Y15350633D01*
X-14666667Y15350633D02*
X-14633333Y15283966D01*
X-14633333Y15283966D02*
X-14633333Y15117300D01*
X-14633333Y15117300D02*
X-14666667Y15050633D01*
X-14666667Y15050633D02*
X-14700000Y15017300D01*
X-14700000Y15017300D02*
X-14766667Y14983966D01*
X-14766667Y14983966D02*
X-14966667Y14983966D01*
X-14966667Y14983966D02*
X-15033333Y15017300D01*
X-15033333Y15017300D02*
X-15066667Y15050633D01*
X-30083966Y-595833D02*
X-29583966Y-595833D01*
X-29583966Y-595833D02*
X-29483966Y-629166D01*
X-29483966Y-629166D02*
X-29417300Y-695833D01*
X-29417300Y-695833D02*
X-29383966Y-795833D01*
X-29383966Y-795833D02*
X-29383966Y-862500D01*
X-30017300Y-295833D02*
X-30050633Y-262500D01*
X-30050633Y-262500D02*
X-30083966Y-195833D01*
X-30083966Y-195833D02*
X-30083966Y-29167D01*
X-30083966Y-29167D02*
X-30050633Y37499D01*
X-30050633Y37499D02*
X-30017300Y70833D01*
X-30017300Y70833D02*
X-29950633Y104166D01*
X-29950633Y104166D02*
X-29883966Y104166D01*
X-29883966Y104166D02*
X-29783966Y70833D01*
X-29783966Y70833D02*
X-29383966Y-329167D01*
X-29383966Y-329167D02*
X-29383966Y104166D01*
X-6383966Y5866666D02*
X-5817300Y5866666D01*
X-5817300Y5866666D02*
X-5750633Y5900000D01*
X-5750633Y5900000D02*
X-5717300Y5933333D01*
X-5717300Y5933333D02*
X-5683966Y6000000D01*
X-5683966Y6000000D02*
X-5683966Y6133333D01*
X-5683966Y6133333D02*
X-5717300Y6200000D01*
X-5717300Y6200000D02*
X-5750633Y6233333D01*
X-5750633Y6233333D02*
X-5817300Y6266666D01*
X-5817300Y6266666D02*
X-6383966Y6266666D01*
X-6150633Y6899999D02*
X-5683966Y6899999D01*
X-6417300Y6733333D02*
X-5917300Y6566666D01*
X-5917300Y6566666D02*
X-5917300Y6999999D01*
X-21183966Y15883333D02*
X-21883966Y15883333D01*
X-21883966Y15883333D02*
X-21883966Y16050000D01*
X-21883966Y16050000D02*
X-21850633Y16150000D01*
X-21850633Y16150000D02*
X-21783966Y16216667D01*
X-21783966Y16216667D02*
X-21717300Y16250000D01*
X-21717300Y16250000D02*
X-21583966Y16283333D01*
X-21583966Y16283333D02*
X-21483966Y16283333D01*
X-21483966Y16283333D02*
X-21350633Y16250000D01*
X-21350633Y16250000D02*
X-21283966Y16216667D01*
X-21283966Y16216667D02*
X-21217300Y16150000D01*
X-21217300Y16150000D02*
X-21183966Y16050000D01*
X-21183966Y16050000D02*
X-21183966Y15883333D01*
X-21650633Y16883333D02*
X-21183966Y16883333D01*
X-21917300Y16716667D02*
X-21417300Y16550000D01*
X-21417300Y16550000D02*
X-21417300Y16983333D01*
X-23693966Y15883333D02*
X-24393966Y15883333D01*
X-24393966Y15883333D02*
X-24393966Y16050000D01*
X-24393966Y16050000D02*
X-24360633Y16150000D01*
X-24360633Y16150000D02*
X-24293966Y16216667D01*
X-24293966Y16216667D02*
X-24227300Y16250000D01*
X-24227300Y16250000D02*
X-24093966Y16283333D01*
X-24093966Y16283333D02*
X-23993966Y16283333D01*
X-23993966Y16283333D02*
X-23860633Y16250000D01*
X-23860633Y16250000D02*
X-23793966Y16216667D01*
X-23793966Y16216667D02*
X-23727300Y16150000D01*
X-23727300Y16150000D02*
X-23693966Y16050000D01*
X-23693966Y16050000D02*
X-23693966Y15883333D01*
X-24393966Y16516667D02*
X-24393966Y16950000D01*
X-24393966Y16950000D02*
X-24127300Y16716667D01*
X-24127300Y16716667D02*
X-24127300Y16816667D01*
X-24127300Y16816667D02*
X-24093966Y16883333D01*
X-24093966Y16883333D02*
X-24060633Y16916667D01*
X-24060633Y16916667D02*
X-23993966Y16950000D01*
X-23993966Y16950000D02*
X-23827300Y16950000D01*
X-23827300Y16950000D02*
X-23760633Y16916667D01*
X-23760633Y16916667D02*
X-23727300Y16883333D01*
X-23727300Y16883333D02*
X-23693966Y16816667D01*
X-23693966Y16816667D02*
X-23693966Y16616667D01*
X-23693966Y16616667D02*
X-23727300Y16550000D01*
X-23727300Y16550000D02*
X-23760633Y16516667D01*
X-26183966Y15883333D02*
X-26883966Y15883333D01*
X-26883966Y15883333D02*
X-26883966Y16050000D01*
X-26883966Y16050000D02*
X-26850633Y16150000D01*
X-26850633Y16150000D02*
X-26783966Y16216667D01*
X-26783966Y16216667D02*
X-26717300Y16250000D01*
X-26717300Y16250000D02*
X-26583966Y16283333D01*
X-26583966Y16283333D02*
X-26483966Y16283333D01*
X-26483966Y16283333D02*
X-26350633Y16250000D01*
X-26350633Y16250000D02*
X-26283966Y16216667D01*
X-26283966Y16216667D02*
X-26217300Y16150000D01*
X-26217300Y16150000D02*
X-26183966Y16050000D01*
X-26183966Y16050000D02*
X-26183966Y15883333D01*
X-26817300Y16550000D02*
X-26850633Y16583333D01*
X-26850633Y16583333D02*
X-26883966Y16650000D01*
X-26883966Y16650000D02*
X-26883966Y16816667D01*
X-26883966Y16816667D02*
X-26850633Y16883333D01*
X-26850633Y16883333D02*
X-26817300Y16916667D01*
X-26817300Y16916667D02*
X-26750633Y16950000D01*
X-26750633Y16950000D02*
X-26683966Y16950000D01*
X-26683966Y16950000D02*
X-26583966Y16916667D01*
X-26583966Y16916667D02*
X-26183966Y16516667D01*
X-26183966Y16516667D02*
X-26183966Y16950000D01*
X-28783966Y15883333D02*
X-29483966Y15883333D01*
X-29483966Y15883333D02*
X-29483966Y16050000D01*
X-29483966Y16050000D02*
X-29450633Y16150000D01*
X-29450633Y16150000D02*
X-29383966Y16216667D01*
X-29383966Y16216667D02*
X-29317300Y16250000D01*
X-29317300Y16250000D02*
X-29183966Y16283333D01*
X-29183966Y16283333D02*
X-29083966Y16283333D01*
X-29083966Y16283333D02*
X-28950633Y16250000D01*
X-28950633Y16250000D02*
X-28883966Y16216667D01*
X-28883966Y16216667D02*
X-28817300Y16150000D01*
X-28817300Y16150000D02*
X-28783966Y16050000D01*
X-28783966Y16050000D02*
X-28783966Y15883333D01*
X-28783966Y16950000D02*
X-28783966Y16550000D01*
X-28783966Y16750000D02*
X-29483966Y16750000D01*
X-29483966Y16750000D02*
X-29383966Y16683333D01*
X-29383966Y16683333D02*
X-29317300Y16616667D01*
X-29317300Y16616667D02*
X-29283966Y16550000D01*
X-11250000Y4750633D02*
X-11283333Y4717300D01*
X-11283333Y4717300D02*
X-11383333Y4683966D01*
X-11383333Y4683966D02*
X-11450000Y4683966D01*
X-11450000Y4683966D02*
X-11550000Y4717300D01*
X-11550000Y4717300D02*
X-11616667Y4783966D01*
X-11616667Y4783966D02*
X-11650000Y4850633D01*
X-11650000Y4850633D02*
X-11683333Y4983966D01*
X-11683333Y4983966D02*
X-11683333Y5083966D01*
X-11683333Y5083966D02*
X-11650000Y5217300D01*
X-11650000Y5217300D02*
X-11616667Y5283966D01*
X-11616667Y5283966D02*
X-11550000Y5350633D01*
X-11550000Y5350633D02*
X-11450000Y5383966D01*
X-11450000Y5383966D02*
X-11383333Y5383966D01*
X-11383333Y5383966D02*
X-11283333Y5350633D01*
X-11283333Y5350633D02*
X-11250000Y5317300D01*
X-10583333Y4683966D02*
X-10983333Y4683966D01*
X-10783333Y4683966D02*
X-10783333Y5383966D01*
X-10783333Y5383966D02*
X-10850000Y5283966D01*
X-10850000Y5283966D02*
X-10916667Y5217300D01*
X-10916667Y5217300D02*
X-10983333Y5183966D01*
X-10183333Y5083966D02*
X-10250000Y5117300D01*
X-10250000Y5117300D02*
X-10283333Y5150633D01*
X-10283333Y5150633D02*
X-10316666Y5217300D01*
X-10316666Y5217300D02*
X-10316666Y5250633D01*
X-10316666Y5250633D02*
X-10283333Y5317300D01*
X-10283333Y5317300D02*
X-10250000Y5350633D01*
X-10250000Y5350633D02*
X-10183333Y5383966D01*
X-10183333Y5383966D02*
X-10050000Y5383966D01*
X-10050000Y5383966D02*
X-9983333Y5350633D01*
X-9983333Y5350633D02*
X-9950000Y5317300D01*
X-9950000Y5317300D02*
X-9916666Y5250633D01*
X-9916666Y5250633D02*
X-9916666Y5217300D01*
X-9916666Y5217300D02*
X-9950000Y5150633D01*
X-9950000Y5150633D02*
X-9983333Y5117300D01*
X-9983333Y5117300D02*
X-10050000Y5083966D01*
X-10050000Y5083966D02*
X-10183333Y5083966D01*
X-10183333Y5083966D02*
X-10250000Y5050633D01*
X-10250000Y5050633D02*
X-10283333Y5017300D01*
X-10283333Y5017300D02*
X-10316666Y4950633D01*
X-10316666Y4950633D02*
X-10316666Y4817300D01*
X-10316666Y4817300D02*
X-10283333Y4750633D01*
X-10283333Y4750633D02*
X-10250000Y4717300D01*
X-10250000Y4717300D02*
X-10183333Y4683966D01*
X-10183333Y4683966D02*
X-10050000Y4683966D01*
X-10050000Y4683966D02*
X-9983333Y4717300D01*
X-9983333Y4717300D02*
X-9950000Y4750633D01*
X-9950000Y4750633D02*
X-9916666Y4817300D01*
X-9916666Y4817300D02*
X-9916666Y4950633D01*
X-9916666Y4950633D02*
X-9950000Y5017300D01*
X-9950000Y5017300D02*
X-9983333Y5050633D01*
X-9983333Y5050633D02*
X-10050000Y5083966D01*
X-32450633Y-19750000D02*
X-32417300Y-19783333D01*
X-32417300Y-19783333D02*
X-32383966Y-19883333D01*
X-32383966Y-19883333D02*
X-32383966Y-19950000D01*
X-32383966Y-19950000D02*
X-32417300Y-20050000D01*
X-32417300Y-20050000D02*
X-32483966Y-20116667D01*
X-32483966Y-20116667D02*
X-32550633Y-20150000D01*
X-32550633Y-20150000D02*
X-32683966Y-20183333D01*
X-32683966Y-20183333D02*
X-32783966Y-20183333D01*
X-32783966Y-20183333D02*
X-32917300Y-20150000D01*
X-32917300Y-20150000D02*
X-32983966Y-20116667D01*
X-32983966Y-20116667D02*
X-33050633Y-20050000D01*
X-33050633Y-20050000D02*
X-33083966Y-19950000D01*
X-33083966Y-19950000D02*
X-33083966Y-19883333D01*
X-33083966Y-19883333D02*
X-33050633Y-19783333D01*
X-33050633Y-19783333D02*
X-33017300Y-19750000D01*
X-32383966Y-19083333D02*
X-32383966Y-19483333D01*
X-32383966Y-19283333D02*
X-33083966Y-19283333D01*
X-33083966Y-19283333D02*
X-32983966Y-19350000D01*
X-32983966Y-19350000D02*
X-32917300Y-19416667D01*
X-32917300Y-19416667D02*
X-32883966Y-19483333D01*
X-33083966Y-18850000D02*
X-33083966Y-18383333D01*
X-33083966Y-18383333D02*
X-32383966Y-18683333D01*
X-37350000Y-14359366D02*
X-37383333Y-14392700D01*
X-37383333Y-14392700D02*
X-37483333Y-14426033D01*
X-37483333Y-14426033D02*
X-37550000Y-14426033D01*
X-37550000Y-14426033D02*
X-37650000Y-14392700D01*
X-37650000Y-14392700D02*
X-37716667Y-14326033D01*
X-37716667Y-14326033D02*
X-37750000Y-14259366D01*
X-37750000Y-14259366D02*
X-37783333Y-14126033D01*
X-37783333Y-14126033D02*
X-37783333Y-14026033D01*
X-37783333Y-14026033D02*
X-37750000Y-13892700D01*
X-37750000Y-13892700D02*
X-37716667Y-13826033D01*
X-37716667Y-13826033D02*
X-37650000Y-13759366D01*
X-37650000Y-13759366D02*
X-37550000Y-13726033D01*
X-37550000Y-13726033D02*
X-37483333Y-13726033D01*
X-37483333Y-13726033D02*
X-37383333Y-13759366D01*
X-37383333Y-13759366D02*
X-37350000Y-13792700D01*
X-36683333Y-14426033D02*
X-37083333Y-14426033D01*
X-36883333Y-14426033D02*
X-36883333Y-13726033D01*
X-36883333Y-13726033D02*
X-36950000Y-13826033D01*
X-36950000Y-13826033D02*
X-37016667Y-13892700D01*
X-37016667Y-13892700D02*
X-37083333Y-13926033D01*
X-36083333Y-13726033D02*
X-36216666Y-13726033D01*
X-36216666Y-13726033D02*
X-36283333Y-13759366D01*
X-36283333Y-13759366D02*
X-36316666Y-13792700D01*
X-36316666Y-13792700D02*
X-36383333Y-13892700D01*
X-36383333Y-13892700D02*
X-36416666Y-14026033D01*
X-36416666Y-14026033D02*
X-36416666Y-14292700D01*
X-36416666Y-14292700D02*
X-36383333Y-14359366D01*
X-36383333Y-14359366D02*
X-36350000Y-14392700D01*
X-36350000Y-14392700D02*
X-36283333Y-14426033D01*
X-36283333Y-14426033D02*
X-36150000Y-14426033D01*
X-36150000Y-14426033D02*
X-36083333Y-14392700D01*
X-36083333Y-14392700D02*
X-36050000Y-14359366D01*
X-36050000Y-14359366D02*
X-36016666Y-14292700D01*
X-36016666Y-14292700D02*
X-36016666Y-14126033D01*
X-36016666Y-14126033D02*
X-36050000Y-14059366D01*
X-36050000Y-14059366D02*
X-36083333Y-14026033D01*
X-36083333Y-14026033D02*
X-36150000Y-13992700D01*
X-36150000Y-13992700D02*
X-36283333Y-13992700D01*
X-36283333Y-13992700D02*
X-36350000Y-14026033D01*
X-36350000Y-14026033D02*
X-36383333Y-14059366D01*
X-36383333Y-14059366D02*
X-36416666Y-14126033D01*
X-33712500Y-7619366D02*
X-33745833Y-7652700D01*
X-33745833Y-7652700D02*
X-33845833Y-7686033D01*
X-33845833Y-7686033D02*
X-33912500Y-7686033D01*
X-33912500Y-7686033D02*
X-34012500Y-7652700D01*
X-34012500Y-7652700D02*
X-34079167Y-7586033D01*
X-34079167Y-7586033D02*
X-34112500Y-7519366D01*
X-34112500Y-7519366D02*
X-34145833Y-7386033D01*
X-34145833Y-7386033D02*
X-34145833Y-7286033D01*
X-34145833Y-7286033D02*
X-34112500Y-7152700D01*
X-34112500Y-7152700D02*
X-34079167Y-7086033D01*
X-34079167Y-7086033D02*
X-34012500Y-7019366D01*
X-34012500Y-7019366D02*
X-33912500Y-6986033D01*
X-33912500Y-6986033D02*
X-33845833Y-6986033D01*
X-33845833Y-6986033D02*
X-33745833Y-7019366D01*
X-33745833Y-7019366D02*
X-33712500Y-7052700D01*
X-33045833Y-7686033D02*
X-33445833Y-7686033D01*
X-33245833Y-7686033D02*
X-33245833Y-6986033D01*
X-33245833Y-6986033D02*
X-33312500Y-7086033D01*
X-33312500Y-7086033D02*
X-33379167Y-7152700D01*
X-33379167Y-7152700D02*
X-33445833Y-7186033D01*
X-32412500Y-6986033D02*
X-32745833Y-6986033D01*
X-32745833Y-6986033D02*
X-32779166Y-7319366D01*
X-32779166Y-7319366D02*
X-32745833Y-7286033D01*
X-32745833Y-7286033D02*
X-32679166Y-7252700D01*
X-32679166Y-7252700D02*
X-32512500Y-7252700D01*
X-32512500Y-7252700D02*
X-32445833Y-7286033D01*
X-32445833Y-7286033D02*
X-32412500Y-7319366D01*
X-32412500Y-7319366D02*
X-32379166Y-7386033D01*
X-32379166Y-7386033D02*
X-32379166Y-7552700D01*
X-32379166Y-7552700D02*
X-32412500Y-7619366D01*
X-32412500Y-7619366D02*
X-32445833Y-7652700D01*
X-32445833Y-7652700D02*
X-32512500Y-7686033D01*
X-32512500Y-7686033D02*
X-32679166Y-7686033D01*
X-32679166Y-7686033D02*
X-32745833Y-7652700D01*
X-32745833Y-7652700D02*
X-32779166Y-7619366D01*
X-13950000Y-949366D02*
X-13983333Y-982700D01*
X-13983333Y-982700D02*
X-14083333Y-1016033D01*
X-14083333Y-1016033D02*
X-14150000Y-1016033D01*
X-14150000Y-1016033D02*
X-14250000Y-982700D01*
X-14250000Y-982700D02*
X-14316667Y-916033D01*
X-14316667Y-916033D02*
X-14350000Y-849366D01*
X-14350000Y-849366D02*
X-14383333Y-716033D01*
X-14383333Y-716033D02*
X-14383333Y-616033D01*
X-14383333Y-616033D02*
X-14350000Y-482700D01*
X-14350000Y-482700D02*
X-14316667Y-416033D01*
X-14316667Y-416033D02*
X-14250000Y-349366D01*
X-14250000Y-349366D02*
X-14150000Y-316033D01*
X-14150000Y-316033D02*
X-14083333Y-316033D01*
X-14083333Y-316033D02*
X-13983333Y-349366D01*
X-13983333Y-349366D02*
X-13950000Y-382700D01*
X-13283333Y-1016033D02*
X-13683333Y-1016033D01*
X-13483333Y-1016033D02*
X-13483333Y-316033D01*
X-13483333Y-316033D02*
X-13550000Y-416033D01*
X-13550000Y-416033D02*
X-13616667Y-482700D01*
X-13616667Y-482700D02*
X-13683333Y-516033D01*
X-12683333Y-549366D02*
X-12683333Y-1016033D01*
X-12850000Y-282700D02*
X-13016666Y-782700D01*
X-13016666Y-782700D02*
X-12583333Y-782700D01*
X-13950000Y3050633D02*
X-13983333Y3017300D01*
X-13983333Y3017300D02*
X-14083333Y2983966D01*
X-14083333Y2983966D02*
X-14150000Y2983966D01*
X-14150000Y2983966D02*
X-14250000Y3017300D01*
X-14250000Y3017300D02*
X-14316667Y3083966D01*
X-14316667Y3083966D02*
X-14350000Y3150633D01*
X-14350000Y3150633D02*
X-14383333Y3283966D01*
X-14383333Y3283966D02*
X-14383333Y3383966D01*
X-14383333Y3383966D02*
X-14350000Y3517300D01*
X-14350000Y3517300D02*
X-14316667Y3583966D01*
X-14316667Y3583966D02*
X-14250000Y3650633D01*
X-14250000Y3650633D02*
X-14150000Y3683966D01*
X-14150000Y3683966D02*
X-14083333Y3683966D01*
X-14083333Y3683966D02*
X-13983333Y3650633D01*
X-13983333Y3650633D02*
X-13950000Y3617300D01*
X-13283333Y2983966D02*
X-13683333Y2983966D01*
X-13483333Y2983966D02*
X-13483333Y3683966D01*
X-13483333Y3683966D02*
X-13550000Y3583966D01*
X-13550000Y3583966D02*
X-13616667Y3517300D01*
X-13616667Y3517300D02*
X-13683333Y3483966D01*
X-13050000Y3683966D02*
X-12616666Y3683966D01*
X-12616666Y3683966D02*
X-12850000Y3417300D01*
X-12850000Y3417300D02*
X-12750000Y3417300D01*
X-12750000Y3417300D02*
X-12683333Y3383966D01*
X-12683333Y3383966D02*
X-12650000Y3350633D01*
X-12650000Y3350633D02*
X-12616666Y3283966D01*
X-12616666Y3283966D02*
X-12616666Y3117300D01*
X-12616666Y3117300D02*
X-12650000Y3050633D01*
X-12650000Y3050633D02*
X-12683333Y3017300D01*
X-12683333Y3017300D02*
X-12750000Y2983966D01*
X-12750000Y2983966D02*
X-12950000Y2983966D01*
X-12950000Y2983966D02*
X-13016666Y3017300D01*
X-13016666Y3017300D02*
X-13050000Y3050633D01*
X-21550633Y6549999D02*
X-21517300Y6516666D01*
X-21517300Y6516666D02*
X-21483966Y6416666D01*
X-21483966Y6416666D02*
X-21483966Y6349999D01*
X-21483966Y6349999D02*
X-21517300Y6249999D01*
X-21517300Y6249999D02*
X-21583966Y6183333D01*
X-21583966Y6183333D02*
X-21650633Y6149999D01*
X-21650633Y6149999D02*
X-21783966Y6116666D01*
X-21783966Y6116666D02*
X-21883966Y6116666D01*
X-21883966Y6116666D02*
X-22017300Y6149999D01*
X-22017300Y6149999D02*
X-22083966Y6183333D01*
X-22083966Y6183333D02*
X-22150633Y6249999D01*
X-22150633Y6249999D02*
X-22183966Y6349999D01*
X-22183966Y6349999D02*
X-22183966Y6416666D01*
X-22183966Y6416666D02*
X-22150633Y6516666D01*
X-22150633Y6516666D02*
X-22117300Y6549999D01*
X-21483966Y7216666D02*
X-21483966Y6816666D01*
X-21483966Y7016666D02*
X-22183966Y7016666D01*
X-22183966Y7016666D02*
X-22083966Y6949999D01*
X-22083966Y6949999D02*
X-22017300Y6883333D01*
X-22017300Y6883333D02*
X-21983966Y6816666D01*
X-22117300Y7483333D02*
X-22150633Y7516666D01*
X-22150633Y7516666D02*
X-22183966Y7583333D01*
X-22183966Y7583333D02*
X-22183966Y7750000D01*
X-22183966Y7750000D02*
X-22150633Y7816666D01*
X-22150633Y7816666D02*
X-22117300Y7850000D01*
X-22117300Y7850000D02*
X-22050633Y7883333D01*
X-22050633Y7883333D02*
X-21983966Y7883333D01*
X-21983966Y7883333D02*
X-21883966Y7850000D01*
X-21883966Y7850000D02*
X-21483966Y7450000D01*
X-21483966Y7450000D02*
X-21483966Y7883333D01*
X-25050000Y650633D02*
X-25083333Y617300D01*
X-25083333Y617300D02*
X-25183333Y583966D01*
X-25183333Y583966D02*
X-25250000Y583966D01*
X-25250000Y583966D02*
X-25350000Y617300D01*
X-25350000Y617300D02*
X-25416667Y683966D01*
X-25416667Y683966D02*
X-25450000Y750633D01*
X-25450000Y750633D02*
X-25483333Y883966D01*
X-25483333Y883966D02*
X-25483333Y983966D01*
X-25483333Y983966D02*
X-25450000Y1117300D01*
X-25450000Y1117300D02*
X-25416667Y1183966D01*
X-25416667Y1183966D02*
X-25350000Y1250633D01*
X-25350000Y1250633D02*
X-25250000Y1283966D01*
X-25250000Y1283966D02*
X-25183333Y1283966D01*
X-25183333Y1283966D02*
X-25083333Y1250633D01*
X-25083333Y1250633D02*
X-25050000Y1217300D01*
X-24383333Y583966D02*
X-24783333Y583966D01*
X-24583333Y583966D02*
X-24583333Y1283966D01*
X-24583333Y1283966D02*
X-24650000Y1183966D01*
X-24650000Y1183966D02*
X-24716667Y1117300D01*
X-24716667Y1117300D02*
X-24783333Y1083966D01*
X-23716666Y583966D02*
X-24116666Y583966D01*
X-23916666Y583966D02*
X-23916666Y1283966D01*
X-23916666Y1283966D02*
X-23983333Y1183966D01*
X-23983333Y1183966D02*
X-24050000Y1117300D01*
X-24050000Y1117300D02*
X-24116666Y1083966D01*
X-25050000Y-2949366D02*
X-25083333Y-2982700D01*
X-25083333Y-2982700D02*
X-25183333Y-3016033D01*
X-25183333Y-3016033D02*
X-25250000Y-3016033D01*
X-25250000Y-3016033D02*
X-25350000Y-2982700D01*
X-25350000Y-2982700D02*
X-25416667Y-2916033D01*
X-25416667Y-2916033D02*
X-25450000Y-2849366D01*
X-25450000Y-2849366D02*
X-25483333Y-2716033D01*
X-25483333Y-2716033D02*
X-25483333Y-2616033D01*
X-25483333Y-2616033D02*
X-25450000Y-2482700D01*
X-25450000Y-2482700D02*
X-25416667Y-2416033D01*
X-25416667Y-2416033D02*
X-25350000Y-2349366D01*
X-25350000Y-2349366D02*
X-25250000Y-2316033D01*
X-25250000Y-2316033D02*
X-25183333Y-2316033D01*
X-25183333Y-2316033D02*
X-25083333Y-2349366D01*
X-25083333Y-2349366D02*
X-25050000Y-2382700D01*
X-24383333Y-3016033D02*
X-24783333Y-3016033D01*
X-24583333Y-3016033D02*
X-24583333Y-2316033D01*
X-24583333Y-2316033D02*
X-24650000Y-2416033D01*
X-24650000Y-2416033D02*
X-24716667Y-2482700D01*
X-24716667Y-2482700D02*
X-24783333Y-2516033D01*
X-23950000Y-2316033D02*
X-23883333Y-2316033D01*
X-23883333Y-2316033D02*
X-23816666Y-2349366D01*
X-23816666Y-2349366D02*
X-23783333Y-2382700D01*
X-23783333Y-2382700D02*
X-23750000Y-2449366D01*
X-23750000Y-2449366D02*
X-23716666Y-2582700D01*
X-23716666Y-2582700D02*
X-23716666Y-2749366D01*
X-23716666Y-2749366D02*
X-23750000Y-2882700D01*
X-23750000Y-2882700D02*
X-23783333Y-2949366D01*
X-23783333Y-2949366D02*
X-23816666Y-2982700D01*
X-23816666Y-2982700D02*
X-23883333Y-3016033D01*
X-23883333Y-3016033D02*
X-23950000Y-3016033D01*
X-23950000Y-3016033D02*
X-24016666Y-2982700D01*
X-24016666Y-2982700D02*
X-24050000Y-2949366D01*
X-24050000Y-2949366D02*
X-24083333Y-2882700D01*
X-24083333Y-2882700D02*
X-24116666Y-2749366D01*
X-24116666Y-2749366D02*
X-24116666Y-2582700D01*
X-24116666Y-2582700D02*
X-24083333Y-2449366D01*
X-24083333Y-2449366D02*
X-24050000Y-2382700D01*
X-24050000Y-2382700D02*
X-24016666Y-2349366D01*
X-24016666Y-2349366D02*
X-23950000Y-2316033D01*
X-22950633Y-7116666D02*
X-22917300Y-7149999D01*
X-22917300Y-7149999D02*
X-22883966Y-7249999D01*
X-22883966Y-7249999D02*
X-22883966Y-7316666D01*
X-22883966Y-7316666D02*
X-22917300Y-7416666D01*
X-22917300Y-7416666D02*
X-22983966Y-7483333D01*
X-22983966Y-7483333D02*
X-23050633Y-7516666D01*
X-23050633Y-7516666D02*
X-23183966Y-7549999D01*
X-23183966Y-7549999D02*
X-23283966Y-7549999D01*
X-23283966Y-7549999D02*
X-23417300Y-7516666D01*
X-23417300Y-7516666D02*
X-23483966Y-7483333D01*
X-23483966Y-7483333D02*
X-23550633Y-7416666D01*
X-23550633Y-7416666D02*
X-23583966Y-7316666D01*
X-23583966Y-7316666D02*
X-23583966Y-7249999D01*
X-23583966Y-7249999D02*
X-23550633Y-7149999D01*
X-23550633Y-7149999D02*
X-23517300Y-7116666D01*
X-22883966Y-6783333D02*
X-22883966Y-6649999D01*
X-22883966Y-6649999D02*
X-22917300Y-6583333D01*
X-22917300Y-6583333D02*
X-22950633Y-6549999D01*
X-22950633Y-6549999D02*
X-23050633Y-6483333D01*
X-23050633Y-6483333D02*
X-23183966Y-6449999D01*
X-23183966Y-6449999D02*
X-23450633Y-6449999D01*
X-23450633Y-6449999D02*
X-23517300Y-6483333D01*
X-23517300Y-6483333D02*
X-23550633Y-6516666D01*
X-23550633Y-6516666D02*
X-23583966Y-6583333D01*
X-23583966Y-6583333D02*
X-23583966Y-6716666D01*
X-23583966Y-6716666D02*
X-23550633Y-6783333D01*
X-23550633Y-6783333D02*
X-23517300Y-6816666D01*
X-23517300Y-6816666D02*
X-23450633Y-6849999D01*
X-23450633Y-6849999D02*
X-23283966Y-6849999D01*
X-23283966Y-6849999D02*
X-23217300Y-6816666D01*
X-23217300Y-6816666D02*
X-23183966Y-6783333D01*
X-23183966Y-6783333D02*
X-23150633Y-6716666D01*
X-23150633Y-6716666D02*
X-23150633Y-6583333D01*
X-23150633Y-6583333D02*
X-23183966Y-6516666D01*
X-23183966Y-6516666D02*
X-23217300Y-6483333D01*
X-23217300Y-6483333D02*
X-23283966Y-6449999D01*
X-21950633Y-7116666D02*
X-21917300Y-7149999D01*
X-21917300Y-7149999D02*
X-21883966Y-7249999D01*
X-21883966Y-7249999D02*
X-21883966Y-7316666D01*
X-21883966Y-7316666D02*
X-21917300Y-7416666D01*
X-21917300Y-7416666D02*
X-21983966Y-7483333D01*
X-21983966Y-7483333D02*
X-22050633Y-7516666D01*
X-22050633Y-7516666D02*
X-22183966Y-7549999D01*
X-22183966Y-7549999D02*
X-22283966Y-7549999D01*
X-22283966Y-7549999D02*
X-22417300Y-7516666D01*
X-22417300Y-7516666D02*
X-22483966Y-7483333D01*
X-22483966Y-7483333D02*
X-22550633Y-7416666D01*
X-22550633Y-7416666D02*
X-22583966Y-7316666D01*
X-22583966Y-7316666D02*
X-22583966Y-7249999D01*
X-22583966Y-7249999D02*
X-22550633Y-7149999D01*
X-22550633Y-7149999D02*
X-22517300Y-7116666D01*
X-22283966Y-6716666D02*
X-22317300Y-6783333D01*
X-22317300Y-6783333D02*
X-22350633Y-6816666D01*
X-22350633Y-6816666D02*
X-22417300Y-6849999D01*
X-22417300Y-6849999D02*
X-22450633Y-6849999D01*
X-22450633Y-6849999D02*
X-22517300Y-6816666D01*
X-22517300Y-6816666D02*
X-22550633Y-6783333D01*
X-22550633Y-6783333D02*
X-22583966Y-6716666D01*
X-22583966Y-6716666D02*
X-22583966Y-6583333D01*
X-22583966Y-6583333D02*
X-22550633Y-6516666D01*
X-22550633Y-6516666D02*
X-22517300Y-6483333D01*
X-22517300Y-6483333D02*
X-22450633Y-6449999D01*
X-22450633Y-6449999D02*
X-22417300Y-6449999D01*
X-22417300Y-6449999D02*
X-22350633Y-6483333D01*
X-22350633Y-6483333D02*
X-22317300Y-6516666D01*
X-22317300Y-6516666D02*
X-22283966Y-6583333D01*
X-22283966Y-6583333D02*
X-22283966Y-6716666D01*
X-22283966Y-6716666D02*
X-22250633Y-6783333D01*
X-22250633Y-6783333D02*
X-22217300Y-6816666D01*
X-22217300Y-6816666D02*
X-22150633Y-6849999D01*
X-22150633Y-6849999D02*
X-22017300Y-6849999D01*
X-22017300Y-6849999D02*
X-21950633Y-6816666D01*
X-21950633Y-6816666D02*
X-21917300Y-6783333D01*
X-21917300Y-6783333D02*
X-21883966Y-6716666D01*
X-21883966Y-6716666D02*
X-21883966Y-6583333D01*
X-21883966Y-6583333D02*
X-21917300Y-6516666D01*
X-21917300Y-6516666D02*
X-21950633Y-6483333D01*
X-21950633Y-6483333D02*
X-22017300Y-6449999D01*
X-22017300Y-6449999D02*
X-22150633Y-6449999D01*
X-22150633Y-6449999D02*
X-22217300Y-6483333D01*
X-22217300Y-6483333D02*
X-22250633Y-6516666D01*
X-22250633Y-6516666D02*
X-22283966Y-6583333D01*
X-19150633Y-7116666D02*
X-19117300Y-7149999D01*
X-19117300Y-7149999D02*
X-19083966Y-7249999D01*
X-19083966Y-7249999D02*
X-19083966Y-7316666D01*
X-19083966Y-7316666D02*
X-19117300Y-7416666D01*
X-19117300Y-7416666D02*
X-19183966Y-7483333D01*
X-19183966Y-7483333D02*
X-19250633Y-7516666D01*
X-19250633Y-7516666D02*
X-19383966Y-7549999D01*
X-19383966Y-7549999D02*
X-19483966Y-7549999D01*
X-19483966Y-7549999D02*
X-19617300Y-7516666D01*
X-19617300Y-7516666D02*
X-19683966Y-7483333D01*
X-19683966Y-7483333D02*
X-19750633Y-7416666D01*
X-19750633Y-7416666D02*
X-19783966Y-7316666D01*
X-19783966Y-7316666D02*
X-19783966Y-7249999D01*
X-19783966Y-7249999D02*
X-19750633Y-7149999D01*
X-19750633Y-7149999D02*
X-19717300Y-7116666D01*
X-19783966Y-6883333D02*
X-19783966Y-6416666D01*
X-19783966Y-6416666D02*
X-19083966Y-6716666D01*
X-20950633Y-7116666D02*
X-20917300Y-7149999D01*
X-20917300Y-7149999D02*
X-20883966Y-7249999D01*
X-20883966Y-7249999D02*
X-20883966Y-7316666D01*
X-20883966Y-7316666D02*
X-20917300Y-7416666D01*
X-20917300Y-7416666D02*
X-20983966Y-7483333D01*
X-20983966Y-7483333D02*
X-21050633Y-7516666D01*
X-21050633Y-7516666D02*
X-21183966Y-7549999D01*
X-21183966Y-7549999D02*
X-21283966Y-7549999D01*
X-21283966Y-7549999D02*
X-21417300Y-7516666D01*
X-21417300Y-7516666D02*
X-21483966Y-7483333D01*
X-21483966Y-7483333D02*
X-21550633Y-7416666D01*
X-21550633Y-7416666D02*
X-21583966Y-7316666D01*
X-21583966Y-7316666D02*
X-21583966Y-7249999D01*
X-21583966Y-7249999D02*
X-21550633Y-7149999D01*
X-21550633Y-7149999D02*
X-21517300Y-7116666D01*
X-21583966Y-6516666D02*
X-21583966Y-6649999D01*
X-21583966Y-6649999D02*
X-21550633Y-6716666D01*
X-21550633Y-6716666D02*
X-21517300Y-6749999D01*
X-21517300Y-6749999D02*
X-21417300Y-6816666D01*
X-21417300Y-6816666D02*
X-21283966Y-6849999D01*
X-21283966Y-6849999D02*
X-21017300Y-6849999D01*
X-21017300Y-6849999D02*
X-20950633Y-6816666D01*
X-20950633Y-6816666D02*
X-20917300Y-6783333D01*
X-20917300Y-6783333D02*
X-20883966Y-6716666D01*
X-20883966Y-6716666D02*
X-20883966Y-6583333D01*
X-20883966Y-6583333D02*
X-20917300Y-6516666D01*
X-20917300Y-6516666D02*
X-20950633Y-6483333D01*
X-20950633Y-6483333D02*
X-21017300Y-6449999D01*
X-21017300Y-6449999D02*
X-21183966Y-6449999D01*
X-21183966Y-6449999D02*
X-21250633Y-6483333D01*
X-21250633Y-6483333D02*
X-21283966Y-6516666D01*
X-21283966Y-6516666D02*
X-21317300Y-6583333D01*
X-21317300Y-6583333D02*
X-21317300Y-6716666D01*
X-21317300Y-6716666D02*
X-21283966Y-6783333D01*
X-21283966Y-6783333D02*
X-21250633Y-6816666D01*
X-21250633Y-6816666D02*
X-21183966Y-6849999D01*
X-22550633Y6883333D02*
X-22517300Y6850000D01*
X-22517300Y6850000D02*
X-22483966Y6750000D01*
X-22483966Y6750000D02*
X-22483966Y6683333D01*
X-22483966Y6683333D02*
X-22517300Y6583333D01*
X-22517300Y6583333D02*
X-22583966Y6516667D01*
X-22583966Y6516667D02*
X-22650633Y6483333D01*
X-22650633Y6483333D02*
X-22783966Y6450000D01*
X-22783966Y6450000D02*
X-22883966Y6450000D01*
X-22883966Y6450000D02*
X-23017300Y6483333D01*
X-23017300Y6483333D02*
X-23083966Y6516667D01*
X-23083966Y6516667D02*
X-23150633Y6583333D01*
X-23150633Y6583333D02*
X-23183966Y6683333D01*
X-23183966Y6683333D02*
X-23183966Y6750000D01*
X-23183966Y6750000D02*
X-23150633Y6850000D01*
X-23150633Y6850000D02*
X-23117300Y6883333D01*
X-23183966Y7516667D02*
X-23183966Y7183333D01*
X-23183966Y7183333D02*
X-22850633Y7150000D01*
X-22850633Y7150000D02*
X-22883966Y7183333D01*
X-22883966Y7183333D02*
X-22917300Y7250000D01*
X-22917300Y7250000D02*
X-22917300Y7416667D01*
X-22917300Y7416667D02*
X-22883966Y7483333D01*
X-22883966Y7483333D02*
X-22850633Y7516667D01*
X-22850633Y7516667D02*
X-22783966Y7550000D01*
X-22783966Y7550000D02*
X-22617300Y7550000D01*
X-22617300Y7550000D02*
X-22550633Y7516667D01*
X-22550633Y7516667D02*
X-22517300Y7483333D01*
X-22517300Y7483333D02*
X-22483966Y7416667D01*
X-22483966Y7416667D02*
X-22483966Y7250000D01*
X-22483966Y7250000D02*
X-22517300Y7183333D01*
X-22517300Y7183333D02*
X-22550633Y7150000D01*
X-18250633Y-7116666D02*
X-18217300Y-7149999D01*
X-18217300Y-7149999D02*
X-18183966Y-7249999D01*
X-18183966Y-7249999D02*
X-18183966Y-7316666D01*
X-18183966Y-7316666D02*
X-18217300Y-7416666D01*
X-18217300Y-7416666D02*
X-18283966Y-7483333D01*
X-18283966Y-7483333D02*
X-18350633Y-7516666D01*
X-18350633Y-7516666D02*
X-18483966Y-7549999D01*
X-18483966Y-7549999D02*
X-18583966Y-7549999D01*
X-18583966Y-7549999D02*
X-18717300Y-7516666D01*
X-18717300Y-7516666D02*
X-18783966Y-7483333D01*
X-18783966Y-7483333D02*
X-18850633Y-7416666D01*
X-18850633Y-7416666D02*
X-18883966Y-7316666D01*
X-18883966Y-7316666D02*
X-18883966Y-7249999D01*
X-18883966Y-7249999D02*
X-18850633Y-7149999D01*
X-18850633Y-7149999D02*
X-18817300Y-7116666D01*
X-18650633Y-6516666D02*
X-18183966Y-6516666D01*
X-18917300Y-6683333D02*
X-18417300Y-6849999D01*
X-18417300Y-6849999D02*
X-18417300Y-6416666D01*
X-15316666Y-8649366D02*
X-15349999Y-8682700D01*
X-15349999Y-8682700D02*
X-15449999Y-8716033D01*
X-15449999Y-8716033D02*
X-15516666Y-8716033D01*
X-15516666Y-8716033D02*
X-15616666Y-8682700D01*
X-15616666Y-8682700D02*
X-15683333Y-8616033D01*
X-15683333Y-8616033D02*
X-15716666Y-8549366D01*
X-15716666Y-8549366D02*
X-15749999Y-8416033D01*
X-15749999Y-8416033D02*
X-15749999Y-8316033D01*
X-15749999Y-8316033D02*
X-15716666Y-8182700D01*
X-15716666Y-8182700D02*
X-15683333Y-8116033D01*
X-15683333Y-8116033D02*
X-15616666Y-8049366D01*
X-15616666Y-8049366D02*
X-15516666Y-8016033D01*
X-15516666Y-8016033D02*
X-15449999Y-8016033D01*
X-15449999Y-8016033D02*
X-15349999Y-8049366D01*
X-15349999Y-8049366D02*
X-15316666Y-8082700D01*
X-15083333Y-8016033D02*
X-14649999Y-8016033D01*
X-14649999Y-8016033D02*
X-14883333Y-8282700D01*
X-14883333Y-8282700D02*
X-14783333Y-8282700D01*
X-14783333Y-8282700D02*
X-14716666Y-8316033D01*
X-14716666Y-8316033D02*
X-14683333Y-8349366D01*
X-14683333Y-8349366D02*
X-14649999Y-8416033D01*
X-14649999Y-8416033D02*
X-14649999Y-8582700D01*
X-14649999Y-8582700D02*
X-14683333Y-8649366D01*
X-14683333Y-8649366D02*
X-14716666Y-8682700D01*
X-14716666Y-8682700D02*
X-14783333Y-8716033D01*
X-14783333Y-8716033D02*
X-14983333Y-8716033D01*
X-14983333Y-8716033D02*
X-15049999Y-8682700D01*
X-15049999Y-8682700D02*
X-15083333Y-8649366D01*
X-20750633Y9683333D02*
X-20717300Y9650000D01*
X-20717300Y9650000D02*
X-20683966Y9550000D01*
X-20683966Y9550000D02*
X-20683966Y9483333D01*
X-20683966Y9483333D02*
X-20717300Y9383333D01*
X-20717300Y9383333D02*
X-20783966Y9316667D01*
X-20783966Y9316667D02*
X-20850633Y9283333D01*
X-20850633Y9283333D02*
X-20983966Y9250000D01*
X-20983966Y9250000D02*
X-21083966Y9250000D01*
X-21083966Y9250000D02*
X-21217300Y9283333D01*
X-21217300Y9283333D02*
X-21283966Y9316667D01*
X-21283966Y9316667D02*
X-21350633Y9383333D01*
X-21350633Y9383333D02*
X-21383966Y9483333D01*
X-21383966Y9483333D02*
X-21383966Y9550000D01*
X-21383966Y9550000D02*
X-21350633Y9650000D01*
X-21350633Y9650000D02*
X-21317300Y9683333D01*
X-21317300Y9950000D02*
X-21350633Y9983333D01*
X-21350633Y9983333D02*
X-21383966Y10050000D01*
X-21383966Y10050000D02*
X-21383966Y10216667D01*
X-21383966Y10216667D02*
X-21350633Y10283333D01*
X-21350633Y10283333D02*
X-21317300Y10316667D01*
X-21317300Y10316667D02*
X-21250633Y10350000D01*
X-21250633Y10350000D02*
X-21183966Y10350000D01*
X-21183966Y10350000D02*
X-21083966Y10316667D01*
X-21083966Y10316667D02*
X-20683966Y9916667D01*
X-20683966Y9916667D02*
X-20683966Y10350000D01*
X-14250633Y11983333D02*
X-14217300Y11950000D01*
X-14217300Y11950000D02*
X-14183966Y11850000D01*
X-14183966Y11850000D02*
X-14183966Y11783333D01*
X-14183966Y11783333D02*
X-14217300Y11683333D01*
X-14217300Y11683333D02*
X-14283966Y11616667D01*
X-14283966Y11616667D02*
X-14350633Y11583333D01*
X-14350633Y11583333D02*
X-14483966Y11550000D01*
X-14483966Y11550000D02*
X-14583966Y11550000D01*
X-14583966Y11550000D02*
X-14717300Y11583333D01*
X-14717300Y11583333D02*
X-14783966Y11616667D01*
X-14783966Y11616667D02*
X-14850633Y11683333D01*
X-14850633Y11683333D02*
X-14883966Y11783333D01*
X-14883966Y11783333D02*
X-14883966Y11850000D01*
X-14883966Y11850000D02*
X-14850633Y11950000D01*
X-14850633Y11950000D02*
X-14817300Y11983333D01*
X-14183966Y12650000D02*
X-14183966Y12250000D01*
X-14183966Y12450000D02*
X-14883966Y12450000D01*
X-14883966Y12450000D02*
X-14783966Y12383333D01*
X-14783966Y12383333D02*
X-14717300Y12316667D01*
X-14717300Y12316667D02*
X-14683966Y12250000D01*
D13*
G04 #@! TO.C,C19*
X-8238748Y10065000D02*
X-8761252Y10065000D01*
X-8238748Y11535000D02*
X-8761252Y11535000D01*
G04 #@! TO.C,SW1*
X-35047500Y16150000D02*
X-35837500Y16150000D01*
X-36847500Y15550000D02*
X-36847500Y9850000D01*
X-33997500Y14300000D02*
X-33997500Y12600000D01*
X-36847500Y14100000D02*
X-38137500Y14100000D01*
X-38137500Y14100000D02*
X-38347500Y13900000D01*
X-38347500Y13900000D02*
X-38347500Y13000000D01*
X-38137500Y12800000D02*
X-38347500Y13000000D01*
X-38137500Y12800000D02*
X-36847500Y12800000D01*
X-33997500Y11300000D02*
X-33997500Y11100000D01*
X-35837500Y9250000D02*
X-35047500Y9250000D01*
G04 #@! TO.C,C20*
X-35435000Y-16761252D02*
X-35435000Y-16238748D01*
X-33965000Y-16761252D02*
X-33965000Y-16238748D01*
G04 #@! TO.C,R7*
X-28153641Y-50000D02*
X-27846359Y-50000D01*
X-28153641Y-810000D02*
X-27846359Y-810000D01*
G04 #@! TO.C,R6*
X-28153641Y-1020000D02*
X-27846359Y-1020000D01*
X-28153641Y-1780000D02*
X-27846359Y-1780000D01*
G04 #@! TO.C,R3*
X-18680000Y6846359D02*
X-18680000Y7153641D01*
X-17920000Y6846359D02*
X-17920000Y7153641D01*
G04 #@! TO.C,R2*
X-13353641Y-7020000D02*
X-13046359Y-7020000D01*
X-13353641Y-7780000D02*
X-13046359Y-7780000D01*
G04 #@! TO.C,R1*
X-12320000Y-8746359D02*
X-12320000Y-9053641D01*
X-13080000Y-8746359D02*
X-13080000Y-9053641D01*
G04 #@! TO.C,U2*
X-14331135Y-2780000D02*
X-14661135Y-2540000D01*
X-14331135Y-2300000D01*
X-14331135Y-2780000D01*
G36*
X-14331135Y-2780000D02*
G01*
X-14661135Y-2540000D01*
X-14331135Y-2300000D01*
X-14331135Y-2780000D01*
G37*
X-22060000Y-2710000D02*
X-22710000Y-2710000D01*
X-22710000Y-2710000D02*
X-22710000Y-2060000D01*
X-16140000Y4510000D02*
X-15490000Y4510000D01*
X-15490000Y4510000D02*
X-15490000Y3860000D01*
X-22060000Y4510000D02*
X-22710000Y4510000D01*
X-22710000Y4510000D02*
X-22710000Y3860000D01*
X-16140000Y-2710000D02*
X-15490000Y-2710000D01*
G04 #@! TO.C,SW3*
X-18700000Y-11900000D02*
X-19900000Y-11900000D01*
X-21500000Y-11900000D02*
X-22700000Y-11900000D01*
X-22700000Y-11900000D02*
X-22700000Y-18300000D01*
X-18700000Y-18300000D02*
X-18700000Y-11900000D01*
X-19900000Y-18300000D02*
X-18700000Y-18300000D01*
X-22700000Y-18300000D02*
X-21500000Y-18300000D01*
G04 #@! TO.C,SW2*
X-10700000Y-11900000D02*
X-11900000Y-11900000D01*
X-13500000Y-11900000D02*
X-14700000Y-11900000D01*
X-14700000Y-11900000D02*
X-14700000Y-18300000D01*
X-10700000Y-18300000D02*
X-10700000Y-11900000D01*
X-11900000Y-18300000D02*
X-10700000Y-18300000D01*
X-14700000Y-18300000D02*
X-13500000Y-18300000D01*
G04 #@! TO.C,U1*
X-12700000Y-6610000D02*
X-15700000Y-6610000D01*
X-12700000Y-4390000D02*
X-15700000Y-4390000D01*
X-12140000Y-6870000D02*
X-12140000Y-6590000D01*
X-11860000Y-6590000D01*
X-12140000Y-6870000D01*
G36*
X-12140000Y-6870000D02*
G01*
X-12140000Y-6590000D01*
X-11860000Y-6590000D01*
X-12140000Y-6870000D01*
G37*
G04 #@! TO.C,J1*
X5150000Y-2450000D02*
X1750000Y-2450000D01*
X1750000Y-3850000D01*
X5150000Y-3850000D01*
X5150000Y-2450000D01*
X5150000Y-4950000D02*
X1750000Y-4950000D01*
X1750000Y-6350000D01*
X5150000Y-6350000D01*
X5150000Y-4950000D01*
X7750000Y-8675000D02*
X4350000Y-8675000D01*
X4350000Y-10075000D01*
X7750000Y-10075000D01*
X7750000Y-8675000D01*
X10050000Y10400000D02*
X6650000Y10400000D01*
X6650000Y9300000D01*
X10050000Y9300000D01*
X10050000Y10400000D01*
X10050000Y8600000D02*
X6650000Y8600000D01*
X6650000Y7500000D01*
X10050000Y7500000D01*
X10050000Y8600000D01*
X10050000Y6325000D02*
X6650000Y6325000D01*
X6650000Y4925000D01*
X10050000Y4925000D01*
X10050000Y6325000D01*
X10050000Y3825000D02*
X6650000Y3825000D01*
X6650000Y2425000D01*
X10050000Y2425000D01*
X10050000Y3825000D01*
X10250000Y1325000D02*
X6650000Y1325000D01*
X6650000Y-75000D01*
X10250000Y-75000D01*
X10250000Y1325000D01*
X10250000Y-1175000D02*
X6650000Y-1175000D01*
X6650000Y-2575000D01*
X10250000Y-2575000D01*
X10250000Y-1175000D01*
X10050000Y-3675000D02*
X6650000Y-3675000D01*
X6650000Y-5075000D01*
X10050000Y-5075000D01*
X10050000Y-3675000D01*
X10050000Y-6175000D02*
X6650000Y-6175000D01*
X6650000Y-7575000D01*
X10050000Y-7575000D01*
X10050000Y-6175000D01*
X25200000Y-12000000D02*
G75*
G02*
X22700000Y-9500000I0J2500000D01*
G01*
X54700000Y-9500000D02*
G75*
G02*
X52200000Y-12000000I-2500000J0D01*
G01*
X22700000Y9500000D02*
G75*
G02*
X25200000Y12000000I2500000J0D01*
G01*
X52200000Y12000000D02*
G75*
G02*
X54700000Y9500000I0J-2500000D01*
G01*
X11700000Y-14500000D02*
X0Y-14500000D01*
X0Y14500000D01*
X11700000Y14500000D01*
X11700000Y-14500000D01*
X25200000Y-12000000D02*
X52200000Y-12000000D01*
X22700000Y-9500000D02*
X22700000Y-2750000D01*
X54700000Y-9500000D02*
X54700000Y9500000D01*
X22700000Y-2750000D02*
X11700000Y-2750000D01*
X22700000Y2750000D02*
X11700000Y2750000D01*
X22700000Y9500000D02*
X22700000Y2750000D01*
X25200000Y12000000D02*
X52200000Y12000000D01*
G04 #@! TO.C,Y1*
X-15200000Y11750000D02*
X-19200000Y11750000D01*
X-15200000Y8450000D02*
X-15200000Y11750000D01*
G04 #@! TO.C,U3*
X-34972500Y-11712500D02*
X-34972500Y-12512500D01*
X-34972500Y-11712500D02*
X-34972500Y-10912500D01*
X-31852500Y-11712500D02*
X-31852500Y-12512500D01*
X-31852500Y-11712500D02*
X-31852500Y-10912500D01*
X-34922500Y-13012500D02*
X-35252500Y-13252500D01*
X-35252500Y-12772500D01*
X-34922500Y-13012500D01*
G36*
X-34922500Y-13012500D02*
G01*
X-35252500Y-13252500D01*
X-35252500Y-12772500D01*
X-34922500Y-13012500D01*
G37*
G04 #@! TO.C,R23*
X-10980000Y7971359D02*
X-10980000Y8278641D01*
X-10220000Y7971359D02*
X-10220000Y8278641D01*
G04 #@! TO.C,R22*
X-8646359Y3580000D02*
X-8953641Y3580000D01*
X-8646359Y2820000D02*
X-8953641Y2820000D01*
G04 #@! TO.C,R21*
X-8646359Y1720000D02*
X-8953641Y1720000D01*
X-8646359Y2480000D02*
X-8953641Y2480000D01*
G04 #@! TO.C,R20*
X-8646359Y620000D02*
X-8953641Y620000D01*
X-8646359Y1380000D02*
X-8953641Y1380000D01*
G04 #@! TO.C,R19*
X-8646359Y-480000D02*
X-8953641Y-480000D01*
X-8646359Y280000D02*
X-8953641Y280000D01*
G04 #@! TO.C,R18*
X-8646359Y-820000D02*
X-8953641Y-820000D01*
X-8646359Y-1580000D02*
X-8953641Y-1580000D01*
G04 #@! TO.C,R17*
X-8646359Y-2680000D02*
X-8953641Y-2680000D01*
X-8646359Y-1920000D02*
X-8953641Y-1920000D01*
G04 #@! TO.C,R16*
X-31520000Y11553641D02*
X-31520000Y11246359D01*
X-32280000Y11553641D02*
X-32280000Y11246359D01*
G04 #@! TO.C,R15*
X-22402500Y19153641D02*
X-22402500Y18846359D01*
X-23162500Y19153641D02*
X-23162500Y18846359D01*
G04 #@! TO.C,R14*
X-24920000Y19153641D02*
X-24920000Y18846359D01*
X-25680000Y19153641D02*
X-25680000Y18846359D01*
G04 #@! TO.C,R13*
X-27427500Y19153641D02*
X-27427500Y18846359D01*
X-28187500Y19153641D02*
X-28187500Y18846359D01*
G04 #@! TO.C,R12*
X-30032500Y19153641D02*
X-30032500Y18846359D01*
X-30792500Y19153641D02*
X-30792500Y18846359D01*
G04 #@! TO.C,R11*
X-36516141Y-11220000D02*
X-36208859Y-11220000D01*
X-36516141Y-11980000D02*
X-36208859Y-11980000D01*
G04 #@! TO.C,R10*
X-36516141Y-9230000D02*
X-36208859Y-9230000D01*
X-36516141Y-9990000D02*
X-36208859Y-9990000D01*
G04 #@! TO.C,R9*
X-28153641Y1480000D02*
X-27846359Y1480000D01*
X-28153641Y720000D02*
X-27846359Y720000D01*
G04 #@! TO.C,R8*
X-28153641Y-2420000D02*
X-27846359Y-2420000D01*
X-28153641Y-3180000D02*
X-27846359Y-3180000D01*
G04 #@! TO.C,R5*
X-12195000Y11453641D02*
X-12195000Y11146359D01*
X-12955000Y11453641D02*
X-12955000Y11146359D01*
G04 #@! TO.C,R4*
X-11120000Y11453641D02*
X-11120000Y11146359D01*
X-11880000Y11453641D02*
X-11880000Y11146359D01*
G04 #@! TO.C,L1*
X-26060000Y-12610000D02*
X-26060000Y-17890000D01*
X-27005000Y-12610000D02*
X-26060000Y-12610000D01*
X-30395000Y-12610000D02*
X-31340000Y-12610000D01*
X-31340000Y-12610000D02*
X-31340000Y-17890000D01*
X-26060000Y-17890000D02*
X-27005000Y-17890000D01*
X-31340000Y-17890000D02*
X-30395000Y-17890000D01*
G04 #@! TO.C,J4*
X-7890000Y15915000D02*
X-8940000Y15915000D01*
X-7890000Y18415000D02*
X-7890000Y15915000D01*
X-8940000Y15915000D02*
X-8940000Y14925000D01*
X-9060000Y20385000D02*
X-11940000Y20385000D01*
X-13110000Y15915000D02*
X-12060000Y15915000D01*
X-13110000Y18415000D02*
X-13110000Y15915000D01*
G04 #@! TO.C,J3*
X-14990000Y15915000D02*
X-16040000Y15915000D01*
X-14990000Y18415000D02*
X-14990000Y15915000D01*
X-16040000Y15915000D02*
X-16040000Y14925000D01*
X-16160000Y20385000D02*
X-19040000Y20385000D01*
X-20210000Y15915000D02*
X-19160000Y15915000D01*
X-20210000Y18415000D02*
X-20210000Y15915000D01*
G04 #@! TO.C,J2*
X-33055000Y4217500D02*
X-34975000Y4217500D01*
X-38690000Y4217500D02*
X-36985000Y4217500D01*
X-34975000Y-4942500D02*
X-33055000Y-4942500D01*
X-36985000Y-4942500D02*
X-38690000Y-4942500D01*
X-38690000Y-4942500D02*
X-38690000Y4217500D01*
G04 #@! TO.C,U4*
X-6740000Y7500000D02*
X-6740000Y8300000D01*
X-6740000Y7500000D02*
X-6740000Y6700000D01*
X-9860000Y7500000D02*
X-9860000Y8300000D01*
X-9860000Y7500000D02*
X-9860000Y6700000D01*
X-6460000Y8560000D02*
X-6790000Y8800000D01*
X-6460000Y9040000D01*
X-6460000Y8560000D01*
G36*
X-6460000Y8560000D02*
G01*
X-6790000Y8800000D01*
X-6460000Y9040000D01*
X-6460000Y8560000D01*
G37*
G04 #@! TO.C,D4*
X-23535000Y14952500D02*
X-22065000Y14952500D01*
X-22065000Y14952500D02*
X-22065000Y17237500D01*
X-23535000Y17237500D02*
X-23535000Y14952500D01*
G04 #@! TO.C,D3*
X-26035000Y14915000D02*
X-24565000Y14915000D01*
X-24565000Y14915000D02*
X-24565000Y17200000D01*
X-26035000Y17200000D02*
X-26035000Y14915000D01*
G04 #@! TO.C,D2*
X-28535000Y14915000D02*
X-27065000Y14915000D01*
X-27065000Y14915000D02*
X-27065000Y17200000D01*
X-28535000Y17200000D02*
X-28535000Y14915000D01*
G04 #@! TO.C,D1*
X-31142500Y14915000D02*
X-29672500Y14915000D01*
X-29672500Y14915000D02*
X-29672500Y17200000D01*
X-31142500Y17200000D02*
X-31142500Y14915000D01*
G04 #@! TO.C,C18*
X-8907836Y5360000D02*
X-8692164Y5360000D01*
X-8907836Y4640000D02*
X-8692164Y4640000D01*
G04 #@! TO.C,C17*
X-33435000Y-16761252D02*
X-33435000Y-16238748D01*
X-31965000Y-16761252D02*
X-31965000Y-16238748D01*
G04 #@! TO.C,C16*
X-36470336Y-10240000D02*
X-36254664Y-10240000D01*
X-36470336Y-10960000D02*
X-36254664Y-10960000D01*
G04 #@! TO.C,C15*
X-33403080Y-8290000D02*
X-33121920Y-8290000D01*
X-33403080Y-9310000D02*
X-33121920Y-9310000D01*
G04 #@! TO.C,C14*
X-13607836Y-1340000D02*
X-13392164Y-1340000D01*
X-13607836Y-2060000D02*
X-13392164Y-2060000D01*
G04 #@! TO.C,C13*
X-13607836Y2660000D02*
X-13392164Y2660000D01*
X-13607836Y1940000D02*
X-13392164Y1940000D01*
G04 #@! TO.C,C12*
X-19660000Y6892164D02*
X-19660000Y7107836D01*
X-18940000Y6892164D02*
X-18940000Y7107836D01*
G04 #@! TO.C,C11*
X-24492164Y1540000D02*
X-24707836Y1540000D01*
X-24492164Y2260000D02*
X-24707836Y2260000D01*
G04 #@! TO.C,C10*
X-24492164Y-2060000D02*
X-24707836Y-2060000D01*
X-24492164Y-1340000D02*
X-24707836Y-1340000D01*
G04 #@! TO.C,C9*
X-23560000Y-5192164D02*
X-23560000Y-5407836D01*
X-22840000Y-5192164D02*
X-22840000Y-5407836D01*
G04 #@! TO.C,C8*
X-22560000Y-5192164D02*
X-22560000Y-5407836D01*
X-21840000Y-5192164D02*
X-21840000Y-5407836D01*
G04 #@! TO.C,C7*
X-19760000Y-5192164D02*
X-19760000Y-5407836D01*
X-19040000Y-5192164D02*
X-19040000Y-5407836D01*
G04 #@! TO.C,C6*
X-21560000Y-5192164D02*
X-21560000Y-5407836D01*
X-20840000Y-5192164D02*
X-20840000Y-5407836D01*
G04 #@! TO.C,C5*
X-20660000Y6892164D02*
X-20660000Y7107836D01*
X-19940000Y6892164D02*
X-19940000Y7107836D01*
G04 #@! TO.C,C4*
X-18140000Y-5192164D02*
X-18140000Y-5407836D01*
X-18860000Y-5192164D02*
X-18860000Y-5407836D01*
G04 #@! TO.C,C3*
X-15332836Y-7040000D02*
X-15117164Y-7040000D01*
X-15332836Y-7760000D02*
X-15117164Y-7760000D01*
G04 #@! TO.C,C2*
X-20260000Y9692164D02*
X-20260000Y9907836D01*
X-19540000Y9692164D02*
X-19540000Y9907836D01*
G04 #@! TO.C,C1*
X-14140000Y10707836D02*
X-14140000Y10492164D01*
X-14860000Y10707836D02*
X-14860000Y10492164D01*
G04 #@! TD*
M02*
